<svg width="145" height="148" viewBox="0 0 145 148" fill="none" xmlns="http://www.w3.org/2000/svg">
<g filter="url(#filter0_d_1375_391)">
<rect x="6" y="4" width="133" height="137" rx="14.847" fill="url(#paint0_linear_1375_391)" fill-opacity="0.1" shape-rendering="crispEdges"/>
<rect x="6.2121" y="4.2121" width="132.576" height="136.576" rx="14.6349" stroke="url(#paint1_linear_1375_391)" stroke-width="0.424201" shape-rendering="crispEdges"/>
</g>
<path opacity="0.3" d="M39.2302 54V46.4461H39.8885L43.3417 52.3381H42.9963L46.4172 46.4461H47.0754V54H46.3093V47.644H46.4927L43.3417 53.0396H42.964L39.7913 47.644H39.9964V54H39.2302ZM48.3281 54L51.7813 46.4461H52.569L56.0222 54H55.1805L52.0079 46.9101H52.3316L49.159 54H48.3281ZM49.6878 51.982L49.9252 51.3346H54.3172L54.5546 51.982H49.6878ZM57.2718 54V46.4461H60.0991C60.7394 46.4461 61.2898 46.5504 61.7502 46.7591C62.2106 46.9605 62.5631 47.2555 62.8077 47.644C63.0595 48.0252 63.1854 48.4893 63.1854 49.036C63.1854 49.5684 63.0595 50.0288 62.8077 50.4173C62.5631 50.7986 62.2106 51.0936 61.7502 51.3022C61.2898 51.5036 60.7394 51.6043 60.0991 51.6043H57.7143L58.0704 51.2374V54H57.2718ZM62.43 54L60.4876 51.259H61.3509L63.3041 54H62.43ZM58.0704 51.3022L57.7143 50.9245H60.0775C60.8329 50.9245 61.4049 50.759 61.7934 50.4281C62.189 50.0972 62.3869 49.6331 62.3869 49.036C62.3869 48.4317 62.189 47.9641 61.7934 47.6332C61.4049 47.3022 60.8329 47.1368 60.0775 47.1368H57.7143L58.0704 46.7591V51.3022ZM65.7608 52.1223L65.7284 51.1511L70.3039 46.4461H71.2212L67.8867 49.9425L67.4335 50.4281L65.7608 52.1223ZM65.0702 54V46.4461H65.8687V54H65.0702ZM70.4982 54L67.2392 50.2446L67.7788 49.6619L71.4478 54H70.4982ZM73.4543 49.8238H77.4471V50.5036H73.4543V49.8238ZM73.5406 53.3094H78.0838V54H72.7421V46.4461H77.9219V47.1368H73.5406V53.3094ZM81.4285 54V47.1368H78.7738V46.4461H84.8817V47.1368H82.227V54H81.4285ZM86.1574 54V46.4461H86.9559V54H86.1574ZM89.4137 54V46.4461H90.072L95.2842 53.0072H94.9388V46.4461H95.7266V54H95.0683L89.867 47.4389H90.2123V54H89.4137ZM101.505 54.0647C100.93 54.0647 100.397 53.9712 99.908 53.7842C99.426 53.5899 99.0051 53.3202 98.6454 52.9748C98.2929 52.6295 98.0159 52.223 97.8145 51.7554C97.6202 51.2878 97.5231 50.777 97.5231 50.2231C97.5231 49.6691 97.6202 49.1583 97.8145 48.6907C98.0159 48.2231 98.2965 47.8166 98.6562 47.4713C99.0159 47.126 99.4367 46.8598 99.9188 46.6727C100.408 46.4785 100.94 46.3814 101.516 46.3814C102.091 46.3814 102.617 46.4713 103.091 46.6512C103.573 46.831 103.983 47.1044 104.322 47.4713L103.825 47.9785C103.509 47.6619 103.16 47.4353 102.778 47.2986C102.397 47.1619 101.987 47.0936 101.548 47.0936C101.081 47.0936 100.649 47.1727 100.253 47.331C99.8648 47.4821 99.5231 47.7015 99.2281 47.9893C98.9403 48.2698 98.7137 48.6008 98.5483 48.9821C98.39 49.3562 98.3109 49.7698 98.3109 50.2231C98.3109 50.6691 98.39 51.0828 98.5483 51.4641C98.7137 51.8453 98.9403 52.1799 99.2281 52.4676C99.5231 52.7482 99.8648 52.9676 100.253 53.1259C100.649 53.277 101.077 53.3525 101.537 53.3525C101.969 53.3525 102.376 53.2878 102.757 53.1583C103.145 53.0288 103.501 52.8094 103.825 52.5L104.278 53.1043C103.919 53.4209 103.498 53.6619 103.016 53.8273C102.534 53.9856 102.03 54.0647 101.505 54.0647ZM103.512 53.0072V50.2231H104.278V53.1043L103.512 53.0072Z" fill="white"/>
<path d="M61.4439 76.644H67.2675C67.8913 76.644 68.2351 76.9974 68.2248 77.5805C68.2248 78.0173 67.9129 78.3614 67.4868 78.4129C67.2994 78.4335 67.1018 78.4438 66.9145 78.4438H55.8899C55.6614 78.4438 55.4216 78.4438 55.2137 78.3604C54.8092 78.2161 54.5797 77.7886 54.6528 77.3827C54.7155 76.9768 55.0583 76.6852 55.5266 76.6646C55.9218 76.644 56.3171 76.6543 56.7123 76.6543H61.4645L61.4439 76.644Z" fill="white"/>
<path d="M61.4035 87.2874H68.3398C69.0366 87.2874 69.4216 87.6727 69.3794 88.2764C69.3485 88.6308 69.1715 88.8904 68.8277 88.9842C68.5992 89.0573 68.3491 89.0882 68.1103 89.0882H54.5094C54.1564 89.0882 53.8126 89.0357 53.5841 88.7338C53.3649 88.4433 53.3443 88.1209 53.4791 87.7871C53.6253 87.444 53.9269 87.2977 54.2799 87.2874C55.2371 87.2668 56.1933 87.2565 57.1506 87.2565H61.4035V87.2874Z" fill="white"/>
<path d="M61.3818 66.0323H68.3912C68.807 66.0323 69.1189 66.1776 69.2959 66.5526C69.5141 67.0007 69.3268 67.5313 68.8595 67.6869C68.5374 67.7909 68.1833 67.8115 67.8405 67.8218H59.4478C57.9297 67.8218 56.4115 67.8218 54.8933 67.8321C54.6751 67.8321 54.4569 67.8321 54.2387 67.8115C53.6561 67.7497 53.3751 67.4375 53.3957 66.8853C53.4163 66.3548 53.7385 66.0426 54.321 66.0426H61.3716L61.3818 66.0323Z" fill="white"/>
<path d="M79.131 78.2209V68.6347C79.131 68.1144 78.8644 67.8538 78.3302 67.8538H72.5066C71.7675 67.8538 71.3311 67.3232 71.5184 66.6989C71.6224 66.3445 71.8612 66.1364 72.2153 66.0735C72.3923 66.0426 72.5683 66.0426 72.7453 66.0426C77.5809 66.0426 82.4164 66.0323 87.2519 66.0323C87.429 66.0323 87.605 66.0323 87.782 66.0632C88.3543 66.1364 88.6456 66.4897 88.6034 67.0522C88.5725 67.5313 88.239 67.8332 87.6986 67.8332C85.671 67.8435 83.6433 67.8641 81.6146 67.8641C81.1706 67.8641 80.9487 68.0825 80.9487 68.5193V88.2646C80.8962 88.8271 80.5534 89.1702 80.0542 89.1702C79.555 89.1702 79.1701 88.7746 79.1186 88.2337V78.2312L79.1289 78.2209H79.131Z" fill="white"/>
<path d="M99.6311 69.4911C99.028 71.021 98.466 72.4674 97.905 73.9252C96.0431 78.724 94.1822 83.5217 92.3315 88.3205C92.1967 88.6739 92.0197 89.0077 91.6244 89.1118C91.2817 89.2055 90.9585 89.1427 90.7094 88.8727C90.449 88.5915 90.3975 88.2587 90.5324 87.9043C90.9688 86.7597 91.4062 85.6141 91.8529 84.4696C94.1194 78.6405 96.3858 72.8115 98.6533 66.9825C98.7058 66.8475 98.7573 66.7218 98.8201 66.5972C98.9971 66.285 99.1947 66.0037 99.6106 66.0346C100.026 66.0656 100.338 66.2634 100.495 66.659C101.014 67.9498 101.545 69.2407 102.044 70.5306C104.238 76.1721 106.421 81.8136 108.605 87.4552C108.699 87.6839 108.762 87.9445 108.782 88.1938C108.813 88.6935 108.575 89.0159 108.159 89.1097C107.68 89.2241 107.295 89.0572 107.099 88.5894C106.848 88.0269 106.64 87.4552 106.422 86.8823C104.207 81.178 102.003 75.4849 99.7876 69.7806C99.7567 69.7074 99.7248 69.6456 99.6425 69.489H99.6322L99.6311 69.4911Z" fill="white"/>
<path d="M40.7841 77.444C40.6276 77.5789 40.4928 77.7046 40.3579 77.8396C39.6508 78.5577 38.9437 79.2757 38.2263 79.9835C37.9556 80.2544 37.8414 80.5563 37.8414 80.9406C37.8414 83.2823 37.8414 85.6147 37.8311 87.9564V88.3417C37.7786 88.7786 37.4153 89.1124 36.9778 89.1433C36.5311 89.1742 36.1564 88.8939 36.0628 88.4458C36.0216 88.248 36 88.0399 36 87.8421V67.3261C36 67.1077 36.0103 66.8893 36.0731 66.6812C36.1873 66.2753 36.5404 66.0352 36.9675 66.0455C37.3731 66.0455 37.6849 66.2949 37.7889 66.7224C37.8403 66.9305 37.8403 67.1489 37.8403 67.3684V77.0278C37.8403 77.2462 37.8609 77.4759 37.8815 77.7768C38.3807 77.2565 38.8068 76.798 39.2443 76.3612C42.468 73.1242 45.7019 69.8873 48.9359 66.6606C49.1027 66.504 49.2787 66.3484 49.466 66.2238C49.9024 65.9425 50.2771 65.9745 50.5786 66.2969C50.9111 66.6616 50.9636 67.1396 50.6311 67.5043C49.9652 68.243 49.2694 68.9621 48.5613 69.6586C46.5027 71.72 44.4431 73.7702 42.363 75.8203C42.1551 76.0285 42.1859 76.1531 42.3424 76.3612C45.0566 80.0463 47.7605 83.7304 50.4541 87.4156C50.5889 87.6031 50.7351 87.7906 50.7968 88.009C50.942 88.4458 50.7341 88.8939 50.3491 89.0814C49.9642 89.2689 49.5175 89.1752 49.2262 88.7899C48.8001 88.249 48.3945 87.6865 47.989 87.1353C45.6494 83.9715 43.3192 80.8067 40.9796 77.6428C40.9385 77.58 40.886 77.5285 40.8026 77.445H40.782L40.7841 77.444Z" fill="white"/>
<path d="M53.6662 100.051V93.2189H56.2233C56.8024 93.2189 57.3002 93.3133 57.7166 93.502C58.133 93.6841 58.4518 93.9509 58.6731 94.3023C58.9008 94.6471 59.0147 95.0668 59.0147 95.5613C59.0147 96.0428 58.9008 96.4592 58.6731 96.8106C58.4518 97.1554 58.133 97.4222 57.7166 97.6109C57.3002 97.7996 56.8024 97.8939 56.2233 97.8939H54.0664L54.3885 97.5523V100.051H53.6662ZM54.3885 97.6109L54.0664 97.2595H56.2038C56.887 97.2595 57.4043 97.1131 57.7556 96.8203C58.1135 96.521 58.2924 96.1013 58.2924 95.5613C58.2924 95.0147 58.1135 94.5918 57.7556 94.2925C57.4043 93.9932 56.887 93.8436 56.2038 93.8436H54.0664L54.3885 93.502V97.6109ZM60.5763 100.051V93.2189H63.1334C63.7125 93.2189 64.2103 93.3133 64.6267 93.502C65.0431 93.6841 65.3619 93.9509 65.5832 94.3023C65.8109 94.6471 65.9247 95.0668 65.9247 95.5613C65.9247 96.0428 65.8109 96.4592 65.5832 96.8106C65.3619 97.1554 65.0431 97.4222 64.6267 97.6109C64.2103 97.7931 63.7125 97.8842 63.1334 97.8842H60.9765L61.2985 97.5523V100.051H60.5763ZM65.2416 100.051L63.4848 97.5718H64.2656L66.0321 100.051H65.2416ZM61.2985 97.6109L60.9765 97.2693H63.1139C63.7971 97.2693 64.3144 97.1196 64.6657 96.8203C65.0236 96.521 65.2025 96.1013 65.2025 95.5613C65.2025 95.0147 65.0236 94.5918 64.6657 94.2925C64.3144 93.9932 63.7971 93.8436 63.1139 93.8436H60.9765L61.2985 93.502V97.6109ZM70.6159 100.109C70.1019 100.109 69.6237 100.025 69.1812 99.8557C68.7453 99.68 68.3646 99.436 68.0393 99.1237C67.7205 98.8048 67.47 98.4372 67.2878 98.0208C67.1121 97.5979 67.0243 97.1359 67.0243 96.6349C67.0243 96.1339 67.1121 95.6752 67.2878 95.2587C67.47 94.8358 67.7205 94.4682 68.0393 94.1559C68.3646 93.837 68.7453 93.593 69.1812 93.4239C69.6171 93.2482 70.0954 93.1604 70.6159 93.1604C71.1299 93.1604 71.6049 93.2482 72.0409 93.4239C72.4768 93.593 72.8542 93.8338 73.173 94.1461C73.4983 94.4584 73.7488 94.826 73.9245 95.249C74.1067 95.6719 74.1978 96.1339 74.1978 96.6349C74.1978 97.1359 74.1067 97.5979 73.9245 98.0208C73.7488 98.4437 73.4983 98.8113 73.173 99.1237C72.8542 99.436 72.4768 99.68 72.0409 99.8557C71.6049 100.025 71.1299 100.109 70.6159 100.109ZM70.6159 99.4653C71.0258 99.4653 71.4032 99.3969 71.7481 99.2603C72.0994 99.1172 72.402 98.9187 72.6557 98.6649C72.916 98.4047 73.1177 98.1054 73.2608 97.767C73.404 97.4222 73.4756 97.0448 73.4756 96.6349C73.4756 96.225 73.404 95.8508 73.2608 95.5125C73.1177 95.1676 72.916 94.8683 72.6557 94.6146C72.402 94.3543 72.0994 94.1559 71.7481 94.0192C71.4032 93.8761 71.0258 93.8045 70.6159 93.8045C70.206 93.8045 69.8254 93.8761 69.474 94.0192C69.1226 94.1559 68.8168 94.3543 68.5566 94.6146C68.3028 94.8683 68.1011 95.1676 67.9515 95.5125C67.8083 95.8508 67.7367 96.225 67.7367 96.6349C67.7367 97.0383 67.8083 97.4124 67.9515 97.7573C68.1011 98.1021 68.3028 98.4047 68.5566 98.6649C68.8168 98.9187 69.1226 99.1172 69.474 99.2603C69.8254 99.3969 70.206 99.4653 70.6159 99.4653ZM75.8166 100.051V93.2189H76.412L79.5352 98.5478H79.2229L82.3168 93.2189H82.9121V100.051H82.2192V94.3023H82.3851L79.5352 99.1822H79.1936L76.3242 94.3023H76.5096V100.051H75.8166ZM88.1247 100.109C87.6106 100.109 87.1324 100.025 86.69 99.8557C86.254 99.68 85.8734 99.436 85.548 99.1237C85.2292 98.8048 84.9787 98.4372 84.7965 98.0208C84.6209 97.5979 84.533 97.1359 84.533 96.6349C84.533 96.1339 84.6209 95.6752 84.7965 95.2587C84.9787 94.8358 85.2292 94.4682 85.548 94.1559C85.8734 93.837 86.254 93.593 86.69 93.4239C87.1259 93.2482 87.6041 93.1604 88.1247 93.1604C88.6387 93.1604 89.1137 93.2482 89.5496 93.4239C89.9856 93.593 90.3629 93.8338 90.6818 94.1461C91.0071 94.4584 91.2576 94.826 91.4333 95.249C91.6155 95.6719 91.7066 96.1339 91.7066 96.6349C91.7066 97.1359 91.6155 97.5979 91.4333 98.0208C91.2576 98.4437 91.0071 98.8113 90.6818 99.1237C90.3629 99.436 89.9856 99.68 89.5496 99.8557C89.1137 100.025 88.6387 100.109 88.1247 100.109ZM88.1247 99.4653C88.5346 99.4653 88.912 99.3969 89.2568 99.2603C89.6082 99.1172 89.9107 98.9187 90.1645 98.6649C90.4248 98.4047 90.6265 98.1054 90.7696 97.767C90.9127 97.4222 90.9843 97.0448 90.9843 96.6349C90.9843 96.225 90.9127 95.8508 90.7696 95.5125C90.6265 95.1676 90.4248 94.8683 90.1645 94.6146C89.9107 94.3543 89.6082 94.1559 89.2568 94.0192C88.912 93.8761 88.5346 93.8045 88.1247 93.8045C87.7147 93.8045 87.3341 93.8761 86.9828 94.0192C86.6314 94.1559 86.3256 94.3543 86.0653 94.6146C85.8116 94.8683 85.6099 95.1676 85.4602 95.5125C85.3171 95.8508 85.2455 96.225 85.2455 96.6349C85.2455 97.0383 85.3171 97.4124 85.4602 97.7573C85.6099 98.1021 85.8116 98.4047 86.0653 98.6649C86.3256 98.9187 86.6314 99.1172 86.9828 99.2603C87.3341 99.3969 87.7147 99.4653 88.1247 99.4653Z" fill="white"/>
<defs>
<filter id="filter0_d_1375_391" x="0.824748" y="0.521552" width="143.351" height="147.351" filterUnits="userSpaceOnUse" color-interpolation-filters="sRGB">
<feFlood flood-opacity="0" result="BackgroundImageFix"/>
<feColorMatrix in="SourceAlpha" type="matrix" values="0 0 0 0 0 0 0 0 0 0 0 0 0 0 0 0 0 0 127 0" result="hardAlpha"/>
<feOffset dy="1.6968"/>
<feGaussianBlur stdDeviation="2.58763"/>
<feComposite in2="hardAlpha" operator="out"/>
<feColorMatrix type="matrix" values="0 0 0 0 0 0 0 0 0 0 0 0 0 0 0 0 0 0 0.25 0"/>
<feBlend mode="normal" in2="BackgroundImageFix" result="effect1_dropShadow_1375_391"/>
<feBlend mode="normal" in="SourceGraphic" in2="effect1_dropShadow_1375_391" result="shape"/>
</filter>
<linearGradient id="paint0_linear_1375_391" x1="139" y1="72.5" x2="6" y2="72.5" gradientUnits="userSpaceOnUse">
<stop stop-color="#FEF9E7"/>
<stop offset="1" stop-color="#FEF9E7" stop-opacity="0"/>
</linearGradient>
<linearGradient id="paint1_linear_1375_391" x1="139" y1="72.5" x2="6" y2="72.5" gradientUnits="userSpaceOnUse">
<stop stop-color="white"/>
<stop offset="1" stop-color="white"/>
</linearGradient>
</defs>
</svg>
