<svg width="145" height="148" viewBox="0 0 145 148" fill="none" xmlns="http://www.w3.org/2000/svg">
<g filter="url(#filter0_d_1375_240)">
<rect x="6" y="4" width="133" height="137" rx="14.847" fill="url(#paint0_linear_1375_240)" fill-opacity="0.1" shape-rendering="crispEdges"/>
<rect x="6.2121" y="4.2121" width="132.576" height="136.576" rx="14.6349" stroke="url(#paint1_linear_1375_240)" stroke-width="0.424201" shape-rendering="crispEdges"/>
</g>
<path d="M62.0404 75.2326H67.7025C68.3099 75.2326 68.6435 75.574 68.6331 76.1353C68.6331 76.5569 68.3307 76.8879 67.9162 76.9371C67.7337 76.9578 67.5408 76.9681 67.361 76.9681H56.6442C56.4226 76.9681 56.188 76.9681 55.9872 76.8879C55.5936 76.7483 55.372 76.337 55.4424 75.9464C55.5023 75.5559 55.836 75.274 56.2922 75.2533C56.6754 75.2326 57.0613 75.2429 57.4445 75.2429H62.0638L62.043 75.2326H62.0404Z" fill="white"/>
<path d="M62.3243 85.4484L69.0682 85.4794C69.746 85.4794 70.1188 85.8519 70.0797 86.4338C70.0484 86.7753 69.8763 87.0262 69.5427 87.1167C69.3211 87.1865 69.0786 87.2176 68.844 87.2176H55.622C55.2779 87.2176 54.9442 87.1658 54.7226 86.8761C54.5089 86.5968 54.4906 86.2864 54.621 85.9631C54.7644 85.632 55.0563 85.4924 55.4004 85.482C56.3311 85.4613 57.2617 85.451 58.1898 85.451H62.3243V85.4484Z" fill="white"/>
<path d="M62.2485 65.0002H69.0628C69.4669 65.0002 69.7693 65.1398 69.9413 65.5019C70.1525 65.9339 69.9726 66.446 69.5164 66.596C69.2036 66.6969 68.8595 66.715 68.5258 66.7253H60.3663C58.8908 66.7253 57.4153 66.7254 55.9399 66.7357C55.7287 66.7357 55.5149 66.7357 55.3038 66.715C54.7381 66.6555 54.4644 66.3555 54.4852 65.8227C54.5061 65.3105 54.8189 65.0105 55.3846 65.0105H62.238L62.2485 65.0002Z" fill="white"/>
<path d="M79.5036 76.7506V67.5091C79.5036 67.0073 79.2455 66.7564 78.7241 66.7564H73.062C72.3425 66.7564 71.9202 66.2443 72.1027 65.6442C72.2044 65.3028 72.4364 65.101 72.7805 65.0415C72.9526 65.0105 73.1246 65.0105 73.2967 65.0105C77.9968 65.0105 82.697 65.0002 87.3998 65.0002C87.5718 65.0002 87.7439 65.0002 87.9159 65.0312C88.4712 65.101 88.7554 65.4424 88.7136 65.9856C88.685 66.4486 88.3591 66.7383 87.8351 66.7383C85.8643 66.7486 83.8936 66.7693 81.9202 66.7693C81.4874 66.7693 81.2737 66.9788 81.2737 67.4004V86.4344C81.2215 86.9776 80.8904 87.3061 80.403 87.3061C79.9155 87.3061 79.5427 86.9259 79.4932 86.4034V76.761L79.5036 76.7506Z" fill="white"/>
<path d="M99.4341 68.3347C98.8476 69.809 98.3028 71.2031 97.7553 72.6102C95.9461 77.2348 94.137 81.8621 92.3382 86.4867C92.2079 86.8281 92.0359 87.1489 91.65 87.2497C91.3164 87.3403 91.0035 87.2808 90.7611 87.0195C90.5082 86.7479 90.4587 86.4272 90.589 86.0858C91.014 84.9814 91.4389 83.8769 91.8716 82.7751C94.0744 77.1572 96.2772 71.5368 98.4826 65.9189C98.5348 65.7896 98.5843 65.668 98.6442 65.5464C98.8163 65.2464 99.0092 64.9748 99.4133 65.0033C99.8173 65.0343 100.12 65.2231 100.274 65.6059C100.779 66.85 101.293 68.0941 101.78 69.3382C103.913 74.7776 106.037 80.2145 108.159 85.6539C108.251 85.8737 108.31 86.1246 108.331 86.3651C108.36 86.8462 108.128 87.1566 107.724 87.2471C107.26 87.3584 106.885 87.1954 106.694 86.7454C106.452 86.2022 106.248 85.6513 106.037 85.1003C103.884 79.6015 101.741 74.1129 99.5879 68.614C99.5593 68.5442 99.528 68.4847 99.4472 68.3321H99.4367L99.4341 68.3347Z" fill="white"/>
<path d="M42.2266 76.0033C42.0754 76.1326 41.9424 76.2542 41.8121 76.3835C41.1239 77.0767 40.4383 77.7673 39.7396 78.4501C39.4763 78.7113 39.3642 79.001 39.3642 79.3735C39.3642 81.6315 39.3642 83.8791 39.3538 86.1372V86.5096C39.3017 86.9312 38.9497 87.2519 38.5248 87.283C38.0895 87.314 37.7271 87.0424 37.6359 86.6105C37.5968 86.4191 37.5759 86.2199 37.5759 86.0285V66.2522C37.5759 66.0427 37.5864 65.8306 37.6463 65.6314C37.7584 65.2409 38.0999 65.0081 38.517 65.0184C38.9106 65.0184 39.2156 65.259 39.3147 65.6702C39.3642 65.872 39.3642 66.0815 39.3642 66.2936V75.6049C39.3642 75.8145 39.3851 76.0369 39.4033 76.3266C39.8882 75.8248 40.3027 75.3825 40.7276 74.9609C43.8611 71.8416 47.0049 68.7197 50.1488 65.6107C50.3104 65.4607 50.4825 65.3107 50.665 65.1891C51.0899 64.9175 51.4523 64.9486 51.7468 65.259C52.0701 65.6107 52.1222 66.0711 51.799 66.4229C51.1525 67.1342 50.4747 67.8274 49.7865 68.4998C47.7844 70.4863 45.7823 72.4624 43.762 74.4384C43.5587 74.6402 43.59 74.7592 43.7412 74.9609C46.3793 78.5122 49.007 82.0634 51.6269 85.6173C51.7573 85.7983 51.9006 85.9794 51.9606 86.1889C52.1014 86.6105 51.9006 87.0424 51.5253 87.2235C51.1499 87.4045 50.7171 87.314 50.433 86.9416C50.0185 86.4191 49.6248 85.8785 49.2312 85.3457C46.958 82.2962 44.6927 79.2441 42.4169 76.1947C42.3778 76.1352 42.3256 76.0835 42.2448 76.0033H42.224H42.2266Z" fill="white"/>
<path d="M38.0884 100.132V93.449H38.7948V100.132H38.0884ZM40.9692 100.132V93.449H41.5516L44.6066 98.6616H44.3011L47.3275 93.449H47.9099V100.132H47.232V94.5087H47.3943L44.6066 99.2822H44.2725L41.4657 94.5087H41.6471V100.132H40.9692ZM50.0873 100.132V93.449H50.6697L53.7247 98.6616H53.4192L56.4456 93.449H57.028V100.132H56.3502V94.5087H56.5125L53.7247 99.2822H53.3906L50.5838 94.5087H50.7652V100.132H50.0873ZM62.1268 100.189C61.624 100.189 61.1562 100.106 60.7234 99.9409C60.297 99.7691 59.9247 99.5304 59.6064 99.2249C59.2946 98.913 59.0495 98.5534 58.8713 98.1461C58.6995 97.7324 58.6135 97.2805 58.6135 96.7904C58.6135 96.3003 58.6995 95.8516 58.8713 95.4443C59.0495 95.0306 59.2946 94.671 59.6064 94.3655C59.9247 94.0536 60.297 93.8149 60.7234 93.6494C61.1499 93.4776 61.6177 93.3917 62.1268 93.3917C62.6296 93.3917 63.0943 93.4776 63.5207 93.6494C63.9471 93.8149 64.3163 94.0504 64.6281 94.3559C64.9464 94.6614 65.1914 95.021 65.3633 95.4347C65.5415 95.8484 65.6306 96.3003 65.6306 96.7904C65.6306 97.2805 65.5415 97.7324 65.3633 98.1461C65.1914 98.5598 64.9464 98.9194 64.6281 99.2249C64.3163 99.5304 63.9471 99.7691 63.5207 99.9409C63.0943 100.106 62.6296 100.189 62.1268 100.189ZM62.1268 99.559C62.5278 99.559 62.8969 99.4922 63.2343 99.3585C63.578 99.2185 63.8739 99.0244 64.1221 98.7762C64.3767 98.5216 64.574 98.2288 64.7141 97.8978C64.8541 97.5605 64.9241 97.1914 64.9241 96.7904C64.9241 96.3894 64.8541 96.0235 64.7141 95.6925C64.574 95.3552 64.3767 95.0624 64.1221 94.8142C63.8739 94.5596 63.578 94.3655 63.2343 94.2318C62.8969 94.0918 62.5278 94.0218 62.1268 94.0218C61.7259 94.0218 61.3535 94.0918 61.0098 94.2318C60.6661 94.3655 60.367 94.5596 60.1124 94.8142C59.8642 95.0624 59.6669 95.3552 59.5205 95.6925C59.3805 96.0235 59.3105 96.3894 59.3105 96.7904C59.3105 97.185 59.3805 97.551 59.5205 97.8883C59.6669 98.2256 59.8642 98.5216 60.1124 98.7762C60.367 99.0244 60.6661 99.2185 61.0098 99.3585C61.3535 99.4922 61.7259 99.559 62.1268 99.559ZM68.4193 100.132V94.06H66.0707V93.449H71.4743V94.06H69.1257V100.132H68.4193ZM72.6029 100.132V93.449H75.1042C75.6707 93.449 76.1576 93.5412 76.5649 93.7258C76.9723 93.904 77.2841 94.165 77.5005 94.5087C77.7233 94.846 77.8347 95.2565 77.8347 95.7402C77.8347 96.2112 77.7233 96.6185 77.5005 96.9622C77.2841 97.2996 76.9723 97.5605 76.5649 97.7451C76.1576 97.9233 75.6707 98.0124 75.1042 98.0124H72.9943L73.3094 97.6878V100.132H72.6029ZM77.1664 100.132L75.4479 97.7069H76.2117L77.9397 100.132H77.1664ZM73.3094 97.7451L72.9943 97.4109H75.0851C75.7534 97.4109 76.2594 97.2646 76.6031 96.9718C76.9532 96.679 77.1282 96.2685 77.1282 95.7402C77.1282 95.2056 76.9532 94.7919 76.6031 94.4991C76.2594 94.2063 75.7534 94.06 75.0851 94.06H72.9943L73.3094 93.7258V97.7451ZM80.1322 96.4372H83.6646V97.0386H80.1322V96.4372ZM80.2086 99.5208H84.2279V100.132H79.5021V93.449H84.0847V94.06H80.2086V99.5208ZM88.5808 100.189C87.7279 100.189 87.0564 99.9441 86.5663 99.454C86.0763 98.9639 85.8312 98.2384 85.8312 97.2773V93.449H86.5377V97.2486C86.5377 98.0379 86.7159 98.6202 87.0723 98.9957C87.4288 99.3713 87.9316 99.559 88.5808 99.559C89.2363 99.559 89.7423 99.3713 90.0987 98.9957C90.4551 98.6202 90.6334 98.0379 90.6334 97.2486V93.449H91.3207V97.2773C91.3207 98.2384 91.0757 98.9639 90.5856 99.454C90.1019 99.9441 89.4336 100.189 88.5808 100.189ZM94.879 100.132L97.934 93.449H98.631L101.686 100.132H100.941L98.1345 93.8595H98.4209L95.6141 100.132H94.879ZM96.0819 98.3466L96.292 97.7737H100.178L100.388 98.3466H96.0819ZM105.629 100.189C105.12 100.189 104.649 100.106 104.216 99.9409C103.79 99.7691 103.417 99.5304 103.099 99.2249C102.787 98.9194 102.542 98.5598 102.364 98.1461C102.192 97.7324 102.106 97.2805 102.106 96.7904C102.106 96.3003 102.192 95.8484 102.364 95.4347C102.542 95.021 102.791 94.6614 103.109 94.3559C103.427 94.0504 103.799 93.8149 104.226 93.6494C104.659 93.4776 105.13 93.3917 105.639 93.3917C106.148 93.3917 106.613 93.4712 107.033 93.6303C107.459 93.7895 107.822 94.0313 108.121 94.3559L107.682 94.8046C107.402 94.5246 107.093 94.3241 106.756 94.2032C106.418 94.0822 106.056 94.0218 105.667 94.0218C105.254 94.0218 104.872 94.0918 104.522 94.2318C104.178 94.3655 103.876 94.5596 103.615 94.8142C103.36 95.0624 103.16 95.3552 103.013 95.6925C102.873 96.0235 102.803 96.3894 102.803 96.7904C102.803 97.185 102.873 97.551 103.013 97.8883C103.16 98.2256 103.36 98.5216 103.615 98.7762C103.876 99.0244 104.178 99.2185 104.522 99.3585C104.872 99.4922 105.25 99.559 105.658 99.559C106.04 99.559 106.399 99.5017 106.737 99.3872C107.08 99.2726 107.395 99.0785 107.682 98.8048L108.083 99.3394C107.765 99.6195 107.392 99.8327 106.966 99.9791C106.539 100.119 106.094 100.189 105.629 100.189ZM107.405 99.2535V96.7904H108.083V99.3394L107.405 99.2535Z" fill="white"/>
<path opacity="0.3" d="M42.6978 54V47.1368H40.0432V46.4461H46.151V47.1368H43.4964V54H42.6978ZM47.4267 54V46.4461H50.254C50.8943 46.4461 51.4447 46.5504 51.9051 46.7591C52.3655 46.9605 52.718 47.2555 52.9627 47.644C53.2144 48.0252 53.3403 48.4893 53.3403 49.036C53.3403 49.5684 53.2144 50.0288 52.9627 50.4173C52.718 50.7986 52.3655 51.0936 51.9051 51.3022C51.4447 51.5036 50.8943 51.6043 50.254 51.6043H47.8692L48.2253 51.2374V54H47.4267ZM52.585 54L50.6425 51.259H51.5058L53.459 54H52.585ZM48.2253 51.3022L47.8692 50.9245H50.2325C50.9879 50.9245 51.5598 50.759 51.9483 50.4281C52.344 50.0972 52.5418 49.6331 52.5418 49.036C52.5418 48.4317 52.344 47.9641 51.9483 47.6332C51.5598 47.3022 50.9879 47.1368 50.2325 47.1368H47.8692L48.2253 46.7591V51.3022ZM55.9373 49.8238H59.9301V50.5036H55.9373V49.8238ZM56.0237 53.3094H60.5668V54H55.2251V46.4461H60.4049V47.1368H56.0237V53.3094ZM65.487 54.0647C64.523 54.0647 63.764 53.7878 63.21 53.2338C62.6561 52.6799 62.3791 51.8597 62.3791 50.7734V46.4461H63.1777V50.741C63.1777 51.6331 63.3791 52.2914 63.782 52.7158C64.1848 53.1403 64.7532 53.3525 65.487 53.3525C66.228 53.3525 66.7999 53.1403 67.2028 52.7158C67.6057 52.2914 67.8071 51.6331 67.8071 50.741V46.4461H68.5841V50.7734C68.5841 51.8597 68.3071 52.6799 67.7532 53.2338C67.2064 53.7878 66.451 54.0647 65.487 54.0647ZM76.5156 46.4461H77.3033V54H76.5156V46.4461ZM71.789 54H70.9904V46.4461H71.789V54ZM76.5911 50.5144H71.7027V49.813H76.5911V50.5144ZM78.5602 54L82.0134 46.4461H82.8012L86.2544 54H85.4127L82.2401 46.9101H82.5638L79.3912 54H78.5602ZM79.9199 51.982L80.1574 51.3346H84.5494L84.7868 51.982H79.9199ZM87.504 54V46.4461H88.1623L93.3744 53.0072H93.0291V46.4461H93.8169V54H93.1586L87.9572 47.4389H88.3026V54H87.504ZM96.2824 54V46.4461H99.3579C100.164 46.4461 100.869 46.608 101.473 46.9317C102.085 47.2483 102.559 47.6907 102.897 48.2591C103.236 48.8274 103.405 49.4821 103.405 50.2231C103.405 50.9641 103.236 51.6187 102.897 52.1871C102.559 52.7554 102.085 53.2014 101.473 53.5252C100.869 53.8417 100.164 54 99.3579 54H96.2824ZM97.081 53.3094H99.3148C99.9838 53.3094 100.563 53.1799 101.052 52.9209C101.549 52.6547 101.933 52.2914 102.207 51.831C102.48 51.3633 102.617 50.8274 102.617 50.2231C102.617 49.6116 102.48 49.0756 102.207 48.6152C101.933 48.1547 101.549 47.795 101.052 47.536C100.563 47.2699 99.9838 47.1368 99.3148 47.1368H97.081V53.3094Z" fill="white"/>
<defs>
<filter id="filter0_d_1375_240" x="0.824748" y="0.521552" width="143.351" height="147.351" filterUnits="userSpaceOnUse" color-interpolation-filters="sRGB">
<feFlood flood-opacity="0" result="BackgroundImageFix"/>
<feColorMatrix in="SourceAlpha" type="matrix" values="0 0 0 0 0 0 0 0 0 0 0 0 0 0 0 0 0 0 127 0" result="hardAlpha"/>
<feOffset dy="1.6968"/>
<feGaussianBlur stdDeviation="2.58763"/>
<feComposite in2="hardAlpha" operator="out"/>
<feColorMatrix type="matrix" values="0 0 0 0 0 0 0 0 0 0 0 0 0 0 0 0 0 0 0.25 0"/>
<feBlend mode="normal" in2="BackgroundImageFix" result="effect1_dropShadow_1375_240"/>
<feBlend mode="normal" in="SourceGraphic" in2="effect1_dropShadow_1375_240" result="shape"/>
</filter>
<linearGradient id="paint0_linear_1375_240" x1="139" y1="72.5" x2="6" y2="72.5" gradientUnits="userSpaceOnUse">
<stop stop-color="#FEF9E7"/>
<stop offset="1" stop-color="#FEF9E7" stop-opacity="0"/>
</linearGradient>
<linearGradient id="paint1_linear_1375_240" x1="139" y1="72.5" x2="6" y2="72.5" gradientUnits="userSpaceOnUse">
<stop stop-color="white"/>
<stop offset="1" stop-color="white"/>
</linearGradient>
</defs>
</svg>
