<svg width="180" height="58" viewBox="0 0 180 58" fill="none" xmlns="http://www.w3.org/2000/svg">
<path d="M62.9817 26.2186H77.3835C78.9261 26.2186 79.7762 27.0917 79.7508 28.5324C79.7508 29.6116 78.9795 30.4618 77.9257 30.5891C77.4625 30.64 76.9737 30.6654 76.5105 30.6654H49.2467C48.6816 30.6654 48.0885 30.6654 47.5744 30.4593C46.574 30.1029 46.0064 29.0466 46.1871 28.0437C46.3424 27.0408 47.19 26.3204 48.3482 26.2695C49.3256 26.2186 50.303 26.2441 51.2805 26.2441H63.0326L62.9817 26.2186Z" fill="white"/>
<path d="M62.8231 52.5126H79.9765C81.6998 52.5126 82.6517 53.4646 82.5474 54.9562C82.471 55.8318 82.0332 56.4733 81.183 56.7049C80.618 56.8856 79.9994 56.962 79.4089 56.962H45.774C44.9009 56.962 44.0507 56.8322 43.4857 56.0864C42.9435 55.3686 42.8926 54.5719 43.226 53.7472C43.5875 52.8995 44.3333 52.5381 45.2064 52.5126C47.5736 52.4617 49.9383 52.4363 52.3055 52.4363H62.8231V52.5126Z" fill="white"/>
<path d="M62.7695 0.000732422H80.1036C81.132 0.000732422 81.9032 0.359634 82.341 1.28616C82.8807 2.39341 82.4174 3.70429 81.2618 4.08864C80.4651 4.34573 79.5895 4.39664 78.7418 4.42209H57.9867C54.2322 4.42209 50.4777 4.42209 46.7233 4.44755C46.1836 4.44755 45.644 4.44755 45.1044 4.39664C43.6637 4.24391 42.9688 3.47266 43.0197 2.10832C43.0706 0.797443 43.8673 0.0261864 45.308 0.0261864H62.744L62.7695 0.000732422Z" fill="white"/>
<path d="M106.666 30.1155V6.43054C106.666 5.14511 106.007 4.50112 104.686 4.50112H90.2837C88.4561 4.50112 87.3769 3.19024 87.8401 1.64773C88.0972 0.772111 88.6877 0.25794 89.5634 0.102671C90.0012 0.0263085 90.4364 0.0263085 90.8742 0.0263085C102.833 0.0263085 114.791 0.000854492 126.749 0.000854492C127.187 0.000854492 127.622 0.000854492 128.06 0.0772165C129.475 0.25794 130.196 1.13101 130.091 2.5208C130.015 3.70441 129.19 4.45021 127.854 4.45021C122.839 4.47567 117.825 4.52658 112.808 4.52658C111.71 4.52658 111.161 5.0662 111.161 6.14545V54.9306C111.031 56.3204 110.184 57.168 108.949 57.168C107.715 57.168 106.763 56.1906 106.635 54.8542V30.1409L106.661 30.1155H106.666Z" fill="white"/>
<path d="M157.362 8.54631C155.871 12.3262 154.481 15.9 153.094 19.5017C148.489 31.3582 143.887 43.2121 139.31 55.0686C138.977 55.9417 138.539 56.7664 137.562 57.0235C136.714 57.2551 135.915 57.0998 135.299 56.4329C134.655 55.738 134.527 54.9159 134.861 54.0402C135.94 51.2123 137.022 48.3818 138.127 45.5539C143.732 31.152 149.337 16.7501 154.944 2.34826C155.074 2.01481 155.201 1.70427 155.356 1.39628C155.794 0.625022 156.283 -0.0698719 157.311 0.00649013C158.34 0.0828521 159.111 0.571569 159.498 1.549C160.783 4.73839 162.094 7.92778 163.329 11.1146C168.755 25.0532 174.154 38.9918 179.556 52.9305C179.787 53.4955 179.943 54.1395 179.993 54.7555C180.07 55.99 179.479 56.7867 178.451 57.0184C177.267 57.3009 176.315 56.8885 175.829 55.7329C175.211 54.3432 174.696 52.9305 174.157 51.5152C168.679 37.4213 163.227 23.3554 157.749 9.26157C157.673 9.08084 157.594 8.92812 157.39 8.54122H157.365L157.362 8.54631Z" fill="white"/>
<path d="M11.831 28.1959C11.4441 28.5294 11.1107 28.8399 10.7772 29.1733C9.02854 30.9475 7.27985 32.7216 5.5057 34.4703C4.83626 35.1398 4.55372 35.8856 4.55372 36.835C4.55372 42.6207 4.55372 48.3835 4.52827 54.1692V55.1212C4.39845 56.2004 3.49993 57.0251 2.41813 57.1015C1.31343 57.1778 0.386901 56.4855 0.155269 55.3782C0.0534534 54.8895 0 54.3754 0 53.8866V3.19753C0 2.65791 0.025454 2.11828 0.180723 1.60411C0.463263 0.601225 1.33634 0.00814631 2.39268 0.0336003C3.39556 0.0336003 4.16682 0.649587 4.42391 1.70593C4.55118 2.2201 4.55118 2.75972 4.55118 3.30189V27.1676C4.55118 27.7072 4.60208 28.2748 4.65299 29.0181C5.88751 27.7327 6.94131 26.5999 8.0231 25.5207C15.9953 17.523 23.9929 9.5254 31.9906 1.5532C32.4029 1.1663 32.8382 0.781948 33.3015 0.473955C34.3807 -0.22094 35.3073 -0.142032 36.0531 0.654678C36.8752 1.55575 37.005 2.73682 36.1829 3.63789C34.536 5.46294 32.8153 7.23963 31.0641 8.96032C25.9733 14.0537 20.8799 19.119 15.7357 24.1844C15.2215 24.6985 15.2979 25.0065 15.6848 25.5207C22.397 34.6256 29.0837 43.7279 35.7451 52.8328C36.0785 53.2961 36.44 53.7594 36.5927 54.299C36.9516 55.3782 36.4374 56.4855 35.4854 56.9488C34.5335 57.412 33.4287 57.1804 32.7084 56.2284C31.6546 54.8921 30.6517 53.5023 29.6488 52.1405C23.8631 44.3236 18.1003 36.5041 12.3146 28.6872C12.2128 28.5319 12.083 28.4046 11.8768 28.1985H11.8259L11.831 28.1959Z" fill="white"/>
</svg>
