<svg width="48" height="49" viewBox="0 0 48 49" fill="none" xmlns="http://www.w3.org/2000/svg">
<path fill-rule="evenodd" clip-rule="evenodd" d="M23.857 37.5147C31.0439 37.5147 36.8702 31.6885 36.8702 24.5015C36.8702 17.3145 31.0439 11.4883 23.857 11.4883C16.67 11.4883 10.8438 17.3145 10.8438 24.5015C10.8438 31.6885 16.67 37.5147 23.857 37.5147ZM23.857 33.177C28.6482 33.177 32.5324 29.2927 32.5324 24.5015C32.5324 19.7102 28.6482 15.826 23.857 15.826C19.0656 15.826 15.1815 19.7102 15.1815 24.5015C15.1815 29.2927 19.0656 33.177 23.857 33.177Z" fill="white"/>
<path d="M36.87 9.31812C35.6722 9.31812 34.7012 10.2892 34.7012 11.487C34.7012 12.6848 35.6722 13.6559 36.87 13.6559C38.0679 13.6559 39.0389 12.6848 39.0389 11.487C39.0389 10.2892 38.0679 9.31812 36.87 9.31812Z" fill="white"/>
<path fill-rule="evenodd" clip-rule="evenodd" d="M1.41835 7.74792C0 10.5316 0 14.1756 0 21.4637V27.5365C0 34.8246 0 38.4687 1.41835 41.2522C2.66597 43.7009 4.65673 45.6917 7.10534 46.9392C9.88902 48.3577 13.5331 48.3577 20.8211 48.3577H26.894C34.182 48.3577 37.8261 48.3577 40.6097 46.9392C43.0583 45.6917 45.0491 43.7009 46.2966 41.2522C47.7151 38.4687 47.7151 34.8246 47.7151 27.5365V21.4637C47.7151 14.1756 47.7151 10.5316 46.2966 7.74792C45.0491 5.29931 43.0583 3.30855 40.6097 2.06093C37.8261 0.642578 34.182 0.642578 26.894 0.642578H20.8211C13.5331 0.642578 9.88902 0.642578 7.10534 2.06093C4.65673 3.30855 2.66597 5.29931 1.41835 7.74792ZM26.894 4.98031H20.8211C17.1055 4.98031 14.5797 4.9837 12.6273 5.14319C10.7256 5.29857 9.75305 5.5802 9.07463 5.92587C7.44223 6.75763 6.11506 8.08481 5.2833 9.71721C4.93762 10.3956 4.65599 11.3681 4.50062 13.2699C4.34112 15.2222 4.33773 17.7481 4.33773 21.4637V27.5365C4.33773 31.2522 4.34112 33.7779 4.50062 35.7303C4.65599 37.6322 4.93762 38.6047 5.2833 39.2831C6.11506 40.9154 7.44223 42.2425 9.07463 43.0743C9.75305 43.42 10.7256 43.7018 12.6273 43.857C14.5797 44.0165 17.1055 44.0199 20.8211 44.0199H26.894C30.6097 44.0199 33.1353 44.0165 35.0877 43.857C36.9896 43.7018 37.9621 43.42 38.6405 43.0743C40.2728 42.2425 41.6 40.9154 42.4317 39.2831C42.7774 38.6047 43.0592 37.6322 43.2145 35.7303C43.3739 33.7779 43.3773 31.2522 43.3773 27.5365V21.4637C43.3773 17.7481 43.3739 15.2222 43.2145 13.2699C43.0592 11.3681 42.7774 10.3956 42.4317 9.71721C41.6 8.08481 40.2728 6.75763 38.6405 5.92587C37.9621 5.5802 36.9896 5.29857 35.0877 5.14319C33.1353 4.9837 30.6097 4.98031 26.894 4.98031Z" fill="white"/>
</svg>
