<svg width="44" height="44" viewBox="0 0 44 44" fill="none" xmlns="http://www.w3.org/2000/svg">
<path fill-rule="evenodd" clip-rule="evenodd" d="M21.9116 33.6987C28.4804 33.6987 33.8055 28.3736 33.8055 21.8048C33.8055 15.2361 28.4804 9.91101 21.9116 9.91101C15.3429 9.91101 10.0178 15.2361 10.0178 21.8048C10.0178 28.3736 15.3429 33.6987 21.9116 33.6987ZM21.9116 29.734C26.2907 29.734 29.8409 26.1839 29.8409 21.8048C29.8409 17.4256 26.2907 13.8756 21.9116 13.8756C17.5325 13.8756 13.9824 17.4256 13.9824 21.8048C13.9824 26.1839 17.5325 29.734 21.9116 29.734Z" fill="#003049"/>
<path d="M33.8055 7.92883C32.7107 7.92883 31.8232 8.81635 31.8232 9.91114C31.8232 11.0059 32.7107 11.8934 33.8055 11.8934C34.9004 11.8934 35.7878 11.0059 35.7878 9.91114C35.7878 8.81635 34.9004 7.92883 33.8055 7.92883Z" fill="#003049"/>
<path fill-rule="evenodd" clip-rule="evenodd" d="M1.40279 6.49427C0.106445 9.03849 0.106445 12.3691 0.106445 19.0302V24.5807C0.106445 31.2418 0.106445 34.5725 1.40279 37.1166C2.54309 39.3546 4.36261 41.1741 6.60059 42.3144C9.14482 43.6108 12.4754 43.6108 19.1366 43.6108H24.687C31.3481 43.6108 34.6788 43.6108 37.2229 42.3144C39.4609 41.1741 41.2805 39.3546 42.4207 37.1166C43.7171 34.5725 43.7171 31.2418 43.7171 24.5807V19.0302C43.7171 12.3691 43.7171 9.03849 42.4207 6.49427C41.2805 4.25629 39.4609 2.43677 37.2229 1.29647C34.6788 0.00012207 31.3481 0.00012207 24.687 0.00012207H19.1366C12.4754 0.00012207 9.14482 0.00012207 6.60059 1.29647C4.36261 2.43677 2.54309 4.25629 1.40279 6.49427ZM24.687 3.96473H19.1366C15.7406 3.96473 13.432 3.96782 11.6476 4.1136C9.90941 4.25561 9.02055 4.51301 8.40048 4.82895C6.9085 5.58917 5.69549 6.80218 4.93528 8.29416C4.61934 8.91422 4.36194 9.80309 4.21992 11.5413C4.07414 13.3257 4.07105 15.6342 4.07105 19.0302V24.5807C4.07105 27.9768 4.07414 30.2852 4.21992 32.0696C4.36194 33.8079 4.61934 34.6968 4.93528 35.3168C5.69549 36.8087 6.9085 38.0217 8.40048 38.7819C9.02055 39.0979 9.90941 39.3554 11.6476 39.4973C13.432 39.643 15.7406 39.6462 19.1366 39.6462H24.687C28.0831 39.6462 30.3915 39.643 32.1759 39.4973C33.9142 39.3554 34.8031 39.0979 35.4232 38.7819C36.915 38.0217 38.128 36.8087 38.8882 35.3168C39.2042 34.6968 39.4617 33.8079 39.6036 32.0696C39.7493 30.2852 39.7525 27.9768 39.7525 24.5807V19.0302C39.7525 15.6342 39.7493 13.3257 39.6036 11.5413C39.4617 9.80309 39.2042 8.91422 38.8882 8.29416C38.128 6.80218 36.915 5.58917 35.4232 4.82895C34.8031 4.51301 33.9142 4.25561 32.1759 4.1136C30.3915 3.96782 28.0831 3.96473 24.687 3.96473Z" fill="#003049"/>
</svg>
