<svg width="181" height="85" viewBox="0 0 181 85" fill="none" xmlns="http://www.w3.org/2000/svg">
<path d="M63.0179 26.3633H77.4419C78.9868 26.3633 79.8383 27.2385 79.8128 28.6828C79.8128 29.7647 79.0404 30.6169 77.9849 30.7445C77.521 30.7956 77.0315 30.8211 76.5675 30.8211H49.2617C48.6958 30.8211 48.1018 30.8211 47.5868 30.6144C46.5849 30.2572 46.0164 29.1982 46.1974 28.1928C46.3529 27.1875 47.2019 26.4653 48.3618 26.4143C49.3407 26.3633 50.3197 26.3888 51.2986 26.3888H63.0688L63.0179 26.3633Z" fill="white"/>
<path d="M62.9185 52.725H80.0984C81.8243 52.725 82.7778 53.6793 82.6732 55.1746C82.5968 56.0524 82.1583 56.6954 81.3068 56.9276C80.7409 57.1088 80.1214 57.1853 79.5299 57.1853H45.8432C44.9687 57.1853 44.1173 57.0552 43.5513 56.3076C43.0083 55.588 42.9573 54.7893 43.2913 53.9626C43.6533 53.1128 44.4003 52.7505 45.2747 52.725C47.6455 52.674 50.0139 52.6484 52.3847 52.6484H62.9185V52.725Z" fill="white"/>
<path d="M62.8648 0.0800781H80.2257C81.2557 0.0800781 82.0281 0.439866 82.4666 1.36868C83.007 2.47866 82.5431 3.79278 81.3857 4.17809C80.5877 4.43581 79.7108 4.48684 78.8618 4.51236H58.0747C54.3144 4.51236 50.5542 4.51236 46.7939 4.53787C46.2535 4.53787 45.713 4.53787 45.1725 4.48684C43.7296 4.33374 43.0337 3.56058 43.0846 2.19287C43.1356 0.878756 43.9336 0.105595 45.3765 0.105595H62.8393L62.8648 0.0800781Z" fill="white"/>
<path d="M106.827 30.2691V6.52564C106.827 5.23704 106.167 4.59146 104.844 4.59146H90.42C88.5895 4.59146 87.5086 3.27734 87.9726 1.73102C88.2301 0.853239 88.8215 0.337798 89.6985 0.182146C90.137 0.105595 90.5729 0.105595 91.0114 0.105595C102.988 0.105595 114.965 0.0800781 126.942 0.0800781C127.38 0.0800781 127.816 0.0800781 128.254 0.156629C129.672 0.337798 130.393 1.21303 130.289 2.60625C130.212 3.79278 129.386 4.54043 128.048 4.54043C123.026 4.56594 118.004 4.61698 112.979 4.61698C111.879 4.61698 111.33 5.15793 111.33 6.23985V55.1455C111.199 56.5387 110.351 57.3884 109.114 57.3884C107.878 57.3884 106.924 56.4086 106.797 55.0689V30.2946L106.822 30.2691H106.827Z" fill="white"/>
<path d="M157.601 8.64676C156.108 12.436 154.716 16.0186 153.326 19.6292C148.715 31.515 144.105 43.3982 139.522 55.2839C139.188 56.1592 138.749 56.9859 137.77 57.2436C136.921 57.4758 136.121 57.3202 135.504 56.6516C134.859 55.955 134.731 55.1308 135.065 54.253C136.146 51.4181 137.23 48.5807 138.336 45.7457C143.95 31.3083 149.563 16.8708 155.18 2.4334C155.31 2.09913 155.437 1.78782 155.593 1.47907C156.031 0.70591 156.521 0.00929946 157.55 0.0858501C158.58 0.162401 159.353 0.652324 159.74 1.63217C161.028 4.82943 162.341 8.0267 163.577 11.2214C169.012 25.1944 174.419 39.1675 179.829 53.1405C180.061 53.707 180.216 54.3526 180.267 54.9701C180.344 56.2076 179.753 57.0063 178.723 57.2385C177.537 57.5218 176.584 57.1084 176.097 55.9499C175.477 54.5567 174.962 53.1405 174.422 51.7218C168.936 37.5931 163.475 23.4925 157.989 9.36378C157.912 9.18261 157.833 9.02951 157.629 8.64165H157.604L157.601 8.64676Z" fill="white"/>
<path d="M11.8493 28.3449C11.4618 28.6792 11.1278 28.9905 10.7938 29.3247C9.04245 31.1033 7.29106 32.8818 5.51419 34.6348C4.84371 35.3059 4.56074 36.0535 4.56074 37.0053C4.56074 42.8053 4.56074 48.5823 4.53525 54.3823V55.3366C4.40523 56.4185 3.50532 57.2453 2.42186 57.3218C1.31545 57.3984 0.387497 56.7043 0.155509 55.5943C0.0535358 55.1044 0 54.589 0 54.0991V3.28477C0 2.74382 0.0254932 2.20286 0.181002 1.68742C0.463977 0.682053 1.33839 0.0875103 2.39636 0.113027C3.4008 0.113027 4.17324 0.730535 4.43072 1.78948C4.55819 2.30493 4.55819 2.84588 4.55819 3.38939V27.314C4.55819 27.855 4.60918 28.424 4.66016 29.1691C5.89659 27.8805 6.952 26.745 8.03547 25.6631C16.0199 17.6457 24.0299 9.62826 32.0399 1.63638C32.4529 1.24853 32.8888 0.863223 33.3528 0.554469C34.4337 -0.142141 35.3617 -0.0630392 36.1086 0.735639C36.932 1.63894 37.0621 2.82292 36.2386 3.72621C34.5892 5.55577 32.8659 7.33685 31.1119 9.06179C26.0133 14.1677 20.9121 19.2456 15.7599 24.3234C15.245 24.8389 15.3214 25.1476 15.7089 25.6631C22.4315 34.7904 29.1286 43.9153 35.8001 53.0427C36.1341 53.5071 36.4961 53.9715 36.6491 54.5124C37.0085 55.5943 36.4936 56.7043 35.5401 57.1687C34.5867 57.6331 33.4803 57.4009 32.7588 56.4466C31.7034 55.107 30.699 53.7137 29.6945 52.3486C23.8999 44.5124 18.1282 36.6736 12.3336 28.8374C12.2317 28.6817 12.1016 28.5541 11.8951 28.3474H11.8442L11.8493 28.3449Z" fill="white"/>
<path d="M43.7558 84V67.0785H50.0892C51.5235 67.0785 52.7564 67.3122 53.7878 67.7796C54.8192 68.2308 55.6089 68.8916 56.1568 69.7618C56.7208 70.6159 57.0029 71.6554 57.0029 72.8802C57.0029 74.0727 56.7208 75.1041 56.1568 75.9744C55.6089 76.8285 54.8192 77.4893 53.7878 77.9566C52.7564 78.424 51.5235 78.6577 50.0892 78.6577H44.7469L45.5446 77.8116V84H43.7558ZM45.5446 77.9566L44.7469 77.0864H50.0409C51.733 77.0864 53.0142 76.7238 53.8845 75.9986C54.7708 75.2572 55.214 74.2178 55.214 72.8802C55.214 71.5265 54.7708 70.4789 53.8845 69.7376C53.0142 68.9963 51.733 68.6256 50.0409 68.6256H44.7469L45.5446 67.7796V77.9566ZM60.8708 84V67.0785H67.2043C68.6386 67.0785 69.8714 67.3122 70.9028 67.7796C71.9342 68.2308 72.7239 68.8916 73.2718 69.7618C73.8359 70.6159 74.1179 71.6554 74.1179 72.8802C74.1179 74.0727 73.8359 75.1041 73.2718 75.9744C72.7239 76.8285 71.9342 77.4893 70.9028 77.9566C69.8714 78.4079 68.6386 78.6335 67.2043 78.6335H61.8619L62.6597 77.8116V84H60.8708ZM72.4258 84L68.0745 77.8599H70.0084L74.3838 84H72.4258ZM62.6597 77.9566L61.8619 77.1105H67.1559C68.8481 77.1105 70.1293 76.7399 70.9995 75.9986C71.8859 75.2572 72.3291 74.2178 72.3291 72.8802C72.3291 71.5265 71.8859 70.4789 70.9995 69.7376C70.1293 68.9963 68.8481 68.6256 67.1559 68.6256H61.8619L62.6597 67.7796V77.9566ZM85.7371 84.145C84.4639 84.145 83.2794 83.9355 82.1836 83.5165C81.1038 83.0814 80.161 82.4771 79.3553 81.7035C78.5656 80.9138 77.9451 80.0033 77.4939 78.9719C77.0588 77.9244 76.8412 76.7802 76.8412 75.5393C76.8412 74.2984 77.0588 73.1622 77.4939 72.1308C77.9451 71.0833 78.5656 70.1727 79.3553 69.3992C80.161 68.6095 81.1038 68.0052 82.1836 67.5862C83.2633 67.1511 84.4478 66.9335 85.7371 66.9335C87.0102 66.9335 88.1866 67.1511 89.2664 67.5862C90.3461 68.0052 91.2809 68.6015 92.0705 69.375C92.8763 70.1486 93.4968 71.0591 93.9319 72.1066C94.3831 73.1541 94.6087 74.2984 94.6087 75.5393C94.6087 76.7802 94.3831 77.9244 93.9319 78.9719C93.4968 80.0194 92.8763 80.93 92.0705 81.7035C91.2809 82.4771 90.3461 83.0814 89.2664 83.5165C88.1866 83.9355 87.0102 84.145 85.7371 84.145ZM85.7371 82.5496C86.7523 82.5496 87.6871 82.3804 88.5412 82.0419C89.4114 81.6874 90.1608 81.1959 90.7893 80.5674C91.434 79.9227 91.9335 79.1814 92.2881 78.3434C92.6426 77.4893 92.8199 76.5546 92.8199 75.5393C92.8199 74.524 92.6426 73.5973 92.2881 72.7593C91.9335 71.9052 91.434 71.1639 90.7893 70.5353C90.1608 69.8907 89.4114 69.3992 88.5412 69.0608C87.6871 68.7062 86.7523 68.5289 85.7371 68.5289C84.7218 68.5289 83.779 68.7062 82.9088 69.0608C82.0385 69.3992 81.2811 69.8907 80.6364 70.5353C80.0079 71.1639 79.5084 71.9052 79.1377 72.7593C78.7831 73.5973 78.6059 74.524 78.6059 75.5393C78.6059 76.5384 78.7831 77.4651 79.1377 78.3192C79.5084 79.1734 80.0079 79.9227 80.6364 80.5674C81.2811 81.1959 82.0385 81.6874 82.9088 82.0419C83.779 82.3804 84.7218 82.5496 85.7371 82.5496ZM98.6183 84V67.0785H100.093L107.828 80.2773H107.055L114.718 67.0785H116.192V84H114.476V69.7618H114.887L107.828 81.8486H106.982L99.8754 69.7618H100.335V84H98.6183ZM129.103 84.145C127.83 84.145 126.645 83.9355 125.55 83.5165C124.47 83.0814 123.527 82.4771 122.721 81.7035C121.932 80.9138 121.311 80.0033 120.86 78.9719C120.425 77.9244 120.207 76.7802 120.207 75.5393C120.207 74.2984 120.425 73.1622 120.86 72.1308C121.311 71.0833 121.932 70.1727 122.721 69.3992C123.527 68.6095 124.47 68.0052 125.55 67.5862C126.629 67.1511 127.814 66.9335 129.103 66.9335C130.376 66.9335 131.553 67.1511 132.632 67.5862C133.712 68.0052 134.647 68.6015 135.436 69.375C136.242 70.1486 136.863 71.0591 137.298 72.1066C137.749 73.1541 137.975 74.2984 137.975 75.5393C137.975 76.7802 137.749 77.9244 137.298 78.9719C136.863 80.0194 136.242 80.93 135.436 81.7035C134.647 82.4771 133.712 83.0814 132.632 83.5165C131.553 83.9355 130.376 84.145 129.103 84.145ZM129.103 82.5496C130.118 82.5496 131.053 82.3804 131.907 82.0419C132.777 81.6874 133.527 81.1959 134.155 80.5674C134.8 79.9227 135.3 79.1814 135.654 78.3434C136.009 77.4893 136.186 76.5546 136.186 75.5393C136.186 74.524 136.009 73.5973 135.654 72.7593C135.3 71.9052 134.8 71.1639 134.155 70.5353C133.527 69.8907 132.777 69.3992 131.907 69.0608C131.053 68.7062 130.118 68.5289 129.103 68.5289C128.088 68.5289 127.145 68.7062 126.275 69.0608C125.404 69.3992 124.647 69.8907 124.002 70.5353C123.374 71.1639 122.874 71.9052 122.504 72.7593C122.149 73.5973 121.972 74.524 121.972 75.5393C121.972 76.5384 122.149 77.4651 122.504 78.3192C122.874 79.1734 123.374 79.9227 124.002 80.5674C124.647 81.1959 125.404 81.6874 126.275 82.0419C127.145 82.3804 128.088 82.5496 129.103 82.5496Z" fill="white"/>
</svg>
