<svg width="145" height="148" viewBox="0 0 145 148" fill="none" xmlns="http://www.w3.org/2000/svg">
<g filter="url(#filter0_d_1375_254)">
<rect x="6" y="4" width="133" height="137" rx="14.847" fill="url(#paint0_linear_1375_254)" fill-opacity="0.1" shape-rendering="crispEdges"/>
<rect x="6.2121" y="4.2121" width="132.576" height="136.576" rx="14.6349" stroke="url(#paint1_linear_1375_254)" stroke-width="0.424201" shape-rendering="crispEdges"/>
</g>
<path d="M61.8775 75.4121H67.6198C68.2348 75.4121 68.5738 75.7578 68.5636 76.3283C68.5636 76.7556 68.2561 77.0923 67.836 77.1427C67.6513 77.1628 67.4564 77.1729 67.2717 77.1729H56.4012C56.1758 77.1729 55.9394 77.1729 55.7344 77.0913C55.3355 76.9502 55.1092 76.5319 55.1813 76.1348C55.2432 75.7377 55.5811 75.4524 56.0429 75.4323C56.4326 75.4121 56.8223 75.4222 57.2121 75.4222H61.8978L61.8775 75.4121Z" fill="white"/>
<path d="M61.8384 85.8252H68.6777C69.3648 85.8252 69.7444 86.2021 69.7028 86.7927C69.6723 87.1395 69.4978 87.3934 69.1588 87.4852C68.9335 87.5567 68.6869 87.587 68.4514 87.587H55.0406C54.6925 87.587 54.3535 87.5356 54.1282 87.2402C53.9121 86.956 53.8918 86.6405 54.0247 86.314C54.1688 85.9784 54.4662 85.8352 54.8143 85.8252C55.7582 85.805 56.701 85.7949 57.6448 85.7949H61.8384V85.8252Z" fill="white"/>
<path d="M61.817 65.0303H68.7284C69.1384 65.0303 69.446 65.1724 69.6205 65.5393C69.8357 65.9777 69.651 66.4968 69.1902 66.649C68.8725 66.7508 68.5234 66.7709 68.1855 66.781H59.91C58.4131 66.781 56.9161 66.781 55.4191 66.7911C55.204 66.7911 54.9888 66.7911 54.7736 66.7709C54.1992 66.7104 53.9221 66.405 53.9424 65.8648C53.9627 65.3457 54.2804 65.0404 54.8548 65.0404H61.8069L61.817 65.0303Z" fill="white"/>
<path d="M79.3204 76.9557V67.5772C79.3204 67.0682 79.0575 66.8132 78.5308 66.8132H72.7885C72.0598 66.8132 71.6295 66.2941 71.8142 65.6834C71.9167 65.3366 72.1522 65.133 72.5013 65.0716C72.6759 65.0413 72.8494 65.0413 73.024 65.0413C77.792 65.0413 82.5599 65.0312 87.3279 65.0312C87.5025 65.0312 87.676 65.0312 87.8506 65.0615C88.4148 65.133 88.7021 65.4788 88.6605 66.0291C88.63 66.4977 88.3012 66.7931 87.7684 66.7931C85.769 66.8031 83.7697 66.8233 81.7693 66.8233C81.3316 66.8233 81.1127 67.037 81.1127 67.4643V86.7817C81.0609 87.332 80.723 87.6676 80.2307 87.6676C79.7385 87.6676 79.359 87.2806 79.3082 86.7515V76.9658L79.3184 76.9557H79.3204Z" fill="white"/>
<path d="M99.535 68.415C98.9403 69.9118 98.3861 71.3268 97.833 72.753C95.9971 77.4478 94.1621 82.1416 92.3374 86.8364C92.2044 87.1821 92.0299 87.5087 91.6401 87.6104C91.3022 87.7022 90.9835 87.6407 90.7379 87.3766C90.4811 87.1015 90.4304 86.7759 90.5633 86.4292C90.9936 85.3094 91.425 84.1886 91.8654 83.0689C94.1002 77.3662 96.335 71.6635 98.5708 65.9608C98.6226 65.8288 98.6733 65.7058 98.7353 65.5838C98.9098 65.2784 99.1047 65.0033 99.5147 65.0335C99.9247 65.0638 100.232 65.2573 100.386 65.6443C100.899 66.9072 101.422 68.1701 101.914 69.432C104.078 74.9512 106.23 80.4705 108.384 85.9897C108.476 86.2135 108.538 86.4685 108.558 86.7124C108.589 87.2012 108.353 87.5167 107.943 87.6084C107.471 87.7203 107.092 87.557 106.898 87.0994C106.651 86.5491 106.446 85.9897 106.231 85.4294C104.047 79.8486 101.873 74.279 99.6893 68.6982C99.6588 68.6267 99.6273 68.5662 99.5462 68.413H99.536L99.535 68.415Z" fill="white"/>
<path d="M41.5043 76.1958C41.3501 76.3278 41.2171 76.4508 41.0842 76.5828C40.3869 77.2853 39.6897 77.9878 38.9823 78.6802C38.7154 78.9453 38.6028 79.2406 38.6028 79.6166C38.6028 81.9075 38.6028 84.1894 38.5926 86.4804V86.8573C38.5408 87.2847 38.1826 87.6112 37.7513 87.6415C37.3108 87.6717 36.9414 87.3975 36.849 86.9591C36.8084 86.7656 36.7871 86.562 36.7871 86.3685V66.2972C36.7871 66.0835 36.7973 65.8698 36.8592 65.6663C36.9718 65.2691 37.3199 65.0343 37.7411 65.0444C38.141 65.0444 38.4485 65.2883 38.551 65.7066C38.6017 65.9102 38.6017 66.1238 38.6017 66.3385V75.7886C38.6017 76.0022 38.622 76.227 38.6423 76.5213C39.1346 76.0123 39.5547 75.5638 39.9861 75.1365C43.1647 71.9696 46.3535 68.8028 49.5423 65.6461C49.7067 65.4929 49.8803 65.3407 50.065 65.2187C50.4953 64.9436 50.8647 64.9748 51.1621 65.2903C51.4899 65.6471 51.5416 66.1148 51.2138 66.4716C50.5572 67.1942 49.8711 67.8977 49.1729 68.5791C47.1431 70.5959 45.1123 72.6016 43.0612 74.6073C42.8562 74.8109 42.8866 74.9329 43.0409 75.1365C45.7172 78.7417 48.3833 82.346 51.0393 85.9512C51.1722 86.1346 51.3163 86.3181 51.3772 86.5318C51.5203 86.9591 51.3153 87.3975 50.9357 87.581C50.5562 87.7644 50.1157 87.6727 49.8285 87.2957C49.4083 86.7666 49.0085 86.2163 48.6086 85.6771C46.3017 82.5818 44.004 79.4855 41.6972 76.3903C41.6566 76.3288 41.6048 76.2784 41.5226 76.1968H41.5023L41.5043 76.1958Z" fill="white"/>
<path d="M63.4203 100.189C62.9175 100.189 62.4529 100.106 62.0265 99.9409C61.6 99.7691 61.2309 99.5304 60.919 99.2249C60.6071 98.9194 60.3621 98.5598 60.1839 98.1461C60.0121 97.7324 59.9261 97.2805 59.9261 96.7904C59.9261 96.3003 60.0121 95.8484 60.1839 95.4347C60.3621 95.021 60.6071 94.6614 60.919 94.3559C61.2372 94.0504 61.6096 93.8149 62.036 93.6494C62.4624 93.4776 62.9271 93.3917 63.4299 93.3917C63.9136 93.3917 64.3687 93.4744 64.7951 93.6399C65.2215 93.799 65.5811 94.0409 65.8739 94.3655L65.4252 94.8142C65.1515 94.5341 64.8492 94.3336 64.5182 94.2127C64.1873 94.0854 63.8308 94.0218 63.449 94.0218C63.048 94.0218 62.6757 94.0918 62.332 94.2318C61.9883 94.3655 61.6891 94.5596 61.4346 94.8142C61.18 95.0624 60.9795 95.3552 60.8331 95.6925C60.6931 96.0235 60.6231 96.3894 60.6231 96.7904C60.6231 97.1914 60.6931 97.5605 60.8331 97.8978C60.9795 98.2288 61.18 98.5216 61.4346 98.7762C61.6891 99.0244 61.9883 99.2185 62.332 99.3585C62.6757 99.4922 63.048 99.559 63.449 99.559C63.8308 99.559 64.1873 99.4954 64.5182 99.3681C64.8492 99.2408 65.1515 99.0371 65.4252 98.7571L65.8739 99.2058C65.5811 99.5304 65.2215 99.7754 64.7951 99.9409C64.3687 100.106 63.9104 100.189 63.4203 100.189ZM70.1615 100.189C69.6587 100.189 69.1909 100.106 68.7581 99.9409C68.3316 99.7691 67.9593 99.5304 67.6411 99.2249C67.3292 98.913 67.0842 98.5534 66.9059 98.1461C66.7341 97.7324 66.6482 97.2805 66.6482 96.7904C66.6482 96.3003 66.7341 95.8516 66.9059 95.4443C67.0842 95.0306 67.3292 94.671 67.6411 94.3655C67.9593 94.0536 68.3316 93.8149 68.7581 93.6494C69.1845 93.4776 69.6523 93.3917 70.1615 93.3917C70.6643 93.3917 71.1289 93.4776 71.5553 93.6494C71.9818 93.8149 72.3509 94.0504 72.6628 94.3559C72.981 94.6614 73.226 95.021 73.3979 95.4347C73.5761 95.8484 73.6652 96.3003 73.6652 96.7904C73.6652 97.2805 73.5761 97.7324 73.3979 98.1461C73.226 98.5598 72.981 98.9194 72.6628 99.2249C72.3509 99.5304 71.9818 99.7691 71.5553 99.9409C71.1289 100.106 70.6643 100.189 70.1615 100.189ZM70.1615 99.559C70.5624 99.559 70.9316 99.4922 71.2689 99.3585C71.6126 99.2185 71.9086 99.0244 72.1568 98.7762C72.4114 98.5216 72.6087 98.2288 72.7487 97.8978C72.8887 97.5605 72.9587 97.1914 72.9587 96.7904C72.9587 96.3894 72.8887 96.0235 72.7487 95.6925C72.6087 95.3552 72.4114 95.0624 72.1568 94.8142C71.9086 94.5596 71.6126 94.3655 71.2689 94.2318C70.9316 94.0918 70.5624 94.0218 70.1615 94.0218C69.7605 94.0218 69.3882 94.0918 69.0445 94.2318C68.7008 94.3655 68.4016 94.5596 68.1471 94.8142C67.8988 95.0624 67.7015 95.3552 67.5551 95.6925C67.4151 96.0235 67.3451 96.3894 67.3451 96.7904C67.3451 97.185 67.4151 97.551 67.5551 97.8883C67.7015 98.2256 67.8988 98.5216 68.1471 98.7762C68.4016 99.0244 68.7008 99.2185 69.0445 99.3585C69.3882 99.4922 69.7605 99.559 70.1615 99.559ZM75.2487 100.132V93.4489H75.9552V100.132H75.2487ZM78.1296 100.132V93.4489H78.712L83.3232 99.2535H83.0177V93.4489H83.7146V100.132H83.1322L78.5306 94.3273H78.8361V100.132H78.1296Z" fill="white"/>
<path opacity="0.3" d="M34.2302 54V46.4461H37.4892C38.3309 46.4461 38.9819 46.6152 39.4424 46.9533C39.91 47.2914 40.1438 47.7699 40.1438 48.3886C40.1438 48.7986 40.0467 49.1439 39.8524 49.4245C39.6654 49.7051 39.4064 49.9173 39.0755 50.0612C38.7517 50.2051 38.3956 50.277 38.0071 50.277L38.1906 50.018C38.6726 50.018 39.0863 50.0936 39.4316 50.2446C39.7841 50.3885 40.0575 50.608 40.2517 50.9029C40.446 51.1907 40.5431 51.5504 40.5431 51.982C40.5431 52.6223 40.3057 53.1187 39.8309 53.4712C39.3632 53.8237 38.6546 54 37.705 54H34.2302ZM35.0288 53.3417H37.6942C38.3561 53.3417 38.8632 53.2302 39.2158 53.0072C39.5683 52.777 39.7445 52.4137 39.7445 51.9173C39.7445 51.4281 39.5683 51.072 39.2158 50.849C38.8632 50.6187 38.3561 50.5036 37.6942 50.5036H34.9424V49.8454H37.4352C38.0395 49.8454 38.5071 49.7303 38.8381 49.5C39.1762 49.2698 39.3453 48.9281 39.3453 48.4749C39.3453 48.0145 39.1762 47.6727 38.8381 47.4497C38.5071 47.2195 38.0395 47.1044 37.4352 47.1044H35.0288V53.3417ZM42.3658 54V46.4461H43.1643V53.3094H47.3945V54H42.3658ZM51.875 54.0647C51.3067 54.0647 50.7779 53.9712 50.2887 53.7842C49.8067 53.5899 49.3858 53.3202 49.0261 52.9748C48.6736 52.6223 48.3966 52.2158 48.1952 51.7554C48.0009 51.2878 47.9038 50.777 47.9038 50.2231C47.9038 49.6691 48.0009 49.1619 48.1952 48.7015C48.3966 48.2339 48.6736 47.8274 49.0261 47.4821C49.3858 47.1296 49.8067 46.8598 50.2887 46.6727C50.7707 46.4785 51.2995 46.3814 51.875 46.3814C52.4433 46.3814 52.9685 46.4785 53.4505 46.6727C53.9325 46.8598 54.3498 47.126 54.7023 47.4713C55.062 47.8166 55.339 48.2231 55.5332 48.6907C55.7347 49.1583 55.8354 49.6691 55.8354 50.2231C55.8354 50.777 55.7347 51.2878 55.5332 51.7554C55.339 52.223 55.062 52.6295 54.7023 52.9748C54.3498 53.3202 53.9325 53.5899 53.4505 53.7842C52.9685 53.9712 52.4433 54.0647 51.875 54.0647ZM51.875 53.3525C52.3282 53.3525 52.7455 53.277 53.1268 53.1259C53.5153 52.9676 53.8498 52.7482 54.1304 52.4676C54.4181 52.1799 54.6411 51.8489 54.7994 51.4748C54.9577 51.0936 55.0368 50.6763 55.0368 50.2231C55.0368 49.7698 54.9577 49.3562 54.7994 48.9821C54.6411 48.6008 54.4181 48.2698 54.1304 47.9893C53.8498 47.7015 53.5153 47.4821 53.1268 47.331C52.7455 47.1727 52.3282 47.0936 51.875 47.0936C51.4218 47.0936 51.0009 47.1727 50.6124 47.331C50.2239 47.4821 49.8858 47.7015 49.598 47.9893C49.3175 48.2698 49.0944 48.6008 48.929 48.9821C48.7707 49.3562 48.6916 49.7698 48.6916 50.2231C48.6916 50.6691 48.7707 51.0828 48.929 51.4641C49.0944 51.8453 49.3175 52.1799 49.598 52.4676C49.8858 52.7482 50.2239 52.9676 50.6124 53.1259C51.0009 53.277 51.4218 53.3525 51.875 53.3525ZM60.9058 54.0647C60.3375 54.0647 59.8123 53.9712 59.3303 53.7842C58.8483 53.5899 58.431 53.3202 58.0785 52.9748C57.726 52.6295 57.449 52.223 57.2476 51.7554C57.0534 51.2878 56.9562 50.777 56.9562 50.2231C56.9562 49.6691 57.0534 49.1583 57.2476 48.6907C57.449 48.2231 57.726 47.8166 58.0785 47.4713C58.4382 47.126 58.8591 46.8598 59.3411 46.6727C59.8231 46.4785 60.3483 46.3814 60.9166 46.3814C61.4634 46.3814 61.9778 46.4749 62.4598 46.662C62.9418 46.8418 63.3483 47.1152 63.6792 47.4821L63.172 47.9893C62.8626 47.6727 62.5209 47.4461 62.1468 47.3094C61.7727 47.1655 61.3699 47.0936 60.9382 47.0936C60.485 47.0936 60.0641 47.1727 59.6756 47.331C59.2871 47.4821 58.949 47.7015 58.6613 47.9893C58.3735 48.2698 58.1469 48.6008 57.9814 48.9821C57.8231 49.3562 57.744 49.7698 57.744 50.2231C57.744 50.6763 57.8231 51.0936 57.9814 51.4748C58.1469 51.8489 58.3735 52.1799 58.6613 52.4676C58.949 52.7482 59.2871 52.9676 59.6756 53.1259C60.0641 53.277 60.485 53.3525 60.9382 53.3525C61.3699 53.3525 61.7727 53.2806 62.1468 53.1367C62.5209 52.9928 62.8626 52.7626 63.172 52.4461L63.6792 52.9532C63.3483 53.3202 62.9418 53.5971 62.4598 53.7842C61.9778 53.9712 61.4598 54.0647 60.9058 54.0647ZM66.0721 52.1223L66.0398 51.1511L70.6153 46.4461H71.5325L68.198 49.9425L67.7448 50.4281L66.0721 52.1223ZM65.3815 54V46.4461H66.1801V54H65.3815ZM70.8095 54L67.5505 50.2446L68.0901 49.6619L71.7591 54H70.8095ZM76.0599 54.0647C75.4916 54.0647 74.9664 53.9712 74.4844 53.7842C74.0024 53.5899 73.5852 53.3202 73.2326 52.9748C72.8801 52.6295 72.6032 52.223 72.4017 51.7554C72.2075 51.2878 72.1104 50.777 72.1104 50.2231C72.1104 49.6691 72.2075 49.1583 72.4017 48.6907C72.6032 48.2231 72.8801 47.8166 73.2326 47.4713C73.5923 47.126 74.0132 46.8598 74.4952 46.6727C74.9772 46.4785 75.5024 46.3814 76.0707 46.3814C76.6175 46.3814 77.1319 46.4749 77.6139 46.662C78.0959 46.8418 78.5024 47.1152 78.8333 47.4821L78.3261 47.9893C78.0168 47.6727 77.675 47.4461 77.3009 47.3094C76.9268 47.1655 76.524 47.0936 76.0923 47.0936C75.6391 47.0936 75.2182 47.1727 74.8297 47.331C74.4413 47.4821 74.1031 47.7015 73.8154 47.9893C73.5276 48.2698 73.301 48.6008 73.1355 48.9821C72.9772 49.3562 72.8981 49.7698 72.8981 50.2231C72.8981 50.6763 72.9772 51.0936 73.1355 51.4748C73.301 51.8489 73.5276 52.1799 73.8154 52.4676C74.1031 52.7482 74.4413 52.9676 74.8297 53.1259C75.2182 53.277 75.6391 53.3525 76.0923 53.3525C76.524 53.3525 76.9268 53.2806 77.3009 53.1367C77.675 52.9928 78.0168 52.7626 78.3261 52.4461L78.8333 52.9532C78.5024 53.3202 78.0959 53.5971 77.6139 53.7842C77.1319 53.9712 76.6139 54.0647 76.0599 54.0647ZM86.0607 46.4461H86.8485V54H86.0607V46.4461ZM81.3342 54H80.5356V46.4461H81.3342V54ZM86.1363 50.5144H81.2478V49.813H86.1363V50.5144ZM88.1054 54L91.5586 46.4461H92.3464L95.7996 54H94.9579L91.7852 46.9101H92.109L88.9364 54H88.1054ZM89.4651 51.982L89.7025 51.3346H94.0946L94.332 51.982H89.4651ZM97.0492 54V46.4461H97.8477V54H97.0492ZM100.306 54V46.4461H100.964L106.176 53.0072H105.831V46.4461H106.618V54H105.96L100.759 47.4389H101.104V54H100.306Z" fill="white"/>
<defs>
<filter id="filter0_d_1375_254" x="0.824748" y="0.521552" width="143.351" height="147.351" filterUnits="userSpaceOnUse" color-interpolation-filters="sRGB">
<feFlood flood-opacity="0" result="BackgroundImageFix"/>
<feColorMatrix in="SourceAlpha" type="matrix" values="0 0 0 0 0 0 0 0 0 0 0 0 0 0 0 0 0 0 127 0" result="hardAlpha"/>
<feOffset dy="1.6968"/>
<feGaussianBlur stdDeviation="2.58763"/>
<feComposite in2="hardAlpha" operator="out"/>
<feColorMatrix type="matrix" values="0 0 0 0 0 0 0 0 0 0 0 0 0 0 0 0 0 0 0.25 0"/>
<feBlend mode="normal" in2="BackgroundImageFix" result="effect1_dropShadow_1375_254"/>
<feBlend mode="normal" in="SourceGraphic" in2="effect1_dropShadow_1375_254" result="shape"/>
</filter>
<linearGradient id="paint0_linear_1375_254" x1="139" y1="72.5" x2="6" y2="72.5" gradientUnits="userSpaceOnUse">
<stop stop-color="#FEF9E7"/>
<stop offset="1" stop-color="#FEF9E7" stop-opacity="0"/>
</linearGradient>
<linearGradient id="paint1_linear_1375_254" x1="139" y1="72.5" x2="6" y2="72.5" gradientUnits="userSpaceOnUse">
<stop stop-color="white"/>
<stop offset="1" stop-color="white"/>
</linearGradient>
</defs>
</svg>
