<svg width="226" height="206" viewBox="0 0 226 206" fill="none" xmlns="http://www.w3.org/2000/svg">
<path opacity="0.3" d="M3.42 22V0.999999H11.28C13.06 0.999999 14.59 1.29 15.87 1.87C17.15 2.43 18.13 3.25 18.81 4.33C19.51 5.39 19.86 6.68 19.86 8.2C19.86 9.68 19.51 10.96 18.81 12.04C18.13 13.1 17.15 13.92 15.87 14.5C14.59 15.06 13.06 15.34 11.28 15.34H4.65L5.64 14.32V22H3.42ZM17.76 22L12.36 14.38H14.76L20.19 22H17.76ZM5.64 14.5L4.65 13.45H11.22C13.32 13.45 14.91 12.99 15.99 12.07C17.09 11.15 17.64 9.86 17.64 8.2C17.64 6.52 17.09 5.22 15.99 4.3C14.91 3.38 13.32 2.92 11.22 2.92H4.65L5.64 1.87V14.5ZM27.0797 10.39H38.1797V12.28H27.0797V10.39ZM27.3197 20.08H39.9497V22H25.0997V0.999999H39.4997V2.92H27.3197V20.08ZM54.2295 22.18C52.6495 22.18 51.1895 21.92 49.8495 21.4C48.5095 20.86 47.3495 20.11 46.3695 19.15C45.3895 18.19 44.6195 17.06 44.0595 15.76C43.5195 14.46 43.2495 13.04 43.2495 11.5C43.2495 9.96 43.5195 8.54 44.0595 7.24C44.6195 5.94 45.3895 4.81 46.3695 3.85C47.3695 2.89 48.5395 2.15 49.8795 1.63C51.2195 1.09 52.6795 0.819999 54.2595 0.819999C55.7795 0.819999 57.2095 1.08 58.5495 1.6C59.8895 2.1 61.0195 2.86 61.9395 3.88L60.5295 5.29C59.6695 4.41 58.7195 3.78 57.6795 3.4C56.6395 3 55.5195 2.8 54.3195 2.8C53.0595 2.8 51.8895 3.02 50.8095 3.46C49.7295 3.88 48.7895 4.49 47.9895 5.29C47.1895 6.07 46.5595 6.99 46.0995 8.05C45.6595 9.09 45.4395 10.24 45.4395 11.5C45.4395 12.76 45.6595 13.92 46.0995 14.98C46.5595 16.02 47.1895 16.94 47.9895 17.74C48.7895 18.52 49.7295 19.13 50.8095 19.57C51.8895 19.99 53.0595 20.2 54.3195 20.2C55.5195 20.2 56.6395 20 57.6795 19.6C58.7195 19.2 59.6695 18.56 60.5295 17.68L61.9395 19.09C61.0195 20.11 59.8895 20.88 58.5495 21.4C57.2095 21.92 55.7695 22.18 54.2295 22.18ZM66.672 22V0.999999H74.532C76.312 0.999999 77.842 1.29 79.122 1.87C80.402 2.43 81.382 3.25 82.062 4.33C82.762 5.39 83.112 6.68 83.112 8.2C83.112 9.68 82.762 10.96 82.062 12.04C81.382 13.1 80.402 13.92 79.122 14.5C77.842 15.06 76.312 15.34 74.532 15.34H67.902L68.892 14.32V22H66.672ZM81.012 22L75.612 14.38H78.012L83.442 22H81.012ZM68.892 14.5L67.902 13.45H74.472C76.572 13.45 78.162 12.99 79.242 12.07C80.342 11.15 80.892 9.86 80.892 8.2C80.892 6.52 80.342 5.22 79.242 4.3C78.162 3.38 76.572 2.92 74.472 2.92H67.902L68.892 1.87V14.5ZM96.8116 22.18C94.1316 22.18 92.0216 21.41 90.4816 19.87C88.9416 18.33 88.1716 16.05 88.1716 13.03V0.999999H90.3916V12.94C90.3916 15.42 90.9516 17.25 92.0716 18.43C93.1916 19.61 94.7716 20.2 96.8116 20.2C98.8716 20.2 100.462 19.61 101.582 18.43C102.702 17.25 103.262 15.42 103.262 12.94V0.999999H105.422V13.03C105.422 16.05 104.652 18.33 103.112 19.87C101.592 21.41 99.4916 22.18 96.8116 22.18ZM112.111 22V0.999999H114.331V22H112.111ZM125.244 22V2.92H117.864V0.999999H134.844V2.92H127.464V22H125.244ZM138.391 22V0.999999H140.221L149.821 17.38H148.861L158.371 0.999999H160.201V22H158.071V4.33H158.581L149.821 19.33H148.771L139.951 4.33H140.521V22H138.391ZM169.023 10.39H180.123V12.28H169.023V10.39ZM169.263 20.08H181.893V22H167.043V0.999999H181.443V2.92H169.263V20.08ZM187.111 22V0.999999H188.941L203.431 19.24H202.471V0.999999H204.661V22H202.831L188.371 3.76H189.331V22H187.111ZM215.596 22V2.92H208.216V0.999999H225.196V2.92H217.816V22H215.596Z" fill="white"/>
<path d="M82.6608 136.504L98.5436 136.476C100.251 136.476 101.192 137.435 101.164 139.018C101.164 140.204 100.31 141.138 99.1436 141.278C98.6309 141.334 98.0901 141.362 97.5773 141.362H67.4035C66.7781 141.362 66.1217 141.362 65.5526 141.136C64.4455 140.744 63.8173 139.583 64.0173 138.481C64.1892 137.379 65.1273 136.587 66.409 136.532C67.4908 136.476 68.5726 136.504 69.6543 136.504H82.6608Z" fill="white"/>
<path d="M82.5235 165.497H101.508C103.415 165.497 104.469 166.543 104.353 168.182C104.269 169.145 103.784 169.849 102.843 170.104C102.218 170.303 101.533 170.386 100.88 170.386H63.6547C62.6884 170.386 61.7475 170.244 61.1221 169.424C60.5221 168.635 60.4657 167.76 60.8348 166.854C61.2348 165.922 62.0602 165.525 63.0265 165.497C65.6464 165.441 68.2634 165.413 70.8833 165.413L82.5235 165.497Z" fill="white"/>
<path d="M82.436 107.819L101.649 107.791C102.787 107.791 103.64 108.185 104.125 109.204C104.722 110.42 104.209 111.861 102.93 112.283C102.049 112.566 101.08 112.622 100.141 112.65H77.1709C73.0157 112.65 68.8605 112.65 64.7053 112.678C64.108 112.678 63.5108 112.678 62.9136 112.622C61.3191 112.454 60.5501 111.606 60.6064 110.107C60.6627 108.667 61.5445 107.819 63.139 107.819H82.436Z" fill="white"/>
<path d="M131.052 140.884V114.857C131.052 113.444 130.322 112.736 128.86 112.736H112.921C110.898 112.736 109.704 111.296 110.216 109.601C110.501 108.639 111.154 108.074 112.123 107.903C112.608 107.819 113.09 107.819 113.574 107.819C126.809 107.819 140.044 107.791 153.278 107.791C153.763 107.791 154.245 107.791 154.729 107.875C156.295 108.074 157.093 109.033 156.977 110.56C156.893 111.861 155.98 112.68 154.501 112.68C148.951 112.708 143.402 112.764 137.849 112.764C136.634 112.764 136.026 113.357 136.026 114.543V168.154C135.883 169.681 134.945 170.613 133.578 170.613C132.212 170.613 131.159 169.539 131.018 168.07V140.912L131.046 140.884H131.052Z" fill="white"/>
<path d="M187.155 117.182C185.504 121.336 183.966 125.263 182.431 129.221C177.335 142.25 172.242 155.277 167.176 168.306C166.807 169.265 166.323 170.171 165.241 170.454C164.303 170.709 163.418 170.538 162.737 169.805C162.024 169.041 161.883 168.138 162.252 167.176C163.447 164.068 164.644 160.958 165.866 157.85C172.07 142.024 178.273 126.197 184.479 110.371C184.623 110.004 184.764 109.663 184.935 109.325C185.42 108.477 185.961 107.713 187.099 107.797C188.237 107.881 189.091 108.418 189.519 109.492C190.941 112.997 192.392 116.502 193.759 120.004C199.765 135.322 205.74 150.639 211.717 165.956C211.974 166.577 212.146 167.285 212.202 167.962C212.287 169.318 211.633 170.194 210.495 170.448C209.185 170.759 208.131 170.306 207.593 169.036C206.909 167.509 206.34 165.956 205.742 164.401C199.68 148.913 193.646 133.456 187.583 117.968C187.499 117.769 187.412 117.601 187.186 117.176H187.158L187.155 117.182Z" fill="white"/>
<path d="M26.0938 138.775C25.6656 139.141 25.2966 139.483 24.9276 139.849C22.9922 141.799 21.0569 143.748 19.0934 145.67C18.3525 146.406 18.0398 147.225 18.0398 148.269C18.0398 154.627 18.0398 160.959 18.0116 167.317V168.364C17.8679 169.55 16.8735 170.456 15.6762 170.54C14.4536 170.624 13.4282 169.863 13.1718 168.646C13.0592 168.109 13 167.544 13 167.007V111.304C13 110.711 13.0282 110.118 13.2 109.553C13.5127 108.451 14.479 107.799 15.6481 107.827C16.758 107.827 17.6116 108.504 17.8961 109.665C18.037 110.23 18.037 110.823 18.037 111.419V137.645C18.037 138.238 18.0933 138.862 18.1496 139.679C19.5159 138.266 20.6822 137.021 21.8795 135.835C30.7026 127.046 39.5539 118.258 48.4052 109.497C48.8616 109.072 49.3433 108.65 49.856 108.311C51.0505 107.547 52.0759 107.634 52.9013 108.51C53.8112 109.5 53.9549 110.798 53.045 111.788C51.2223 113.794 49.3179 115.746 47.3798 117.637C41.7456 123.234 36.1086 128.8 30.4153 134.367C29.8462 134.932 29.9307 135.27 30.3589 135.835C37.7876 145.841 45.1881 155.843 52.5604 165.849C52.9295 166.358 53.3295 166.867 53.4985 167.46C53.8957 168.646 53.3267 169.863 52.2731 170.372C51.2195 170.881 49.9969 170.626 49.1996 169.58C48.0333 168.112 46.9234 166.585 45.8135 165.088C39.4102 156.498 33.0323 147.905 26.6291 139.315C26.5164 139.144 26.3727 139.004 26.1445 138.778H26.0882L26.0938 138.775Z" fill="white"/>
<path d="M80.0553 205.159C79.0114 205.159 78.0293 204.929 77.1093 204.469C76.2069 204.009 75.4814 203.354 74.9329 202.505L76.0742 201.178C76.5873 201.921 77.18 202.487 77.8524 202.877C78.5248 203.266 79.2679 203.461 80.0818 203.461C82.382 203.461 83.5322 202.098 83.5322 199.373V188.12H76.7377V186.421H85.4696V199.294C85.4696 201.258 85.0096 202.726 84.0895 203.699C83.1871 204.673 81.8424 205.159 80.0553 205.159ZM99.4826 205.159C98.0848 205.159 96.7843 204.929 95.5811 204.469C94.3956 203.991 93.3605 203.328 92.4758 202.479C91.6088 201.612 90.9276 200.612 90.4322 199.479C89.9544 198.329 89.7156 197.073 89.7156 195.711C89.7156 194.348 89.9544 193.101 90.4322 191.968C90.9276 190.818 91.6088 189.819 92.4758 188.969C93.3605 188.102 94.3956 187.439 95.5811 186.979C96.7666 186.501 98.0671 186.262 99.4826 186.262C100.88 186.262 102.172 186.501 103.358 186.979C104.543 187.439 105.569 188.093 106.436 188.943C107.321 189.792 108.002 190.792 108.48 191.942C108.975 193.092 109.223 194.348 109.223 195.711C109.223 197.073 108.975 198.329 108.48 199.479C108.002 200.63 107.321 201.629 106.436 202.479C105.569 203.328 104.543 203.991 103.358 204.469C102.172 204.929 100.88 205.159 99.4826 205.159ZM99.4826 203.408C100.597 203.408 101.624 203.222 102.561 202.85C103.517 202.461 104.34 201.921 105.03 201.231C105.737 200.523 106.286 199.71 106.675 198.789C107.064 197.852 107.259 196.825 107.259 195.711C107.259 194.596 107.064 193.579 106.675 192.658C106.286 191.721 105.737 190.907 105.03 190.217C104.34 189.509 103.517 188.969 102.561 188.598C101.624 188.208 100.597 188.014 99.4826 188.014C98.3679 188.014 97.3328 188.208 96.3773 188.598C95.4219 188.969 94.5902 189.509 93.8825 190.217C93.1924 190.907 92.6439 191.721 92.2369 192.658C91.8477 193.579 91.653 194.596 91.653 195.711C91.653 196.808 91.8477 197.825 92.2369 198.763C92.6439 199.701 93.1924 200.523 93.8825 201.231C94.5902 201.921 95.4219 202.461 96.3773 202.85C97.3328 203.222 98.3679 203.408 99.4826 203.408ZM113.625 205V186.421H121.641C123.711 186.421 125.312 186.837 126.445 187.669C127.595 188.5 128.17 189.677 128.17 191.199C128.17 192.207 127.931 193.057 127.453 193.747C126.993 194.437 126.356 194.959 125.542 195.313C124.746 195.666 123.87 195.843 122.915 195.843L123.366 195.206C124.551 195.206 125.569 195.392 126.418 195.764C127.285 196.118 127.957 196.657 128.435 197.383C128.913 198.091 129.152 198.975 129.152 200.037C129.152 201.612 128.568 202.832 127.4 203.699C126.25 204.566 124.507 205 122.172 205H113.625ZM115.589 203.381H122.145C123.773 203.381 125.02 203.107 125.887 202.558C126.754 201.992 127.188 201.098 127.188 199.878C127.188 198.674 126.754 197.799 125.887 197.25C125.02 196.684 123.773 196.401 122.145 196.401H115.377V194.782H121.508C122.994 194.782 124.144 194.499 124.958 193.932C125.79 193.366 126.206 192.526 126.206 191.411C126.206 190.279 125.79 189.438 124.958 188.89C124.144 188.323 122.994 188.04 121.508 188.04H115.589V203.381Z" fill="white"/>
</svg>
