<svg width="180" height="90" viewBox="0 0 180 90" fill="none" xmlns="http://www.w3.org/2000/svg">
<path d="M62.9817 26.2186H77.3835C78.9261 26.2186 79.7762 27.0917 79.7508 28.5324C79.7508 29.6116 78.9795 30.4618 77.9257 30.5891C77.4625 30.64 76.9737 30.6654 76.5105 30.6654H49.2467C48.6816 30.6654 48.0885 30.6654 47.5744 30.4593C46.574 30.1029 46.0064 29.0466 46.1871 28.0437C46.3424 27.0408 47.19 26.3204 48.3482 26.2695C49.3256 26.2186 50.303 26.2441 51.2805 26.2441H63.0326L62.9817 26.2186Z" fill="white"/>
<path d="M62.8231 52.5126H79.9765C81.6998 52.5126 82.6517 53.4646 82.5474 54.9562C82.471 55.8318 82.0332 56.4733 81.183 56.7049C80.618 56.8856 79.9994 56.962 79.4089 56.962H45.774C44.9009 56.962 44.0507 56.8322 43.4857 56.0864C42.9435 55.3686 42.8926 54.5719 43.226 53.7472C43.5875 52.8995 44.3333 52.5381 45.2064 52.5126C47.5736 52.4617 49.9383 52.4363 52.3055 52.4363H62.8231V52.5126Z" fill="white"/>
<path d="M62.7695 0.000732422H80.1036C81.132 0.000732422 81.9032 0.359634 82.341 1.28616C82.8807 2.39341 82.4174 3.70429 81.2618 4.08864C80.4651 4.34573 79.5895 4.39664 78.7418 4.42209H57.9867C54.2322 4.42209 50.4777 4.42209 46.7233 4.44755C46.1836 4.44755 45.644 4.44755 45.1044 4.39664C43.6637 4.24391 42.9688 3.47266 43.0197 2.10832C43.0706 0.797443 43.8673 0.0261864 45.308 0.0261864H62.744L62.7695 0.000732422Z" fill="white"/>
<path d="M106.666 30.1155V6.43054C106.666 5.14511 106.007 4.50112 104.686 4.50112H90.2837C88.4561 4.50112 87.3769 3.19024 87.8401 1.64773C88.0972 0.772111 88.6877 0.25794 89.5634 0.102671C90.0012 0.0263085 90.4364 0.0263085 90.8742 0.0263085C102.833 0.0263085 114.791 0.000854492 126.749 0.000854492C127.187 0.000854492 127.622 0.000854492 128.06 0.0772165C129.475 0.25794 130.196 1.13101 130.091 2.5208C130.015 3.70441 129.19 4.45021 127.854 4.45021C122.839 4.47567 117.825 4.52658 112.808 4.52658C111.71 4.52658 111.161 5.0662 111.161 6.14545V54.9306C111.031 56.3204 110.184 57.168 108.949 57.168C107.715 57.168 106.763 56.1906 106.635 54.8542V30.1409L106.661 30.1155H106.666Z" fill="white"/>
<path d="M157.362 8.54631C155.871 12.3262 154.481 15.9 153.094 19.5017C148.489 31.3582 143.887 43.2121 139.31 55.0686C138.977 55.9417 138.539 56.7664 137.562 57.0235C136.714 57.2551 135.915 57.0998 135.299 56.4329C134.655 55.738 134.527 54.9159 134.861 54.0402C135.94 51.2123 137.022 48.3818 138.127 45.5539C143.732 31.152 149.337 16.7501 154.944 2.34826C155.074 2.01481 155.201 1.70427 155.356 1.39628C155.794 0.625022 156.283 -0.0698719 157.311 0.00649013C158.34 0.0828521 159.111 0.571569 159.498 1.549C160.783 4.73839 162.094 7.92778 163.329 11.1146C168.755 25.0532 174.154 38.9918 179.556 52.9305C179.787 53.4955 179.943 54.1395 179.993 54.7555C180.07 55.99 179.479 56.7867 178.451 57.0184C177.267 57.3009 176.315 56.8885 175.829 55.7329C175.211 54.3432 174.696 52.9305 174.157 51.5152C168.679 37.4213 163.227 23.3554 157.749 9.26157C157.673 9.08084 157.594 8.92812 157.39 8.54122H157.365L157.362 8.54631Z" fill="white"/>
<path d="M11.831 28.1959C11.4441 28.5294 11.1107 28.8399 10.7772 29.1733C9.02854 30.9475 7.27985 32.7216 5.5057 34.4703C4.83626 35.1398 4.55372 35.8856 4.55372 36.835C4.55372 42.6207 4.55372 48.3835 4.52827 54.1692V55.1212C4.39845 56.2004 3.49993 57.0251 2.41813 57.1015C1.31343 57.1778 0.386901 56.4855 0.155269 55.3782C0.0534534 54.8895 0 54.3754 0 53.8866V3.19753C0 2.65791 0.025454 2.11828 0.180723 1.60411C0.463263 0.601225 1.33634 0.00814631 2.39268 0.0336003C3.39556 0.0336003 4.16682 0.649587 4.42391 1.70593C4.55118 2.2201 4.55118 2.75972 4.55118 3.30189V27.1676C4.55118 27.7072 4.60208 28.2748 4.65299 29.0181C5.88751 27.7327 6.94131 26.5999 8.0231 25.5207C15.9953 17.523 23.9929 9.5254 31.9906 1.5532C32.4029 1.1663 32.8382 0.781948 33.3015 0.473955C34.3807 -0.22094 35.3073 -0.142032 36.0531 0.654678C36.8752 1.55575 37.005 2.73682 36.1829 3.63789C34.536 5.46294 32.8153 7.23963 31.0641 8.96032C25.9733 14.0537 20.8799 19.119 15.7357 24.1844C15.2215 24.6985 15.2979 25.0065 15.6848 25.5207C22.397 34.6256 29.0837 43.7279 35.7451 52.8328C36.0785 53.2961 36.44 53.7594 36.5927 54.299C36.9516 55.3782 36.4374 56.4855 35.4854 56.9488C34.5335 57.412 33.4287 57.1804 32.7084 56.2284C31.6546 54.8921 30.6517 53.5023 29.6488 52.1405C23.8631 44.3236 18.1003 36.5041 12.3146 28.6872C12.2128 28.5319 12.083 28.4046 11.8768 28.1985H11.8259L11.831 28.1959Z" fill="white"/>
<path d="M0 89.5883V72.8442H6.26651C7.68503 72.8442 8.90606 73.075 9.92684 73.5368C10.9476 73.9818 11.7292 74.6382 12.2716 75.4977C12.8306 76.3432 13.1088 77.3723 13.1088 78.5822C13.1088 79.7921 12.8306 80.7823 12.2716 81.6446C11.7292 82.4901 10.9476 83.1437 9.92684 83.6055C8.90606 84.0505 7.68781 84.2758 6.26651 84.2758H0.981837L1.77176 83.4636V89.5883H0ZM11.4344 89.5883L7.12875 83.5137H9.04235L13.373 89.5883H11.4344ZM1.76897 83.6082L0.979055 82.771H6.21644C7.89085 82.771 9.15917 82.4039 10.0186 81.6696C10.8948 80.9353 11.3342 79.9062 11.3342 78.585C11.3342 77.2638 10.8948 76.2097 10.0186 75.4754C9.15639 74.7411 7.89085 74.374 6.21644 74.374H0.981837L1.77176 73.5368V83.6082H1.76897ZM21.2583 80.329H30.1087V81.8365H21.2583V80.329ZM21.4474 88.0557H31.5189V89.5855H19.6785V72.8442H31.1601V74.374H21.4474V88.0557ZM35.3934 89.5883L43.0478 72.8442H44.7946L52.449 89.5883H50.5827L43.5513 73.8733H44.2689L37.2375 89.5883H35.3962H35.3934ZM38.4057 85.113L38.9314 83.6778H48.6663L49.192 85.113H38.4029H38.4057ZM57.6085 89.5883V72.8442H59.3775V88.0585H68.7536V89.5883H57.6057H57.6085ZM84.3184 80.329H93.1688V81.8365H84.3184V80.329ZM84.5103 88.0557H94.5817V89.5855H82.7413V72.8442H94.2229V74.374H84.5103V88.0557ZM105.749 89.7301C104.506 89.7301 103.31 89.5299 102.161 89.1321C101.029 88.7177 100.153 88.192 99.5299 87.5523L100.222 86.1894C100.812 86.7624 101.602 87.2491 102.589 87.6496C103.593 88.0335 104.648 88.2226 105.746 88.2226C106.845 88.2226 107.652 88.0946 108.305 87.8388C108.976 87.569 109.462 87.2074 109.765 86.7624C110.085 86.3173 110.244 85.8222 110.244 85.2799C110.244 84.6262 110.052 84.1005 109.671 83.7C109.304 83.3023 108.817 82.9908 108.211 82.7683C107.604 82.5291 106.934 82.3232 106.202 82.1452C105.468 81.97 104.734 81.7864 104.002 81.5945C103.268 81.3887 102.592 81.1161 101.969 80.7823C101.363 80.4486 100.868 80.0091 100.487 79.4667C100.12 78.9077 99.936 78.1845 99.936 77.2889C99.936 76.46 100.15 75.7007 100.581 75.0165C101.029 74.3156 101.705 73.7565 102.614 73.3421C103.524 72.9109 104.687 72.6968 106.108 72.6968C107.048 72.6968 107.983 72.8331 108.906 73.1029C109.832 73.3588 110.628 73.7176 111.298 74.1793L110.7 75.5894C109.982 75.111 109.218 74.7606 108.403 74.5381C107.604 74.3156 106.831 74.2043 106.083 74.2043C105.079 74.2043 104.25 74.3406 103.596 74.6104C102.943 74.8802 102.456 75.2473 102.136 75.7118C101.833 76.1568 101.683 76.6686 101.683 77.2416C101.683 77.8952 101.866 78.4209 102.233 78.8214C102.617 79.2192 103.11 79.5307 103.716 79.7532C104.339 79.9757 105.015 80.176 105.749 80.3512C106.483 80.5264 107.209 80.7184 107.927 80.9242C108.661 81.13 109.329 81.4026 109.935 81.7364C110.558 82.0562 111.05 82.4873 111.418 83.0269C111.801 83.5693 111.991 84.2786 111.991 85.1547C111.991 85.9669 111.768 86.7262 111.32 87.4271C110.875 88.1113 110.188 88.6704 109.262 89.1015C108.352 89.5159 107.182 89.7246 105.746 89.7246L105.749 89.7301ZM121.261 89.5883V74.374H115.376V72.8442H128.915V74.374H123.03V89.5883H121.261ZM130.615 89.5883L138.269 72.8442H140.016L147.67 89.5883H145.804L138.773 73.8733H139.49L132.459 89.5883H130.618H130.615ZM133.63 85.113L134.156 83.6778H143.891L144.416 85.113H133.627H133.63ZM155.244 89.5883V74.374H149.359V72.8442H162.899V74.374H157.013V89.5883H155.244ZM169.696 80.329H178.547V81.8365H169.696V80.329ZM169.888 88.0557H179.96V89.5855H168.119V72.8442H179.601V74.374H169.888V88.0557Z" fill="white"/>
</svg>
