<svg width="145" height="149" viewBox="0 0 145 149" fill="none" xmlns="http://www.w3.org/2000/svg">
<g filter="url(#filter0_d_1375_306)">
<rect x="6" y="4" width="133" height="138" rx="14.847" fill="url(#paint0_linear_1375_306)" fill-opacity="0.1" shape-rendering="crispEdges"/>
<rect x="6.2121" y="4.2121" width="132.576" height="137.576" rx="14.6349" stroke="url(#paint1_linear_1375_306)" stroke-width="0.424201" shape-rendering="crispEdges"/>
</g>
<path opacity="0.3" d="M35.2302 54V46.4461H38.0575C38.6978 46.4461 39.2481 46.5504 39.7086 46.7591C40.169 46.9605 40.5215 47.2555 40.7661 47.644C41.0179 48.0252 41.1438 48.4893 41.1438 49.036C41.1438 49.5684 41.0179 50.0288 40.7661 50.4173C40.5215 50.7986 40.169 51.0936 39.7086 51.3022C39.2481 51.5036 38.6978 51.6043 38.0575 51.6043H35.6726L36.0288 51.2374V54H35.2302ZM40.3884 54L38.446 51.259H39.3093L41.2625 54H40.3884ZM36.0288 51.3022L35.6726 50.9245H38.0359C38.7913 50.9245 39.3633 50.759 39.7517 50.4281C40.1474 50.0972 40.3453 49.6331 40.3453 49.036C40.3453 48.4317 40.1474 47.9641 39.7517 47.6332C39.3633 47.3022 38.7913 47.1368 38.0359 47.1368H35.6726L36.0288 46.7591V51.3022ZM43.7408 49.8238H47.7335V50.5036H43.7408V49.8238ZM43.8271 53.3094H48.3702V54H43.0286V46.4461H48.2084V47.1368H43.8271V53.3094ZM49.0387 54L52.4919 46.4461H53.2797L56.7329 54H55.8911L52.7185 46.9101H53.0423L49.8696 54H49.0387ZM50.3984 51.982L50.6358 51.3346H55.0278L55.2653 51.982H50.3984ZM57.9825 54V46.4461H58.781V53.3094H63.0112V54H57.9825ZM67.8736 49.8238H71.8663V50.5036H67.8736V49.8238ZM67.9599 53.3094H72.503V54H67.1613V46.4461H72.3411V47.1368H67.9599V53.3094ZM76.4628 54.0647C75.9017 54.0647 75.3621 53.9748 74.8441 53.795C74.3333 53.6079 73.9377 53.3705 73.6571 53.0827L73.97 52.4676C74.2362 52.7266 74.5923 52.9461 75.0384 53.1259C75.4916 53.2986 75.9664 53.3849 76.4628 53.3849C76.9376 53.3849 77.3225 53.3273 77.6175 53.2122C77.9196 53.0899 78.139 52.9281 78.2757 52.7266C78.4196 52.5252 78.4916 52.3022 78.4916 52.0576C78.4916 51.7626 78.4052 51.5252 78.2326 51.3454C78.0671 51.1655 77.8477 51.0252 77.5743 50.9245C77.3009 50.8166 76.9988 50.7231 76.6678 50.6439C76.3369 50.5648 76.006 50.4821 75.675 50.3957C75.3441 50.3022 75.0384 50.1799 74.7578 50.0288C74.4844 49.8777 74.2614 49.6799 74.0887 49.4353C73.9233 49.1835 73.8405 48.8562 73.8405 48.4533C73.8405 48.0792 73.9377 47.7375 74.1319 47.4281C74.3333 47.1116 74.6391 46.8598 75.0492 46.6727C75.4592 46.4785 75.9844 46.3814 76.6247 46.3814C77.0491 46.3814 77.47 46.4425 77.8872 46.5648C78.3045 46.6799 78.6642 46.8418 78.9664 47.0504L78.6966 47.6871C78.3729 47.4713 78.0275 47.313 77.6606 47.2123C77.3009 47.1116 76.952 47.0612 76.6139 47.0612C76.1606 47.0612 75.7866 47.1224 75.4916 47.2447C75.1966 47.367 74.9772 47.5324 74.8333 47.7411C74.6966 47.9425 74.6283 48.1727 74.6283 48.4317C74.6283 48.7267 74.711 48.9641 74.8765 49.1439C75.0492 49.3238 75.2722 49.4641 75.5455 49.5648C75.8261 49.6655 76.1319 49.7554 76.4628 49.8346C76.7937 49.9137 77.1211 50 77.4448 50.0936C77.7757 50.1871 78.0779 50.3094 78.3513 50.4605C78.6318 50.6044 78.8549 50.7986 79.0203 51.0432C79.193 51.2878 79.2793 51.6079 79.2793 52.0036C79.2793 52.3705 79.1786 52.7122 78.9772 53.0288C78.7757 53.3381 78.4664 53.5899 78.0491 53.7842C77.6391 53.9712 77.1103 54.0647 76.4628 54.0647ZM82.3815 54V47.1368H79.7268V46.4461H85.8347V47.1368H83.18V54H82.3815ZM85.5224 54L88.9756 46.4461H89.7634L93.2166 54H92.3748L89.2022 46.9101H89.5259L86.3533 54H85.5224ZM86.8821 51.982L87.1195 51.3346H91.5115L91.7489 51.982H86.8821ZM95.5544 54V47.1368H92.8997V46.4461H99.0076V47.1368H96.3529V54H95.5544ZM100.996 49.8238H104.988V50.5036H100.996V49.8238ZM101.082 53.3094H105.625V54H100.283V46.4461H105.463V47.1368H101.082V53.3094Z" fill="white"/>
<path d="M61.2387 75.3566H66.9273C67.5366 75.3566 67.8724 75.7015 67.8624 76.2705C67.8624 76.6968 67.5577 77.0326 67.1415 77.0829C66.9585 77.103 66.7655 77.1131 66.5825 77.1131H55.8135C55.5903 77.1131 55.356 77.1131 55.1529 77.0316C54.7578 76.8909 54.5336 76.4736 54.605 76.0775C54.6663 75.6813 55.0011 75.3968 55.4586 75.3767C55.8446 75.3566 56.2307 75.3667 56.6168 75.3667H61.2588L61.2387 75.3566Z" fill="white"/>
<path d="M61.1767 85.7423H67.9522C68.6329 85.7423 69.0089 86.1183 68.9677 86.7075C68.9375 87.0533 68.7646 87.3067 68.4288 87.3982C68.2056 87.4696 67.9613 87.4997 67.728 87.4997H54.4425C54.0976 87.4997 53.7618 87.4484 53.5386 87.1539C53.3244 86.8703 53.3043 86.5556 53.436 86.2299C53.5788 85.8951 53.8734 85.7523 54.2183 85.7423C55.1533 85.7222 56.0873 85.7121 57.0224 85.7121H61.1767V85.7423Z" fill="white"/>
<path d="M61.1556 65.0005H68.0024C68.4086 65.0005 68.7133 65.1423 68.8862 65.5082C69.0994 65.9456 68.9164 66.4634 68.4599 66.6152C68.1452 66.7167 67.7993 66.7368 67.4645 66.7469H59.2664C57.7834 66.7469 56.3004 66.7469 54.8174 66.7569C54.6043 66.7569 54.3911 66.7569 54.178 66.7368C53.6089 66.6765 53.3344 66.3719 53.3545 65.833C53.3747 65.3152 53.6893 65.0105 54.2584 65.0105H61.1455L61.1556 65.0005Z" fill="white"/>
<path d="M78.4919 76.8952V67.5398C78.4919 67.032 78.2315 66.7777 77.7097 66.7777H72.0211C71.2992 66.7777 70.8729 66.2599 71.0559 65.6506C71.1574 65.3047 71.3907 65.1016 71.7366 65.0403C71.9095 65.0101 72.0814 65.0101 72.2544 65.0101C76.9778 65.0101 81.7012 65.0001 86.4247 65.0001C86.5976 65.0001 86.7695 65.0001 86.9425 65.0303C87.5015 65.1016 87.786 65.4465 87.7448 65.9955C87.7146 66.463 87.3889 66.7576 86.861 66.7576C84.8804 66.7676 82.8997 66.7877 80.918 66.7877C80.4843 66.7877 80.2675 67.0009 80.2675 67.4272V86.697C80.2162 87.2459 79.8814 87.5807 79.3938 87.5807C78.9062 87.5807 78.5302 87.1946 78.4799 86.6668V76.9052L78.4899 76.8952H78.4919Z" fill="white"/>
<path d="M98.5189 68.3759C97.9297 69.869 97.3808 71.2806 96.8328 72.7032C95.014 77.3865 93.1962 82.0687 91.3885 86.7519C91.2568 87.0968 91.0839 87.4225 90.6978 87.5241C90.363 87.6156 90.0473 87.5542 89.804 87.2908C89.5496 87.0163 89.4993 86.6916 89.631 86.3457C90.0573 85.2287 90.4846 84.1107 90.921 82.9937C93.1349 77.305 95.3488 71.6164 97.5638 65.9277C97.615 65.796 97.6653 65.6734 97.7266 65.5517C97.8996 65.2471 98.0926 64.9726 98.4988 65.0028C98.905 65.0329 99.2096 65.226 99.3624 65.612C99.8702 66.8718 100.388 68.1316 100.876 69.3904C103.019 74.896 105.152 80.4017 107.285 85.9074C107.377 86.1306 107.438 86.3849 107.458 86.6282C107.488 87.1159 107.255 87.4306 106.849 87.5221C106.381 87.6337 106.005 87.4708 105.813 87.0143C105.569 86.4654 105.366 85.9074 105.153 85.3483C102.989 79.7814 100.835 74.2254 98.6717 68.6585C98.6416 68.5871 98.6104 68.5267 98.53 68.3739H98.5199L98.5189 68.3759Z" fill="white"/>
<path d="M41.0327 76.1367C40.8798 76.2685 40.7481 76.3911 40.6164 76.5228C39.9257 77.2236 39.235 77.9244 38.5342 78.6151C38.2698 78.8795 38.1582 79.1741 38.1582 79.5491C38.1582 81.8344 38.1582 84.1107 38.1481 86.396V86.772C38.0969 87.1983 37.7419 87.5241 37.3146 87.5542C36.8783 87.5844 36.5123 87.3109 36.4208 86.8736C36.3806 86.6805 36.3595 86.4774 36.3595 86.2844V66.2626C36.3595 66.0494 36.3696 65.8363 36.4309 65.6332C36.5425 65.237 36.8873 65.0028 37.3046 65.0128C37.7007 65.0128 38.0054 65.2561 38.1069 65.6734C38.1572 65.8765 38.1572 66.0896 38.1572 66.3038V75.7306C38.1572 75.9437 38.1773 76.1679 38.1974 76.4615C38.685 75.9538 39.1013 75.5064 39.5286 75.0801C42.6775 71.921 45.8365 68.762 48.9956 65.6131C49.1584 65.4602 49.3304 65.3084 49.5133 65.1868C49.9396 64.9123 50.3056 64.9435 50.6002 65.2582C50.9249 65.6141 50.9762 66.0806 50.6515 66.4365C50.001 67.1574 49.3213 67.8592 48.6296 68.5388C46.6188 70.5507 44.6069 72.5514 42.575 74.5522C42.3719 74.7553 42.402 74.877 42.5549 75.0801C45.2061 78.6764 47.8474 82.2718 50.4785 85.8682C50.6103 86.0511 50.753 86.2341 50.8133 86.4473C50.9551 86.8736 50.752 87.3109 50.376 87.4939C50 87.6769 49.5636 87.5854 49.2791 87.2094C48.8628 86.6815 48.4667 86.1326 48.0706 85.5947C45.7853 82.5071 43.509 79.4184 41.2237 76.3308C41.1835 76.2695 41.1322 76.2192 41.0508 76.1378H41.0307L41.0327 76.1367Z" fill="white"/>
<path d="M36.3595 99.672V93.0582H38.8347C39.395 93.0582 39.8773 93.1494 40.2805 93.3318C40.6837 93.5076 40.9924 93.7668 41.2067 94.1063C41.4275 94.4403 41.5374 94.8468 41.5374 95.3247C41.5374 95.8026 41.4275 96.1937 41.2067 96.5343C40.9924 96.8683 40.6837 97.1265 40.2805 97.3089C39.8773 97.4846 39.3961 97.5736 38.8347 97.5736H36.7473L37.0593 97.2528V99.672H36.3595ZM40.876 99.672L39.1753 97.2726H39.9312L41.6417 99.672H40.876ZM37.0582 97.3099L36.7462 96.9793H38.8149C39.4763 96.9793 39.9773 96.8342 40.3168 96.5442C40.6629 96.2542 40.8364 95.8477 40.8364 95.3258C40.8364 94.804 40.6629 94.3876 40.3168 94.0975C39.9762 93.8075 39.4763 93.6625 38.8149 93.6625H36.7473L37.0593 93.3318V97.3099H37.0582ZM44.7564 96.0147H48.2522V96.6101H44.7564V96.0147ZM44.8311 99.0667H48.8092V99.6709H44.1323V93.0582H48.6675V93.6625H44.8311V99.0667ZM50.3396 99.672L53.3631 93.0582H54.053L57.0765 99.672H56.3393L53.5619 93.4647H53.8454L51.068 99.672H50.3407H50.3396ZM51.5295 97.9043L51.7371 97.3374H55.5823L55.79 97.9043H51.5284H51.5295ZM59.1145 99.672V93.0582H59.8132V99.0678H63.5167V99.672H59.1134H59.1145ZM69.6647 96.0147H73.1605V96.6101H69.6647V96.0147ZM69.7405 99.0667H73.7186V99.6709H69.0417V93.0582H73.5769V93.6625H69.7405V99.0667ZM78.1296 99.728C77.6386 99.728 77.1661 99.6489 76.7124 99.4918C76.2653 99.3281 75.9192 99.1205 75.6731 98.8678L75.9467 98.3295C76.1796 98.5558 76.4916 98.7481 76.8816 98.9063C77.2782 99.0579 77.6946 99.1326 78.1285 99.1326C78.5625 99.1326 78.8811 99.0821 79.1393 98.981C79.4041 98.8744 79.5963 98.7316 79.7161 98.5558C79.8424 98.38 79.905 98.1845 79.905 97.9702C79.905 97.7121 79.8292 97.5044 79.6787 97.3462C79.5337 97.1891 79.3414 97.0661 79.1019 96.9782C78.8624 96.8837 78.5977 96.8024 78.3087 96.7321C78.0187 96.6629 77.7286 96.5903 77.4397 96.5145C77.1497 96.4332 76.8827 96.3256 76.6366 96.1937C76.3971 96.0619 76.2015 95.8883 76.051 95.6741C75.906 95.4533 75.8335 95.1676 75.8335 94.8138C75.8335 94.4865 75.9181 94.1865 76.0884 93.9163C76.2653 93.6394 76.5322 93.4186 76.8915 93.2549C77.2507 93.0846 77.71 93 78.2714 93C78.6427 93 79.0119 93.0538 79.3766 93.1604C79.7424 93.2615 80.0567 93.4032 80.3214 93.5856L80.0852 94.1426C79.8018 93.9536 79.4996 93.8152 79.1777 93.7273C78.8624 93.6394 78.557 93.5955 78.2615 93.5955C77.8649 93.5955 77.5375 93.6493 77.2793 93.7559C77.0211 93.8624 76.8289 94.0074 76.7025 94.1909C76.5828 94.3667 76.5234 94.5689 76.5234 94.7952C76.5234 95.0534 76.596 95.261 76.741 95.4192C76.8926 95.5763 77.087 95.6993 77.3265 95.7872C77.5726 95.8751 77.8396 95.9542 78.1296 96.0234C78.4197 96.0927 78.7064 96.1685 78.9899 96.2498C79.2799 96.3311 79.5436 96.4387 79.7831 96.5706C80.0292 96.6969 80.2236 96.8672 80.3687 97.0803C80.5203 97.2946 80.595 97.5747 80.595 97.9208C80.595 98.2416 80.5071 98.5415 80.3302 98.8184C80.1544 99.0886 79.8831 99.3095 79.5172 99.4798C79.158 99.6435 78.6954 99.7259 78.1285 99.7259L78.1296 99.728ZM84.2567 99.672V93.6625H81.932V93.0582H87.2802V93.6625H84.9555V99.672H84.2567ZM87.9515 99.672L90.9749 93.0582H91.6648L94.6883 99.672H93.9511L91.1738 93.4647H91.4572L88.6799 99.672H87.9526H87.9515ZM89.1424 97.9043L89.35 97.3374H93.1952L93.4029 97.9043H89.1413H89.1424ZM97.6799 99.672V93.6625H95.3552V93.0582H100.703V93.6625H98.3786V99.672H97.6799ZM103.388 96.0147H106.884V96.6101H103.388V96.0147ZM103.464 99.0667H107.442V99.6709H102.765V93.0582H107.301V93.6625H103.464V99.0667Z" fill="white"/>
<defs>
<filter id="filter0_d_1375_306" x="0.824748" y="0.521552" width="143.351" height="148.351" filterUnits="userSpaceOnUse" color-interpolation-filters="sRGB">
<feFlood flood-opacity="0" result="BackgroundImageFix"/>
<feColorMatrix in="SourceAlpha" type="matrix" values="0 0 0 0 0 0 0 0 0 0 0 0 0 0 0 0 0 0 127 0" result="hardAlpha"/>
<feOffset dy="1.6968"/>
<feGaussianBlur stdDeviation="2.58763"/>
<feComposite in2="hardAlpha" operator="out"/>
<feColorMatrix type="matrix" values="0 0 0 0 0 0 0 0 0 0 0 0 0 0 0 0 0 0 0.25 0"/>
<feBlend mode="normal" in2="BackgroundImageFix" result="effect1_dropShadow_1375_306"/>
<feBlend mode="normal" in="SourceGraphic" in2="effect1_dropShadow_1375_306" result="shape"/>
</filter>
<linearGradient id="paint0_linear_1375_306" x1="139" y1="73" x2="6" y2="73" gradientUnits="userSpaceOnUse">
<stop stop-color="#FEF9E7"/>
<stop offset="1" stop-color="#FEF9E7" stop-opacity="0"/>
</linearGradient>
<linearGradient id="paint1_linear_1375_306" x1="139" y1="73" x2="6" y2="73" gradientUnits="userSpaceOnUse">
<stop stop-color="white"/>
<stop offset="1" stop-color="white"/>
</linearGradient>
</defs>
</svg>
