<svg width="181" height="89" viewBox="0 0 181 89" fill="none" xmlns="http://www.w3.org/2000/svg">
<path d="M63.0198 26.364H77.4439C78.9888 26.364 79.8403 27.2392 79.8148 28.6835C79.8148 29.7654 79.0423 30.6177 77.9869 30.7453C77.5229 30.7963 77.0334 30.8218 76.5695 30.8218H49.2637C48.6977 30.8218 48.1037 30.8218 47.5888 30.6151C46.5869 30.2579 46.0184 29.1989 46.1994 28.1936C46.3549 27.1882 47.2038 26.4661 48.3638 26.415C49.3427 26.364 50.3216 26.3895 51.3006 26.3895H63.0708L63.0198 26.364Z" fill="white"/>
<path d="M62.9195 52.7257H80.0994C81.8253 52.7257 82.7787 53.6801 82.6742 55.1753C82.5977 56.0531 82.1593 56.6961 81.3078 56.9283C80.7418 57.1095 80.1223 57.1861 79.5309 57.1861H45.8441C44.9697 57.1861 44.1183 57.0559 43.5523 56.3083C43.0093 55.5887 42.9583 54.79 43.2923 53.9633C43.6543 53.1136 44.4012 52.7512 45.2756 52.7257C47.6465 52.6747 50.0148 52.6492 52.3857 52.6492H62.9195V52.7257Z" fill="white"/>
<path d="M62.8658 0.0808105H80.2267C81.2566 0.0808105 82.0291 0.440598 82.4676 1.36941C83.008 2.4794 82.544 3.79351 81.3867 4.17882C80.5887 4.43654 79.7117 4.48757 78.8628 4.51309H58.0756C54.3154 4.51309 50.5551 4.51309 46.7949 4.53861C46.2544 4.53861 45.714 4.53861 45.1735 4.48757C43.7306 4.33447 43.0346 3.56131 43.0856 2.19361C43.1366 0.879488 43.9345 0.106327 45.3775 0.106327H62.8403L62.8658 0.0808105Z" fill="white"/>
<path d="M106.827 30.2698V6.52637C106.827 5.23777 106.167 4.59219 104.844 4.59219H90.42C88.5895 4.59219 87.5086 3.27807 87.9726 1.73175C88.2301 0.853971 88.8215 0.338531 89.6985 0.182878C90.137 0.106327 90.5729 0.106327 91.0114 0.106327C102.988 0.106327 114.965 0.0808105 126.942 0.0808105C127.38 0.0808105 127.816 0.0808105 128.254 0.157361C129.672 0.338531 130.393 1.21376 130.289 2.60698C130.212 3.79351 129.386 4.54116 128.048 4.54116C123.026 4.56667 118.004 4.61771 112.979 4.61771C111.879 4.61771 111.33 5.15867 111.33 6.24058V55.1462C111.199 56.5394 110.351 57.3891 109.114 57.3891C107.878 57.3891 106.924 56.4093 106.797 55.0696V30.2953L106.822 30.2698H106.827Z" fill="white"/>
<path d="M157.602 8.64749C156.109 12.4367 154.717 16.0193 153.327 19.6299C148.715 31.5157 144.106 43.3989 139.523 55.2847C139.189 56.1599 138.75 56.9866 137.771 57.2444C136.922 57.4766 136.122 57.3209 135.505 56.6524C134.86 55.9558 134.732 55.1316 135.066 54.2538C136.147 51.4189 137.231 48.5814 138.337 45.7465C143.951 31.309 149.564 16.8716 155.181 2.43413C155.311 2.09986 155.438 1.78856 155.594 1.4798C156.032 0.706642 156.522 0.0100319 157.551 0.0865825C158.581 0.163133 159.354 0.653057 159.741 1.6329C161.029 4.83017 162.342 8.02743 163.578 11.2221C169.013 25.1952 174.42 39.1682 179.83 53.1412C180.062 53.7077 180.217 54.3533 180.268 54.9708C180.345 56.2084 179.753 57.007 178.724 57.2393C177.538 57.5225 176.585 57.1091 176.098 55.9506C175.478 54.5574 174.963 53.1412 174.423 51.7225C168.937 37.5938 163.476 23.4932 157.99 9.36451C157.913 9.18334 157.834 9.03024 157.63 8.64239H157.605L157.602 8.64749Z" fill="white"/>
<path d="M11.8493 28.3454C11.4618 28.6796 11.1278 28.9909 10.7938 29.3252C9.04245 31.1037 7.29106 32.8823 5.51419 34.6353C4.84371 35.3064 4.56074 36.054 4.56074 37.0058C4.56074 42.8058 4.56074 48.5828 4.53525 54.3828V55.3371C4.40523 56.419 3.50532 57.2458 2.42186 57.3223C1.31545 57.3989 0.387497 56.7048 0.155509 55.5948C0.0535358 55.1049 0 54.5895 0 54.0995V3.28526C0 2.7443 0.0254932 2.20335 0.181002 1.68791C0.463977 0.682541 1.33839 0.0879986 2.39636 0.113515C3.4008 0.113515 4.17324 0.731024 4.43072 1.78997C4.55819 2.30541 4.55819 2.84637 4.55819 3.38988V27.3145C4.55819 27.8554 4.60918 28.4245 4.66016 29.1696C5.89659 27.881 6.952 26.7455 8.03547 25.6635C16.0199 17.6462 24.0299 9.62875 32.0399 1.63687C32.4529 1.24902 32.8888 0.863711 33.3528 0.554957C34.4337 -0.141653 35.3617 -0.0625509 36.1086 0.736127C36.932 1.63942 37.0621 2.82341 36.2386 3.7267C34.5892 5.55626 32.8659 7.33734 31.1119 9.06228C26.0133 14.1682 20.9121 19.2461 15.7599 24.3239C15.245 24.8394 15.3214 25.1481 15.7089 25.6635C22.4315 34.7909 29.1286 43.9158 35.8001 53.0431C36.1341 53.5075 36.4961 53.972 36.6491 54.5129C37.0085 55.5948 36.4936 56.7048 35.5401 57.1692C34.5867 57.6336 33.4803 57.4014 32.7588 56.4471C31.7034 55.1075 30.699 53.7142 29.6945 52.3491C23.8999 44.5129 18.1282 36.6741 12.3336 28.8378C12.2317 28.6822 12.1016 28.5546 11.8951 28.3479H11.8442L11.8493 28.3454Z" fill="white"/>
<path d="M47.9023 83.6785V68.7478H53.4906C54.7562 68.7478 55.844 68.9539 56.7541 69.3663C57.6641 69.7645 58.3609 70.3475 58.8443 71.1153C59.342 71.869 59.5909 72.7862 59.5909 73.8669C59.5909 74.9191 59.342 75.8292 58.8443 76.597C58.3609 77.3507 57.6641 77.9337 56.7541 78.3461C55.844 78.7584 54.7562 78.9646 53.4906 78.9646H48.7768L49.4807 78.2181V83.6785H47.9023ZM49.4807 78.3461L48.7768 77.5782H53.448C54.941 77.5782 56.0715 77.2583 56.8394 76.6184C57.6215 75.9643 58.0125 75.0471 58.0125 73.8669C58.0125 72.6724 57.6215 71.7481 56.8394 71.094C56.0715 70.4399 54.941 70.1129 53.448 70.1129H48.7768L49.4807 69.3663V78.3461ZM63.0038 83.6785V68.7478H68.5921C69.8577 68.7478 70.9455 68.9539 71.8556 69.3663C72.7656 69.7645 73.4624 70.3475 73.9459 71.1153C74.4435 71.869 74.6924 72.7862 74.6924 73.8669C74.6924 74.9191 74.4435 75.8292 73.9459 76.597C73.4624 77.3507 72.7656 77.9337 71.8556 78.3461C70.9455 78.7442 69.8577 78.9433 68.5921 78.9433H63.8783L64.5822 78.2181V83.6785H63.0038ZM73.1993 83.6785L69.36 78.2608H71.0664L74.927 83.6785H73.1993ZM64.5822 78.3461L63.8783 77.5995H68.5495C70.0425 77.5995 71.173 77.2725 71.9409 76.6184C72.723 75.9643 73.114 75.0471 73.114 73.8669C73.114 72.6724 72.723 71.7481 71.9409 71.094C71.173 70.4399 70.0425 70.1129 68.5495 70.1129H63.8783L64.5822 69.3663V78.3461ZM84.9446 83.8064C83.8212 83.8064 82.7761 83.6216 81.8091 83.2519C80.8564 82.8679 80.0246 82.3347 79.3136 81.6522C78.6168 80.9554 78.0694 80.152 77.6712 79.2419C77.2873 78.3176 77.0953 77.308 77.0953 76.2131C77.0953 75.1182 77.2873 74.1157 77.6712 73.2056C78.0694 72.2814 78.6168 71.4779 79.3136 70.7954C80.0246 70.0986 80.8564 69.5654 81.8091 69.1957C82.7619 68.8118 83.807 68.6198 84.9446 68.6198C86.0679 68.6198 87.106 68.8118 88.0587 69.1957C89.0114 69.5654 89.8362 70.0915 90.5329 70.7741C91.2439 71.4566 91.7914 72.26 92.1753 73.1843C92.5735 74.1086 92.7725 75.1182 92.7725 76.2131C92.7725 77.308 92.5735 78.3176 92.1753 79.2419C91.7914 80.1662 91.2439 80.9696 90.5329 81.6522C89.8362 82.3347 89.0114 82.8679 88.0587 83.2519C87.106 83.6216 86.0679 83.8064 84.9446 83.8064ZM84.9446 82.3987C85.8404 82.3987 86.6652 82.2494 87.4188 81.9508C88.1867 81.6379 88.8479 81.2042 89.4025 80.6497C89.9713 80.0809 90.4121 79.4268 90.7249 78.6873C91.0377 77.9337 91.1942 77.109 91.1942 76.2131C91.1942 75.3173 91.0377 74.4996 90.7249 73.7602C90.4121 73.0066 89.9713 72.3525 89.4025 71.7979C88.8479 71.2291 88.1867 70.7954 87.4188 70.4968C86.6652 70.184 85.8404 70.0275 84.9446 70.0275C84.0487 70.0275 83.2169 70.184 82.449 70.4968C81.6812 70.7954 81.0128 71.2291 80.444 71.7979C79.8895 72.3525 79.4487 73.0066 79.1216 73.7602C78.8088 74.4996 78.6524 75.3173 78.6524 76.2131C78.6524 77.0947 78.8088 77.9124 79.1216 78.666C79.4487 79.4197 79.8895 80.0809 80.444 80.6497C81.0128 81.2042 81.6812 81.6379 82.449 81.9508C83.2169 82.2494 84.0487 82.3987 84.9446 82.3987ZM96.3104 83.6785V68.7478H97.6115L104.437 80.3937H103.754L110.516 68.7478H111.817V83.6785H110.303V71.1153H110.665L104.437 81.7801H103.69L97.4196 71.1153H97.8248V83.6785H96.3104ZM123.209 83.8064C122.085 83.8064 121.04 83.6216 120.073 83.2519C119.121 82.8679 118.289 82.3347 117.578 81.6522C116.881 80.9554 116.333 80.152 115.935 79.2419C115.551 78.3176 115.359 77.308 115.359 76.2131C115.359 75.1182 115.551 74.1157 115.935 73.2056C116.333 72.2814 116.881 71.4779 117.578 70.7954C118.289 70.0986 119.121 69.5654 120.073 69.1957C121.026 68.8118 122.071 68.6198 123.209 68.6198C124.332 68.6198 125.37 68.8118 126.323 69.1957C127.276 69.5654 128.1 70.0915 128.797 70.7741C129.508 71.4566 130.055 72.26 130.439 73.1843C130.838 74.1086 131.037 75.1182 131.037 76.2131C131.037 77.308 130.838 78.3176 130.439 79.2419C130.055 80.1662 129.508 80.9696 128.797 81.6522C128.1 82.3347 127.276 82.8679 126.323 83.2519C125.37 83.6216 124.332 83.8064 123.209 83.8064ZM123.209 82.3987C124.105 82.3987 124.929 82.2494 125.683 81.9508C126.451 81.6379 127.112 81.2042 127.667 80.6497C128.235 80.0809 128.676 79.4268 128.989 78.6873C129.302 77.9337 129.458 77.109 129.458 76.2131C129.458 75.3173 129.302 74.4996 128.989 73.7602C128.676 73.0066 128.235 72.3525 127.667 71.7979C127.112 71.2291 126.451 70.7954 125.683 70.4968C124.929 70.184 124.105 70.0275 123.209 70.0275C122.313 70.0275 121.481 70.184 120.713 70.4968C119.945 70.7954 119.277 71.2291 118.708 71.7979C118.154 72.3525 117.713 73.0066 117.386 73.7602C117.073 74.4996 116.916 75.3173 116.916 76.2131C116.916 77.0947 117.073 77.9124 117.386 78.666C117.713 79.4197 118.154 80.0809 118.708 80.6497C119.277 81.2042 119.945 81.6379 120.713 81.9508C121.481 82.2494 122.313 82.3987 123.209 82.3987Z" fill="white"/>
</svg>
