<svg width="178" height="89" viewBox="0 0 178 89" fill="none" xmlns="http://www.w3.org/2000/svg">
<path d="M61.4488 25.905H75.6715C77.1972 25.905 78.0354 26.7694 78.0092 28.1904C78.0092 29.2577 77.2496 30.0959 76.2085 30.2203C75.7501 30.2727 75.2655 30.2989 74.8137 30.2989H47.894C47.3374 30.2989 46.7481 30.2989 46.2439 30.0959C45.2551 29.7423 44.6985 28.7011 44.8753 27.7123C45.0259 26.7236 45.8641 26.0098 47.01 25.9574C47.9726 25.905 48.9417 25.9312 49.9043 25.9312H61.5077L61.4554 25.905H61.4488Z" fill="white"/>
<path d="M62.1618 51.7703L79.102 51.8489C80.8045 51.8489 81.7409 52.7918 81.6427 54.2651C81.5641 55.1295 81.132 55.7647 80.2938 55.9939C79.7372 56.1707 79.1282 56.2492 78.5389 56.2492H45.3263C44.462 56.2492 43.6238 56.1183 43.0672 55.3849C42.5303 54.6777 42.4844 53.8919 42.8118 53.0734C43.172 52.2352 43.9054 51.8816 44.7698 51.8554C47.1075 51.803 49.4452 51.7768 51.7763 51.7768H62.1618V51.7703Z" fill="white"/>
<path d="M61.9789 0.000732422H79.0959C80.1109 0.000732422 80.8705 0.354337 81.3027 1.27109C81.8331 2.36464 81.3813 3.66119 80.2353 4.04099C79.4496 4.29637 78.5852 4.3422 77.747 4.3684H57.2511C53.5448 4.3684 49.8385 4.3684 46.1323 4.39459C45.6019 4.39459 45.0649 4.39458 44.5345 4.3422C43.1135 4.19159 42.426 3.43201 42.4784 2.08308C42.5308 0.786533 43.3165 0.0269308 44.7375 0.0269308H61.9527L61.9789 0.000732422Z" fill="white"/>
<path d="M105.321 29.7493V6.3525C105.321 5.08215 104.673 4.44697 103.363 4.44697H89.1403C87.333 4.44697 86.2722 3.15043 86.7306 1.63125C86.9859 0.766886 87.5687 0.256115 88.4331 0.105506C88.8653 0.0269277 89.2975 0.0269308 89.7297 0.0269308C101.536 0.0269308 113.342 0.000732422 125.155 0.000732422C125.588 0.000732422 126.02 0.000729226 126.452 0.0793077C127.847 0.256109 128.561 1.12047 128.456 2.4956C128.384 3.66773 127.565 4.40113 126.249 4.40113C121.299 4.42732 116.348 4.4797 111.391 4.4797C110.304 4.4797 109.767 5.01011 109.767 6.07747V54.2657C109.636 55.6408 108.805 56.4725 107.58 56.4725C106.356 56.4725 105.419 55.5099 105.295 54.1871V29.7754L105.321 29.7493Z" fill="white"/>
<path d="M155.382 8.44198C153.908 12.1745 152.54 15.7039 151.165 19.2662C146.62 30.9744 142.076 42.6891 137.557 54.3973C137.23 55.2617 136.798 56.0736 135.829 56.329C134.99 56.5582 134.205 56.4076 133.596 55.7462C132.961 55.0587 132.836 54.2467 133.164 53.3823C134.231 50.5862 135.298 47.7901 136.385 45.0006C141.918 30.7779 147.452 16.5487 152.991 2.32596C153.122 1.99854 153.247 1.69078 153.397 1.38301C153.83 0.62342 154.314 -0.0641462 155.329 0.00788411C156.344 0.0864626 157.104 0.564473 157.49 1.53361C158.76 4.6833 160.05 7.833 161.275 10.9827C166.631 24.7536 171.968 38.5179 177.298 52.2888C177.528 52.8454 177.678 53.4805 177.731 54.0895C177.803 55.3075 177.22 56.0933 176.205 56.3225C175.039 56.604 174.096 56.1915 173.618 55.0521C173.009 53.677 172.499 52.2822 171.968 50.8875C166.559 36.966 161.177 23.0707 155.768 9.14918C155.696 8.97237 155.617 8.82177 155.414 8.43542H155.388L155.382 8.44198Z" fill="white"/>
<path d="M11.682 27.8568C11.3022 28.1842 10.9682 28.492 10.6408 28.8194C8.91211 30.5743 7.18993 32.3227 5.43501 34.0514C4.77365 34.7128 4.49207 35.4462 4.49207 36.3891C4.49207 42.1057 4.49208 47.7961 4.46588 53.5127V54.4556C4.33492 55.523 3.45091 56.3349 2.38355 56.4135C1.29 56.4921 0.379793 55.8046 0.150606 54.711C0.0523829 54.2264 0 53.7222 0 53.2377V3.17005C0 2.63965 0.0261956 2.1027 0.176804 1.59849C0.458377 0.609709 1.31619 0.0203736 2.3639 0.0465664C3.35268 0.0465664 4.11882 0.655543 4.36765 1.69671C4.49207 2.20747 4.49207 2.73787 4.49207 3.27483V26.8484C4.49207 27.3788 4.54446 27.9419 4.5903 28.6753C5.80827 27.405 6.84942 26.2852 7.91678 25.2179C15.7877 17.3207 23.6849 9.41706 31.582 1.54611C31.988 1.16632 32.4202 0.786516 32.8786 0.478751C33.9459 -0.208811 34.8561 -0.13024 35.5961 0.655545C36.408 1.5461 36.539 2.71168 35.727 3.60224C34.1031 5.403 32.4005 7.15791 30.6718 8.86045C25.6428 13.8895 20.6138 18.8923 15.5389 23.8951C15.0281 24.4059 15.1067 24.7071 15.4865 25.2179C22.1133 34.2086 28.7139 43.1993 35.2948 52.1965C35.6223 52.6549 35.9824 53.1132 36.133 53.6437C36.4866 54.711 35.9824 55.8046 35.0395 56.2629C34.0965 56.7213 33.0095 56.4921 32.2958 55.5492C31.2546 54.2264 30.2658 52.8579 29.277 51.5089C23.567 43.7886 17.8766 36.0617 12.16 28.3414C12.0618 28.1908 11.9308 28.0598 11.7278 27.8568H11.6755H11.682Z" fill="white"/>
<path d="M0.570312 69.6003H2.52168V88.1383H0.570312V69.6003Z" fill="white"/>
<path d="M29.5268 75.6104C30.5221 76.6189 31.0132 78.0988 31.0132 80.0567V88.1306H29.1404V80.24C29.1404 78.7929 28.7934 77.6862 28.0993 76.9266C27.4052 76.167 26.4229 75.7873 25.1591 75.7873C23.7185 75.7873 22.5857 76.2325 21.7606 77.1231C20.9355 78.0136 20.523 79.2447 20.523 80.8163V88.1241H18.6502V80.2335C18.6502 78.7863 18.3032 77.6797 17.609 76.9201C16.9149 76.1605 15.9262 75.7807 14.6427 75.7807C13.2217 75.7807 12.0889 76.226 11.2573 77.1165C10.4257 78.0071 10.0066 79.2381 10.0066 80.8097V88.1175H8.13379V74.1895H9.928V76.7302C10.4191 75.8855 11.1067 75.2306 11.9841 74.7723C12.8616 74.3139 13.87 74.0847 15.016 74.0847C16.1619 74.0847 17.1834 74.3336 18.0347 74.8247C18.886 75.3158 19.5211 76.0492 19.9468 77.0249C20.4575 76.1081 21.1909 75.3878 22.147 74.864C23.103 74.3466 24.1965 74.0847 25.4276 74.0847C27.1694 74.0847 28.5315 74.5889 29.5268 75.5974V75.6104Z" fill="white"/>
<path d="M57.4936 75.6104C58.4889 76.6189 58.98 78.0988 58.98 80.0567V88.1306H57.1072V80.24C57.1072 78.7929 56.7602 77.6862 56.0661 76.9266C55.372 76.167 54.3897 75.7873 53.1259 75.7873C51.6853 75.7873 50.5525 76.2325 49.7274 77.1231C48.9023 78.0136 48.4898 79.2447 48.4898 80.8163V88.1241H46.617V80.2335C46.617 78.7863 46.27 77.6797 45.5758 76.9201C44.8817 76.1605 43.893 75.7807 42.6095 75.7807C41.1885 75.7807 40.0557 76.226 39.2241 77.1165C38.3925 78.0071 37.9734 79.2381 37.9734 80.8097V88.1175H36.1006V74.1895H37.8948V76.7302C38.3859 75.8855 39.0735 75.2306 39.9509 74.7723C40.8284 74.3139 41.8368 74.0847 42.9827 74.0847C44.1287 74.0847 45.1502 74.3336 46.0015 74.8247C46.8527 75.3158 47.4879 76.0492 47.9135 77.0249C48.4243 76.1081 49.1577 75.3878 50.1137 74.864C51.0698 74.3466 52.1633 74.0847 53.3944 74.0847C55.1362 74.0847 56.4983 74.5889 57.4936 75.5974V75.6104Z" fill="white"/>
<path d="M66.1765 87.352C65.1026 86.743 64.2579 85.8983 63.6489 84.8244C63.0333 83.7504 62.7256 82.5325 62.7256 81.1705C62.7256 79.8084 63.0333 78.5905 63.6489 77.5166C64.2644 76.4426 65.1091 75.5979 66.1765 75.002C67.2504 74.3996 68.4553 74.0984 69.7911 74.0984C71.1269 74.0984 72.3318 74.3996 73.3992 75.002C74.4731 75.6045 75.3112 76.4426 75.9137 77.5166C76.5161 78.5905 76.8239 79.8084 76.8239 81.1705C76.8239 82.5325 76.5227 83.7504 75.9137 84.8244C75.3047 85.9048 74.4665 86.743 73.3992 87.352C72.3253 87.9609 71.1204 88.2687 69.7911 88.2687C68.4618 88.2687 67.2504 87.9675 66.1765 87.352ZM72.4431 85.9244C73.2224 85.4726 73.8379 84.8375 74.2766 84.0058C74.7154 83.1742 74.938 82.2313 74.938 81.1705C74.938 80.1097 74.7154 79.1667 74.2766 78.3351C73.8379 77.5035 73.2289 76.8683 72.4431 76.4165C71.6639 75.9646 70.7799 75.742 69.7911 75.742C68.8023 75.742 67.9249 75.9646 67.1391 76.4165C66.3598 76.8683 65.7443 77.51 65.2925 78.3351C64.8472 79.1667 64.618 80.1097 64.618 81.1705C64.618 82.2313 64.8407 83.1742 65.2925 84.0058C65.7443 84.8375 66.3533 85.4726 67.1391 85.9244C67.9183 86.3763 68.8023 86.5989 69.7911 86.5989C70.7799 86.5989 71.6573 86.3763 72.4431 85.9244Z" fill="white"/>
<path d="M82.4163 71.2963H75.9336V69.6003H90.857V71.2963H84.3742V88.1383H82.4229V71.2963H82.4163Z" fill="white"/>
<path d="M96.9533 74.8121C97.8242 74.3341 98.8981 74.0984 100.182 74.0984V75.9253L99.7363 75.8991C98.276 75.8991 97.1366 76.351 96.3116 77.2481C95.4865 78.1452 95.074 79.409 95.074 81.0329V88.1312H93.2012V74.2032H94.9954V76.9338C95.4341 75.9974 96.0889 75.2902 96.9598 74.8121H96.9533Z" fill="white"/>
<path d="M115.498 81.7532H103.901C104.006 83.2004 104.563 84.3725 105.565 85.2631C106.567 86.1537 107.83 86.5989 109.363 86.5989C110.22 86.5989 111.013 86.4418 111.733 86.134C112.453 85.8262 113.075 85.3679 113.606 84.772L114.66 85.9899C114.045 86.7299 113.278 87.2996 112.355 87.6859C111.432 88.0723 110.417 88.2687 109.31 88.2687C107.889 88.2687 106.625 87.9675 105.525 87.352C104.425 86.743 103.567 85.8983 102.958 84.8244C102.343 83.7504 102.035 82.5325 102.035 81.1705C102.035 79.8084 102.33 78.5905 102.919 77.5166C103.509 76.4426 104.314 75.5979 105.342 75.002C106.37 74.3996 107.523 74.0984 108.806 74.0984C110.089 74.0984 111.242 74.3996 112.257 75.002C113.278 75.6045 114.077 76.4361 114.654 77.5035C115.236 78.5708 115.524 79.7953 115.524 81.1705L115.498 81.7532ZM105.447 76.9992C104.543 77.8571 104.026 78.9703 103.901 80.3519H113.737C113.612 78.9768 113.102 77.8571 112.198 76.9992C111.294 76.1414 110.161 75.7158 108.813 75.7158C107.464 75.7158 106.357 76.1414 105.453 76.9992H105.447Z" fill="white"/>
<path d="M131.842 74.2097V88.1377H130.048V85.597C129.557 86.4418 128.876 87.1031 128.018 87.5681C127.16 88.033 126.172 88.2687 125.065 88.2687C123.258 88.2687 121.824 87.7645 120.783 86.743C119.735 85.728 119.211 84.2416 119.211 82.2836V74.2097H121.084V82.1003C121.084 83.5671 121.444 84.6803 122.164 85.4399C122.884 86.1995 123.913 86.5793 125.248 86.5793C126.709 86.5793 127.861 86.134 128.699 85.2435C129.544 84.3529 129.963 83.1153 129.963 81.5241V74.2163H131.836L131.842 74.2097Z" fill="white"/>
<path d="M155.965 83.1879H145.685L143.471 88.1383H141.441L149.875 69.6003H151.801L160.235 88.1383H158.179L155.965 83.1879ZM155.252 81.5967L150.825 71.6368L146.398 81.5967H155.258H155.252Z" fill="white"/>
<path d="M176.023 78.8657H177.896V85.9378C177.032 86.6974 176.017 87.2801 174.838 87.6861C173.659 88.0921 172.422 88.2951 171.119 88.2951C169.272 88.2951 167.615 87.8891 166.135 87.0772C164.662 86.2652 163.497 85.1389 162.658 83.6983C161.814 82.2577 161.395 80.6468 161.395 78.8657C161.395 77.0846 161.814 75.4737 162.658 74.0331C163.503 72.5925 164.662 71.4662 166.135 70.6542C167.609 69.8423 169.279 69.4363 171.145 69.4363C172.553 69.4363 173.843 69.6589 175.021 70.1107C176.2 70.5626 177.189 71.2305 178.001 72.1079L176.789 73.3521C175.329 71.905 173.476 71.1781 171.23 71.1781C169.737 71.1781 168.388 71.5121 167.183 72.1734C165.978 72.8348 165.035 73.7516 164.348 74.9302C163.66 76.1024 163.32 77.412 163.32 78.8657C163.32 80.3194 163.66 81.6225 164.348 82.7881C165.035 83.9537 165.972 84.8704 167.17 85.5449C168.368 86.2193 169.711 86.5533 171.204 86.5533C173.103 86.5533 174.707 86.0753 176.03 85.1258V78.8788L176.023 78.8657Z" fill="white"/>
</svg>
