<svg width="181" height="89" viewBox="0 0 181 89" fill="none" xmlns="http://www.w3.org/2000/svg">
<path d="M63.0198 26.364H77.4439C78.9888 26.364 79.8403 27.2392 79.8148 28.6835C79.8148 29.7654 79.0423 30.6177 77.9869 30.7453C77.5229 30.7963 77.0334 30.8218 76.5695 30.8218H49.2637C48.6977 30.8218 48.1037 30.8218 47.5888 30.6151C46.5869 30.2579 46.0184 29.1989 46.1994 28.1936C46.3549 27.1882 47.2038 26.4661 48.3638 26.415C49.3427 26.364 50.3216 26.3895 51.3006 26.3895H63.0708L63.0198 26.364Z" fill="white"/>
<path d="M62.9195 52.7257H80.0994C81.8253 52.7257 82.7787 53.6801 82.6742 55.1753C82.5977 56.0531 82.1593 56.6961 81.3078 56.9283C80.7418 57.1095 80.1223 57.1861 79.5309 57.1861H45.8441C44.9697 57.1861 44.1183 57.0559 43.5523 56.3083C43.0093 55.5887 42.9583 54.79 43.2923 53.9633C43.6543 53.1136 44.4012 52.7512 45.2756 52.7257C47.6465 52.6747 50.0148 52.6492 52.3857 52.6492H62.9195V52.7257Z" fill="white"/>
<path d="M62.8658 0.0808105H80.2267C81.2566 0.0808105 82.0291 0.440598 82.4676 1.36941C83.008 2.4794 82.544 3.79351 81.3867 4.17882C80.5887 4.43654 79.7117 4.48757 78.8628 4.51309H58.0756C54.3154 4.51309 50.5551 4.51309 46.7949 4.53861C46.2544 4.53861 45.714 4.53861 45.1735 4.48757C43.7306 4.33447 43.0346 3.56131 43.0856 2.19361C43.1366 0.879488 43.9345 0.106327 45.3775 0.106327H62.8403L62.8658 0.0808105Z" fill="white"/>
<path d="M106.827 30.2698V6.52637C106.827 5.23777 106.167 4.59219 104.844 4.59219H90.42C88.5895 4.59219 87.5086 3.27807 87.9726 1.73175C88.2301 0.853971 88.8215 0.338531 89.6985 0.182878C90.137 0.106327 90.5729 0.106327 91.0114 0.106327C102.988 0.106327 114.965 0.0808105 126.942 0.0808105C127.38 0.0808105 127.816 0.0808105 128.254 0.157361C129.672 0.338531 130.393 1.21376 130.289 2.60698C130.212 3.79351 129.386 4.54116 128.048 4.54116C123.026 4.56667 118.004 4.61771 112.979 4.61771C111.879 4.61771 111.33 5.15867 111.33 6.24058V55.1462C111.199 56.5394 110.351 57.3891 109.114 57.3891C107.878 57.3891 106.924 56.4093 106.797 55.0696V30.2953L106.822 30.2698H106.827Z" fill="white"/>
<path d="M157.602 8.64749C156.109 12.4367 154.717 16.0193 153.327 19.6299C148.715 31.5157 144.106 43.3989 139.523 55.2847C139.189 56.1599 138.75 56.9866 137.771 57.2444C136.922 57.4766 136.122 57.3209 135.505 56.6524C134.86 55.9558 134.732 55.1316 135.066 54.2538C136.147 51.4189 137.231 48.5814 138.337 45.7465C143.951 31.309 149.564 16.8716 155.181 2.43413C155.311 2.09986 155.438 1.78856 155.594 1.4798C156.032 0.706642 156.522 0.0100319 157.551 0.0865825C158.581 0.163133 159.354 0.653057 159.741 1.6329C161.029 4.83017 162.342 8.02743 163.578 11.2221C169.013 25.1952 174.42 39.1682 179.83 53.1412C180.062 53.7077 180.217 54.3533 180.268 54.9708C180.345 56.2084 179.753 57.007 178.724 57.2393C177.538 57.5225 176.585 57.1091 176.098 55.9506C175.478 54.5574 174.963 53.1412 174.423 51.7225C168.937 37.5938 163.476 23.4932 157.99 9.36451C157.913 9.18334 157.834 9.03024 157.63 8.64239H157.605L157.602 8.64749Z" fill="white"/>
<path d="M11.8493 28.3454C11.4618 28.6796 11.1278 28.9909 10.7938 29.3252C9.04245 31.1037 7.29106 32.8823 5.51419 34.6353C4.84371 35.3064 4.56074 36.054 4.56074 37.0058C4.56074 42.8058 4.56074 48.5828 4.53525 54.3828V55.3371C4.40523 56.419 3.50532 57.2458 2.42186 57.3223C1.31545 57.3989 0.387497 56.7048 0.155509 55.5948C0.0535358 55.1049 0 54.5895 0 54.0995V3.28526C0 2.7443 0.0254932 2.20335 0.181002 1.68791C0.463977 0.682541 1.33839 0.0879986 2.39636 0.113515C3.4008 0.113515 4.17324 0.731024 4.43072 1.78997C4.55819 2.30541 4.55819 2.84637 4.55819 3.38988V27.3145C4.55819 27.8554 4.60918 28.4245 4.66016 29.1696C5.89659 27.881 6.952 26.7455 8.03547 25.6635C16.0199 17.6462 24.0299 9.62875 32.0399 1.63687C32.4529 1.24902 32.8888 0.863711 33.3528 0.554957C34.4337 -0.141653 35.3617 -0.0625509 36.1086 0.736127C36.932 1.63942 37.0621 2.82341 36.2386 3.7267C34.5892 5.55626 32.8659 7.33734 31.1119 9.06228C26.0133 14.1682 20.9121 19.2461 15.7599 24.3239C15.245 24.8394 15.3214 25.1481 15.7089 25.6635C22.4315 34.7909 29.1286 43.9158 35.8001 53.0431C36.1341 53.5075 36.4961 53.972 36.6491 54.5129C37.0085 55.5948 36.4936 56.7048 35.5401 57.1692C34.5867 57.6336 33.4803 57.4014 32.7588 56.4471C31.7034 55.1075 30.699 53.7142 29.6945 52.3491C23.8999 44.5129 18.1282 36.6741 12.3336 28.8378C12.2317 28.6822 12.1016 28.5546 11.8951 28.3479H11.8442L11.8493 28.3454Z" fill="white"/>
<path d="M70.9158 83.8064C69.7924 83.8064 68.7544 83.6216 67.8016 83.2519C66.8489 82.8679 66.0242 82.3347 65.3274 81.6522C64.6306 80.9696 64.0832 80.1662 63.685 79.2419C63.3011 78.3176 63.1091 77.308 63.1091 76.2131C63.1091 75.1182 63.3011 74.1086 63.685 73.1843C64.0832 72.26 64.6306 71.4566 65.3274 70.7741C66.0384 70.0915 66.8703 69.5654 67.823 69.1957C68.7757 68.8118 69.8137 68.6198 70.9371 68.6198C72.0178 68.6198 73.0345 68.8046 73.9872 69.1744C74.9399 69.5298 75.7434 70.0702 76.3975 70.7954L75.395 71.7979C74.7835 71.1722 74.1081 70.7243 73.3687 70.4541C72.6292 70.1697 71.8329 70.0275 70.9798 70.0275C70.0839 70.0275 69.2521 70.184 68.4842 70.4968C67.7163 70.7954 67.048 71.2291 66.4792 71.7979C65.9104 72.3525 65.4625 73.0066 65.1354 73.7602C64.8226 74.4996 64.6662 75.3173 64.6662 76.2131C64.6662 77.109 64.8226 77.9337 65.1354 78.6873C65.4625 79.4268 65.9104 80.0809 66.4792 80.6497C67.048 81.2042 67.7163 81.6379 68.4842 81.9508C69.2521 82.2494 70.0839 82.3987 70.9798 82.3987C71.8329 82.3987 72.6292 82.2565 73.3687 81.9721C74.1081 81.6877 74.7835 81.2327 75.395 80.607L76.3975 81.6095C75.7434 82.3347 74.9399 82.8822 73.9872 83.2519C73.0345 83.6216 72.0107 83.8064 70.9158 83.8064ZM85.9766 83.8064C84.8533 83.8064 83.8081 83.6216 82.8412 83.2519C81.8884 82.8679 81.0566 82.3347 80.3456 81.6522C79.6488 80.9554 79.1014 80.152 78.7032 79.2419C78.3193 78.3176 78.1273 77.308 78.1273 76.2131C78.1273 75.1182 78.3193 74.1157 78.7032 73.2056C79.1014 72.2814 79.6488 71.4779 80.3456 70.7954C81.0566 70.0986 81.8884 69.5654 82.8412 69.1957C83.7939 68.8118 84.839 68.6198 85.9766 68.6198C87.1 68.6198 88.138 68.8118 89.0907 69.1957C90.0435 69.5654 90.8682 70.0915 91.565 70.7741C92.2759 71.4566 92.8234 72.26 93.2073 73.1843C93.6055 74.1086 93.8046 75.1182 93.8046 76.2131C93.8046 77.308 93.6055 78.3176 93.2073 79.2419C92.8234 80.1662 92.2759 80.9696 91.565 81.6522C90.8682 82.3347 90.0435 82.8679 89.0907 83.2519C88.138 83.6216 87.1 83.8064 85.9766 83.8064ZM85.9766 82.3987C86.8725 82.3987 87.6972 82.2494 88.4508 81.9508C89.2187 81.6379 89.8799 81.2042 90.4345 80.6497C91.0033 80.0809 91.4441 79.4268 91.7569 78.6873C92.0698 77.9337 92.2262 77.109 92.2262 76.2131C92.2262 75.3173 92.0698 74.4996 91.7569 73.7602C91.4441 73.0066 91.0033 72.3525 90.4345 71.7979C89.8799 71.2291 89.2187 70.7954 88.4508 70.4968C87.6972 70.184 86.8725 70.0275 85.9766 70.0275C85.0808 70.0275 84.2489 70.184 83.4811 70.4968C82.7132 70.7954 82.0449 71.2291 81.4761 71.7979C80.9215 72.3525 80.4807 73.0066 80.1536 73.7602C79.8408 74.4996 79.6844 75.3173 79.6844 76.2131C79.6844 77.0947 79.8408 77.9124 80.1536 78.666C80.4807 79.4197 80.9215 80.0809 81.4761 80.6497C82.0449 81.2042 82.7132 81.6379 83.4811 81.9508C84.2489 82.2494 85.0808 82.3987 85.9766 82.3987ZM97.3424 83.6785V68.7478H98.9208V83.6785H97.3424ZM103.779 83.6785V68.7478H105.08L115.382 81.7161H114.7V68.7478H116.257V83.6785H114.956L104.675 70.7101H105.357V83.6785H103.779Z" fill="white"/>
</svg>
