<svg width="116" height="65" viewBox="0 0 116 65" fill="none" xmlns="http://www.w3.org/2000/svg">
<path d="M40.371 16.996L49.5754 16.9795C50.5647 16.9795 51.11 17.5474 51.0936 18.4846C51.0936 19.1866 50.599 19.7396 49.9231 19.8224C49.626 19.8555 49.3125 19.8721 49.0154 19.8721H31.5291C31.1667 19.8721 30.7863 19.8721 30.4565 19.738C29.8149 19.5062 29.4509 18.819 29.5668 18.1667C29.6664 17.5143 30.21 17.0457 30.9528 17.0126C31.5797 16.9795 32.2066 16.996 32.8335 16.996H40.371Z" fill="#003049"/>
<path d="M40.2934 34.1581H51.2952C52.4004 34.1581 53.011 34.7773 52.944 35.7476C52.8951 36.3172 52.6143 36.7344 52.069 36.8851C51.7066 37.0026 51.3098 37.0523 50.9311 37.0523H29.3585C28.7986 37.0523 28.2533 36.9679 27.8909 36.4827C27.5431 36.0158 27.5105 35.4976 27.7243 34.9611C27.9562 34.4097 28.4345 34.1746 28.9945 34.1581C30.5127 34.125 32.0294 34.1084 33.5477 34.1084L40.2934 34.1581Z" fill="#003049"/>
<path d="M40.2427 0.0165574L51.3767 0C52.0362 0 52.5309 0.23346 52.8117 0.836151C53.1578 1.5564 52.8607 2.40911 52.1195 2.65913C51.6085 2.82636 51.0469 2.85947 50.5033 2.87603H37.1914C34.7834 2.87603 32.3754 2.87603 29.9674 2.89259C29.6213 2.89259 29.2752 2.89259 28.9291 2.85947C28.005 2.76013 27.5594 2.25844 27.592 1.37096C27.6247 0.518248 28.1356 0.0165574 29.0597 0.0165574H40.2427Z" fill="#003049"/>
<path d="M68.4112 19.5891V4.18241C68.4112 3.34626 67.9884 2.92736 67.1411 2.92736H57.9041C56.7319 2.92736 56.0397 2.07465 56.3368 1.07127C56.5017 0.501691 56.8805 0.16723 57.4421 0.0662298C57.7229 0.0165574 58.002 0.0165575 58.2828 0.0165575C65.9526 0.0165575 73.6223 0 81.2921 0C81.5729 0 81.852 0 82.1328 0.0496724C83.0405 0.16723 83.5025 0.735151 83.4356 1.63919C83.3866 2.40911 82.8577 2.89424 82.0006 2.89424C78.7845 2.9108 75.5683 2.94391 72.3506 2.94391C71.6464 2.94391 71.2943 3.29493 71.2943 3.99697V35.731C71.211 36.635 70.6674 37.1864 69.8756 37.1864C69.0838 37.1864 68.4732 36.5506 68.3916 35.6813V19.6057L68.4079 19.5891H68.4112Z" fill="#003049"/>
<path d="M100.928 5.55877C99.9715 8.01755 99.0801 10.3422 98.1904 12.6851C95.2371 20.3976 92.2854 28.1084 89.3501 35.8208C89.1362 36.3887 88.8554 36.9252 88.2285 37.0924C87.6849 37.2431 87.1723 37.1421 86.7772 36.7083C86.3642 36.2563 86.2825 35.7215 86.4964 35.1519C87.1886 33.3124 87.8824 31.4712 88.591 29.6316C92.1858 20.2634 95.7807 10.8952 99.3772 1.52703C99.4605 1.31013 99.5421 1.10813 99.6417 0.907782C99.9225 0.406091 100.236 -0.045927 100.896 0.0037453C101.555 0.0534177 102.05 0.371321 102.298 1.00713C103.122 3.08178 103.963 5.15642 104.755 7.22942C108.235 16.2963 111.698 25.3631 115.162 34.43C115.311 34.7976 115.411 35.2165 115.443 35.6172C115.492 36.4202 115.113 36.9384 114.454 37.0891C113.695 37.2729 113.084 37.0047 112.772 36.253C112.376 35.3489 112.046 34.43 111.7 33.5094C108.187 24.3415 104.69 15.1919 101.176 6.02403C101.127 5.90648 101.077 5.80713 100.946 5.55546H100.93L100.928 5.55877Z" fill="#003049"/>
<path d="M7.58811 18.3405C7.33996 18.5574 7.1261 18.7594 6.91223 18.9763C5.79067 20.1304 4.66911 21.2845 3.53121 22.422C3.10185 22.8574 2.92064 23.3425 2.92064 23.9601C2.92064 27.7236 2.92064 31.4723 2.90431 35.2358V35.855C2.82105 36.557 2.24476 37.0935 1.55093 37.1432C0.842398 37.1929 0.248148 36.7425 0.0995858 36.0222C0.0342836 35.7043 0 35.3699 0 35.052V2.07947C0 1.72845 0.0163255 1.37744 0.115911 1.04297C0.297125 0.390611 0.857091 0.00482263 1.5346 0.0213801C2.17783 0.0213801 2.67249 0.42207 2.83738 1.1092C2.91901 1.44367 2.91901 1.79468 2.91901 2.14736V17.6716C2.91901 18.0226 2.95166 18.3919 2.98431 18.8753C3.7761 18.0392 4.45198 17.3024 5.14581 16.6004C10.259 11.398 15.3885 6.19565 20.5179 1.00986C20.7824 0.758187 21.0616 0.508169 21.3587 0.307824C22.0509 -0.144194 22.6452 -0.0928663 23.1235 0.425382C23.6508 1.01152 23.7341 1.77978 23.2068 2.36591C22.1505 3.55308 21.0469 4.70879 19.9237 5.82808C16.6586 9.14122 13.3918 12.4362 10.0925 15.7311C9.76267 16.0655 9.81165 16.2659 10.0598 16.6004C14.3648 22.523 18.6536 28.4439 22.926 34.3665C23.1398 34.6678 23.3716 34.9692 23.4696 35.3202C23.6998 36.0222 23.37 36.7425 22.7594 37.0438C22.1489 37.3452 21.4403 37.1945 20.9783 36.5753C20.3024 35.706 19.6592 34.802 19.016 33.9161C15.3052 28.8313 11.6091 23.7449 7.8983 18.6601C7.833 18.5591 7.74974 18.4763 7.6175 18.3422H7.58485L7.58811 18.3405Z" fill="#003049"/>
<path d="M42.1347 61.1157C41.3762 61.1157 40.6627 60.9486 39.9942 60.6143C39.3386 60.2801 38.8115 59.8044 38.413 59.1874L39.2422 58.2232C39.615 58.7631 40.0456 59.1745 40.5341 59.4573C41.0226 59.7402 41.5626 59.8816 42.1539 59.8816C43.8252 59.8816 44.6608 58.8917 44.6608 56.9119V48.7358H39.7242V47.5017H46.0684V56.8541C46.0684 58.2811 45.7342 59.3481 45.0657 60.0551C44.4101 60.7622 43.4331 61.1157 42.1347 61.1157ZM56.2496 61.1157C55.234 61.1157 54.2891 60.9486 53.4149 60.6143C52.5536 60.2672 51.8015 59.7852 51.1588 59.1681C50.5288 58.5382 50.0339 57.8118 49.674 56.9891C49.3269 56.1535 49.1533 55.2407 49.1533 54.2509C49.1533 53.261 49.3269 52.3547 49.674 51.5319C50.0339 50.6963 50.5288 49.97 51.1588 49.3529C51.8015 48.723 52.5536 48.2409 53.4149 47.9067C54.2762 47.5596 55.2211 47.386 56.2496 47.386C57.2651 47.386 58.2036 47.5596 59.0649 47.9067C59.9262 48.2409 60.6718 48.7166 61.3018 49.3336C61.9445 49.9507 62.4395 50.677 62.7866 51.5126C63.1465 52.3482 63.3265 53.261 63.3265 54.2509C63.3265 55.2407 63.1465 56.1535 62.7866 56.9891C62.4395 57.8247 61.9445 58.551 61.3018 59.1681C60.6718 59.7852 59.9262 60.2672 59.0649 60.6143C58.2036 60.9486 57.2651 61.1157 56.2496 61.1157ZM56.2496 59.843C57.0594 59.843 57.8051 59.708 58.4864 59.4381C59.1806 59.1552 59.7784 58.7631 60.2798 58.2618C60.794 57.7476 61.1925 57.1562 61.4753 56.4877C61.7581 55.8064 61.8995 55.0608 61.8995 54.2509C61.8995 53.441 61.7581 52.7018 61.4753 52.0333C61.1925 51.3519 60.794 50.7606 60.2798 50.2592C59.7784 49.745 59.1806 49.3529 58.4864 49.0829C57.8051 48.8001 57.0594 48.6587 56.2496 48.6587C55.4397 48.6587 54.6876 48.8001 53.9934 49.0829C53.2992 49.3529 52.695 49.745 52.1808 50.2592C51.6794 50.7606 51.2809 51.3519 50.9852 52.0333C50.7024 52.7018 50.561 53.441 50.561 54.2509C50.561 55.0479 50.7024 55.7871 50.9852 56.4684C51.2809 57.1498 51.6794 57.7476 52.1808 58.2618C52.695 58.7631 53.2992 59.1552 53.9934 59.4381C54.6876 59.708 55.4397 59.843 56.2496 59.843ZM66.525 61V47.5017H72.3485C73.8526 47.5017 75.016 47.8038 75.8388 48.408C76.6744 49.0122 77.0922 49.8671 77.0922 50.9727C77.0922 51.7055 76.9187 52.3225 76.5716 52.8239C76.2373 53.3253 75.7745 53.7045 75.1832 53.9616C74.6047 54.2187 73.9683 54.3473 73.2741 54.3473L73.6019 53.8845C74.4633 53.8845 75.2024 54.0195 75.8195 54.2894C76.4494 54.5465 76.9379 54.9386 77.285 55.4657C77.6321 55.9799 77.8057 56.6227 77.8057 57.394C77.8057 58.5382 77.3815 59.4252 76.533 60.0551C75.6974 60.685 74.4311 61 72.7342 61H66.525ZM67.9519 59.8237H72.7149C73.8976 59.8237 74.8039 59.6245 75.4338 59.2259C76.0638 58.8146 76.3787 58.1654 76.3787 57.2783C76.3787 56.4042 76.0638 55.7678 75.4338 55.3693C74.8039 54.9579 73.8976 54.7522 72.7149 54.7522H67.7977V53.5759H72.2521C73.332 53.5759 74.1676 53.3703 74.7589 52.9589C75.3631 52.5475 75.6652 51.9369 75.6652 51.127C75.6652 50.3042 75.3631 49.6936 74.7589 49.2951C74.1676 48.8837 73.332 48.678 72.2521 48.678H67.9519V59.8237Z" fill="#003049"/>
</svg>
