<svg width="183" height="85" viewBox="0 0 183 85" fill="none" xmlns="http://www.w3.org/2000/svg">
<path d="M61.4498 25.9043H75.6725C77.1982 25.9043 78.0364 26.7687 78.0102 28.1896C78.0102 29.257 77.2506 30.0951 76.2094 30.2196C75.7511 30.2719 75.2665 30.2982 74.8147 30.2982H47.895C47.3384 30.2982 46.7491 30.2982 46.2448 30.0952C45.2561 29.7416 44.6995 28.7004 44.8763 27.7116C45.0269 26.7228 45.865 26.0091 47.011 25.9567C47.9736 25.9043 48.9427 25.9305 49.9053 25.9305H61.5087L61.4563 25.9043H61.4498Z" fill="white"/>
<path d="M62.1618 51.7695L79.102 51.8481C80.8045 51.8481 81.7409 52.791 81.6427 54.2644C81.5641 55.1288 81.132 55.7639 80.2938 55.9931C79.7372 56.1699 79.1282 56.2485 78.5389 56.2485H45.3263C44.462 56.2485 43.6238 56.1176 43.0672 55.3842C42.5303 54.6769 42.4844 53.8912 42.8118 53.0726C43.172 52.2345 43.9054 51.8809 44.7698 51.8547C47.1075 51.8023 49.4452 51.7761 51.7763 51.7761H62.1618V51.7695Z" fill="white"/>
<path d="M61.9799 0H79.0969C80.1119 0 80.8715 0.353605 81.3037 1.27035C81.8341 2.3639 81.3822 3.66046 80.2363 4.04025C79.4505 4.29563 78.5862 4.34147 77.748 4.36766H57.2521C53.5458 4.36766 49.8395 4.36767 46.1332 4.39386C45.6028 4.39386 45.0659 4.39385 44.5355 4.34146C43.1145 4.19086 42.427 3.43128 42.4793 2.08235C42.5317 0.7858 43.3175 0.0261984 44.7385 0.0261984H61.9537L61.9799 0Z" fill="white"/>
<path d="M105.322 29.7485V6.35177C105.322 5.08142 104.674 4.44624 103.364 4.44624H89.1413C87.334 4.44624 86.2732 3.1497 86.7315 1.63052C86.9869 0.766154 87.5697 0.255382 88.4341 0.104774C88.8663 0.0261952 89.2985 0.0261984 89.7306 0.0261984C101.537 0.0261984 113.343 0 125.156 0C125.589 0 126.021 -3.19561e-06 126.453 0.0785753C127.848 0.255377 128.561 1.11974 128.457 2.49487C128.385 3.66699 127.566 4.4004 126.25 4.4004C121.3 4.42659 116.349 4.47897 111.392 4.47897C110.305 4.47897 109.768 5.00938 109.768 6.07674V54.265C109.637 55.6401 108.806 56.4718 107.581 56.4718C106.357 56.4718 105.42 55.5092 105.296 54.1864V29.7747L105.322 29.7485Z" fill="white"/>
<path d="M155.382 8.44125C153.908 12.1737 152.54 15.7032 151.165 19.2654C146.62 30.9736 142.076 42.6884 137.557 54.3966C137.23 55.2609 136.798 56.0729 135.829 56.3283C134.99 56.5575 134.205 56.4069 133.596 55.7455C132.961 55.0579 132.836 54.246 133.164 53.3816C134.231 50.5855 135.298 47.7894 136.385 44.9999C141.918 30.7772 147.452 16.5479 152.991 2.32522C153.122 1.99781 153.247 1.69004 153.397 1.38228C153.83 0.622687 154.314 -0.0648786 155.329 0.00715169C156.344 0.0857302 157.104 0.56374 157.49 1.53288C158.76 4.68256 160.05 7.83227 161.275 10.982C166.631 24.7528 171.968 38.5172 177.298 52.288C177.528 52.8446 177.678 53.4798 177.731 54.0888C177.803 55.3068 177.22 56.0925 176.205 56.3217C175.039 56.6033 174.096 56.1908 173.618 55.0514C173.009 53.6763 172.499 52.2815 171.968 50.8867C166.559 36.9652 161.177 23.0699 155.768 9.14844C155.696 8.97164 155.617 8.82104 155.414 8.43469H155.388L155.382 8.44125Z" fill="white"/>
<path d="M11.682 27.8561C11.3022 28.1835 10.9682 28.4912 10.6408 28.8187C8.91211 30.5736 7.18993 32.3219 5.43501 34.0507C4.77365 34.712 4.49207 35.4454 4.49207 36.3884C4.49207 42.105 4.49208 47.7954 4.46588 53.5119V54.4549C4.33492 55.5222 3.45091 56.3342 2.38355 56.4128C1.29 56.4914 0.379793 55.8038 0.150606 54.7103C0.0523829 54.2257 0 53.7215 0 53.2369V3.16932C0 2.63892 0.0261956 2.10197 0.176804 1.59776C0.458377 0.608977 1.31619 0.0196412 2.3639 0.045834C3.35268 0.045834 4.11882 0.65481 4.36765 1.69598C4.49207 2.20674 4.49207 2.73714 4.49207 3.2741V26.8476C4.49207 27.378 4.54446 27.9412 4.5903 28.6746C5.80827 27.4042 6.84942 26.2845 7.91678 25.2171C15.7877 17.32 23.6849 9.41632 31.582 1.54538C31.988 1.16558 32.4202 0.785784 32.8786 0.478018C33.9459 -0.209544 34.8561 -0.130972 35.5961 0.654813C36.408 1.54537 36.539 2.71095 35.727 3.60151C34.1031 5.40226 32.4005 7.15718 30.6718 8.85972C25.6428 13.8887 20.6138 18.8916 15.5389 23.8944C15.0281 24.4052 15.1067 24.7064 15.4865 25.2171C22.1133 34.2078 28.7139 43.1985 35.2948 52.1958C35.6223 52.6541 35.9824 53.1125 36.133 53.6429C36.4866 54.7103 35.9824 55.8038 35.0395 56.2622C34.0965 56.7206 33.0095 56.4914 32.2958 55.5484C31.2546 54.2257 30.2658 52.8571 29.277 51.5082C23.567 43.7879 17.8766 36.061 12.16 28.3406C12.0618 28.19 11.9308 28.0591 11.7278 27.8561H11.6755H11.682Z" fill="white"/>
<path d="M2.75538 84V67.081H4.54396V84H2.75538ZM10.0489 84V67.081H11.5232L19.2576 80.2778H18.4842L26.1461 67.081H27.6205V84H25.9044V69.7639H26.3153L19.2576 81.8489H18.4117L11.3057 69.7639H11.7649V84H10.0489ZM33.1331 84V67.081H34.6075L42.3419 80.2778H41.5684L49.2303 67.081H50.7047V84H48.9886V69.7639H49.3995L42.3419 81.8489H41.4959L34.3899 69.7639H34.8492V84H33.1331ZM63.6134 84.145C62.3404 84.145 61.1561 83.9355 60.0604 83.5166C58.9808 83.0815 58.0382 82.4773 57.2325 81.7038C56.4429 80.9143 55.8226 80.0039 55.3714 78.9726C54.9363 77.9253 54.7188 76.7812 54.7188 75.5405C54.7188 74.2998 54.9363 73.1638 55.3714 72.1325C55.8226 71.0852 56.4429 70.1748 57.2325 69.4013C58.0382 68.6118 58.9808 68.0075 60.0604 67.5886C61.14 67.1535 62.3243 66.936 63.6134 66.936C64.8863 66.936 66.0626 67.1535 67.1422 67.5886C68.2218 68.0075 69.1564 68.6037 69.9459 69.3771C70.7516 70.1506 71.3719 71.061 71.807 72.1084C72.2582 73.1557 72.4838 74.2998 72.4838 75.5405C72.4838 76.7812 72.2582 77.9253 71.807 78.9726C71.3719 80.02 70.7516 80.9304 69.9459 81.7038C69.1564 82.4773 68.2218 83.0815 67.1422 83.5166C66.0626 83.9355 64.8863 84.145 63.6134 84.145ZM63.6134 82.5498C64.6285 82.5498 65.5631 82.3806 66.4171 82.0422C67.2872 81.6877 68.0365 81.1963 68.6649 80.5679C69.3094 79.9233 69.8089 79.1821 70.1634 78.3442C70.5179 77.4902 70.6952 76.5556 70.6952 75.5405C70.6952 74.5254 70.5179 73.5988 70.1634 72.7609C69.8089 71.9069 69.3094 71.1657 68.6649 70.5373C68.0365 69.8928 67.2872 69.4013 66.4171 69.0629C65.5631 68.7084 64.6285 68.5312 63.6134 68.5312C62.5982 68.5312 61.6556 68.7084 60.7855 69.0629C59.9154 69.4013 59.158 69.8928 58.5135 70.5373C57.8851 71.1657 57.3856 71.9069 57.015 72.7609C56.6605 73.5988 56.4832 74.5254 56.4832 75.5405C56.4832 76.5395 56.6605 77.466 57.015 78.32C57.3856 79.1741 57.8851 79.9233 58.5135 80.5679C59.158 81.1963 59.9154 81.6877 60.7855 82.0422C61.6556 82.3806 62.5982 82.5498 63.6134 82.5498ZM79.5439 84V68.6279H73.598V67.081H87.2783V68.6279H81.3324V84H79.5439ZM90.1356 84V67.081H96.4681C97.9022 67.081 99.1349 67.3146 100.166 67.7819C101.197 68.2331 101.987 68.8937 102.535 69.7639C103.099 70.6179 103.381 71.6572 103.381 72.8818C103.381 74.0742 103.099 75.1054 102.535 75.9756C101.987 76.8296 101.197 77.4902 100.166 77.9575C99.1349 78.4087 97.9022 78.6343 96.4681 78.6343H91.1266L91.9242 77.8125V84H90.1356ZM101.689 84L97.3383 77.8608H99.2719L103.647 84H101.689ZM91.9242 77.9575L91.1266 77.1115H96.4198C98.1117 77.1115 99.3927 76.7409 100.263 75.9997C101.149 75.2585 101.592 74.2192 101.592 72.8818C101.592 71.5283 101.149 70.4809 100.263 69.7397C99.3927 68.9985 98.1117 68.6279 96.4198 68.6279H91.1266L91.9242 67.7819V77.9575ZM109.197 74.6462H118.14V76.1689H109.197V74.6462ZM109.391 82.4531H119.566V84H107.602V67.081H119.204V68.6279H109.391V82.4531ZM130.587 84.145C128.427 84.145 126.727 83.5247 125.487 82.2839C124.246 81.0432 123.626 79.2063 123.626 76.7732V67.081H125.414V76.7007C125.414 78.6987 125.865 80.1731 126.768 81.1238C127.67 82.0745 128.943 82.5498 130.587 82.5498C132.246 82.5498 133.527 82.0745 134.43 81.1238C135.332 80.1731 135.783 78.6987 135.783 76.7007V67.081H137.523V76.7732C137.523 79.2063 136.903 81.0432 135.662 82.2839C134.438 83.5247 132.746 84.145 130.587 84.145ZM146.532 84L154.266 67.081H156.031L163.765 84H161.88L154.774 68.1203H155.499L148.393 84H146.532ZM149.577 79.4802L150.109 78.03H159.946L160.478 79.4802H149.577ZM173.748 84.145C172.459 84.145 171.266 83.9355 170.171 83.5166C169.091 83.0815 168.149 82.4773 167.343 81.7038C166.553 80.9304 165.933 80.02 165.482 78.9726C165.047 77.9253 164.829 76.7812 164.829 75.5405C164.829 74.2998 165.047 73.1557 165.482 72.1084C165.933 71.061 166.561 70.1506 167.367 69.3771C168.173 68.6037 169.115 68.0075 170.195 67.5886C171.291 67.1535 172.483 66.936 173.772 66.936C175.061 66.936 176.237 67.1374 177.301 67.5402C178.381 67.9431 179.299 68.5554 180.056 69.3771L178.944 70.5131C178.235 69.8042 177.454 69.2966 176.6 68.9904C175.746 68.6843 174.828 68.5312 173.845 68.5312C172.797 68.5312 171.83 68.7084 170.944 69.0629C170.074 69.4013 169.309 69.8928 168.648 70.5373C168.004 71.1657 167.496 71.9069 167.125 72.7609C166.771 73.5988 166.594 74.5254 166.594 75.5405C166.594 76.5395 166.771 77.466 167.125 78.32C167.496 79.1741 168.004 79.9233 168.648 80.5679C169.309 81.1963 170.074 81.6877 170.944 82.0422C171.83 82.3806 172.789 82.5498 173.82 82.5498C174.787 82.5498 175.698 82.4048 176.552 82.1147C177.422 81.8247 178.219 81.3332 178.944 80.6404L179.96 81.9939C179.154 82.7029 178.211 83.2427 177.132 83.6133C176.052 83.9678 174.924 84.145 173.748 84.145ZM178.244 81.7764V75.5405H179.96V81.9939L178.244 81.7764Z" fill="white"/>
</svg>
