<svg width="117" height="65" viewBox="0 0 117 65" fill="none" xmlns="http://www.w3.org/2000/svg">
<path d="M40.5943 16.996L49.8496 16.9795C50.8444 16.9795 51.3927 17.5474 51.3763 18.4846C51.3763 19.1866 50.8789 19.7396 50.1992 19.8224C49.9005 19.8555 49.5853 19.8721 49.2865 19.8721H31.7035C31.3391 19.8721 30.9566 19.8721 30.625 19.738C29.9799 19.5062 29.6138 18.819 29.7303 18.1667C29.8305 17.5143 30.3771 17.0457 31.124 17.0126C31.7544 16.9795 32.3848 16.996 33.0152 16.996H40.5943Z" fill="#003049"/>
<path d="M40.5163 34.1581H51.579C52.6903 34.1581 53.3043 34.7773 53.237 35.7476C53.1877 36.3172 52.9054 36.7344 52.3571 36.8851C51.9926 37.0026 51.5937 37.0523 51.2129 37.0523H29.521C28.958 37.0523 28.4097 36.9679 28.0452 36.4827C27.6956 36.0158 27.6627 35.4976 27.8778 34.9611C28.1109 34.4097 28.5919 34.1746 29.1549 34.1581C30.6816 34.125 32.2066 34.1084 33.7333 34.1084L40.5163 34.1581Z" fill="#003049"/>
<path d="M40.4652 0.0165574L51.6608 0C52.324 0 52.8214 0.23346 53.1038 0.836151C53.4518 1.5564 53.153 2.40911 52.4077 2.65913C51.8939 2.82636 51.3292 2.85947 50.7826 2.87603H37.3971C34.9758 2.87603 32.5544 2.87603 30.1331 2.89259C29.7851 2.89259 29.4371 2.89259 29.0891 2.85947C28.1599 2.76013 27.7118 2.25844 27.7446 1.37096C27.7774 0.518248 28.2912 0.0165574 29.2204 0.0165574H40.4652Z" fill="#003049"/>
<path d="M68.7895 19.5891V4.18241C68.7895 3.34626 68.3643 2.92736 67.5124 2.92736H58.2243C57.0456 2.92736 56.3496 2.07465 56.6484 1.07127C56.8142 0.501691 57.195 0.16723 57.7597 0.0662298C58.0421 0.0165574 58.3228 0.0165575 58.6051 0.0165575C66.3173 0.0165575 74.0294 0 81.7416 0C82.024 0 82.3047 0 82.587 0.0496724C83.4997 0.16723 83.9643 0.735151 83.897 1.63919C83.8478 2.40911 83.3159 2.89424 82.4541 2.89424C79.2201 2.9108 75.9862 2.94391 72.7507 2.94391C72.0426 2.94391 71.6886 3.29493 71.6886 3.99697V35.731C71.6048 36.635 71.0582 37.1864 70.262 37.1864C69.4658 37.1864 68.8519 36.5506 68.7698 35.6813V19.6057L68.7862 19.5891H68.7895Z" fill="#003049"/>
<path d="M101.486 5.55877C100.524 8.01755 99.6281 10.3422 98.7335 12.6851C95.7638 20.3976 92.7959 28.1084 89.8443 35.8208C89.6293 36.3887 89.3469 36.9252 88.7165 37.0924C88.1699 37.2431 87.6544 37.1421 87.2572 36.7083C86.8418 36.2563 86.7598 35.7215 86.9748 35.1519C87.6708 33.3124 88.3685 31.4712 89.081 29.6316C92.6957 20.2634 96.3105 10.8952 99.9269 1.52703C100.011 1.31013 100.093 1.10813 100.193 0.907782C100.475 0.406091 100.79 -0.045927 101.454 0.0037453C102.117 0.0534177 102.614 0.371321 102.864 1.00713C103.693 3.08178 104.538 5.15642 105.334 7.22942C108.834 16.2963 112.316 25.3631 115.799 34.43C115.949 34.7976 116.049 35.2165 116.082 35.6172C116.131 36.4202 115.75 36.9384 115.087 37.0891C114.324 37.2729 113.71 37.0047 113.396 36.253C112.997 35.3489 112.666 34.43 112.318 33.5094C108.785 24.3415 105.269 15.1919 101.736 6.02403C101.687 5.90648 101.636 5.80713 101.504 5.55546H101.488L101.486 5.55877Z" fill="#003049"/>
<path d="M7.62996 18.3405C7.38044 18.5574 7.16539 18.7594 6.95034 18.9763C5.82257 20.1304 4.69481 21.2845 3.55062 22.422C3.11889 22.8574 2.93667 23.3425 2.93667 23.9601C2.93667 27.7236 2.93667 31.4723 2.92025 35.2358V35.855C2.83653 36.557 2.25705 37.0935 1.55938 37.1432C0.846935 37.1929 0.249399 36.7425 0.100014 36.0222C0.0343512 35.7043 -0.00012207 35.3699 -0.00012207 35.052V2.07947C-0.00012207 1.72845 0.0162938 1.37744 0.11643 1.04297C0.298646 0.390611 0.861709 0.00482263 1.54297 0.0213801C2.18975 0.0213801 2.68715 0.42207 2.85295 1.1092C2.93503 1.44367 2.93503 1.79468 2.93503 2.14736V17.6716C2.93503 18.0226 2.96786 18.3919 3.00069 18.8753C3.79686 18.0392 4.47647 17.3024 5.17415 16.6004C10.3156 11.398 15.4734 6.19565 20.6313 1.00986C20.8972 0.758187 21.1779 0.508169 21.4767 0.307824C22.1727 -0.144194 22.7703 -0.0928663 23.2513 0.425382C23.7815 1.01152 23.8652 1.77978 23.335 2.36591C22.2729 3.55308 21.1632 4.70879 20.0338 5.82808C16.7506 9.14122 13.4658 12.4362 10.1481 15.7311C9.81654 16.0655 9.86579 16.2659 10.1153 16.6004C14.4442 22.523 18.7566 28.4439 23.0526 34.3665C23.2677 34.6678 23.5008 34.9692 23.5993 35.3202C23.8307 36.0222 23.4991 36.7425 22.8852 37.0438C22.2712 37.3452 21.5588 37.1945 21.0942 36.5753C20.4146 35.706 19.7678 34.802 19.121 33.9161C15.3897 28.8313 11.6732 23.7449 7.94186 18.6601C7.87619 18.5591 7.79247 18.4763 7.6595 18.3422H7.62667L7.62996 18.3405Z" fill="#003049"/>
<path d="M42.3475 61.1157C41.5891 61.1157 40.8756 60.9486 40.2071 60.6143C39.5515 60.2801 39.0244 59.8044 38.6259 59.1874L39.4551 58.2232C39.8279 58.7631 40.2585 59.1745 40.747 59.4573C41.2355 59.7402 41.7755 59.8816 42.3668 59.8816C44.038 59.8816 44.8736 58.8917 44.8736 56.9119V48.7358H39.9371V47.5017H46.2813V56.8541C46.2813 58.2811 45.9471 59.3481 45.2786 60.0551C44.623 60.7622 43.6459 61.1157 42.3475 61.1157ZM56.4624 61.1157C55.4469 61.1157 54.502 60.9486 53.6278 60.6143C52.7665 60.2672 52.0144 59.7852 51.3717 59.1681C50.7417 58.5382 50.2468 57.8118 49.8868 56.9891C49.5397 56.1535 49.3662 55.2407 49.3662 54.2509C49.3662 53.261 49.5397 52.3547 49.8868 51.5319C50.2468 50.6963 50.7417 49.97 51.3717 49.3529C52.0144 48.723 52.7665 48.2409 53.6278 47.9067C54.4891 47.5596 55.434 47.386 56.4624 47.386C57.478 47.386 58.4165 47.5596 59.2778 47.9067C60.1391 48.2409 60.8847 48.7166 61.5147 49.3336C62.1574 49.9507 62.6524 50.677 62.9995 51.5126C63.3594 52.3482 63.5394 53.261 63.5394 54.2509C63.5394 55.2407 63.3594 56.1535 62.9995 56.9891C62.6524 57.8247 62.1574 58.551 61.5147 59.1681C60.8847 59.7852 60.1391 60.2672 59.2778 60.6143C58.4165 60.9486 57.478 61.1157 56.4624 61.1157ZM56.4624 59.843C57.2723 59.843 58.018 59.708 58.6993 59.4381C59.3935 59.1552 59.9913 58.7631 60.4926 58.2618C61.0069 57.7476 61.4054 57.1562 61.6882 56.4877C61.971 55.8064 62.1124 55.0608 62.1124 54.2509C62.1124 53.441 61.971 52.7018 61.6882 52.0333C61.4054 51.3519 61.0069 50.7606 60.4926 50.2592C59.9913 49.745 59.3935 49.3529 58.6993 49.0829C58.018 48.8001 57.2723 48.6587 56.4624 48.6587C55.6525 48.6587 54.9005 48.8001 54.2063 49.0829C53.5121 49.3529 52.9079 49.745 52.3937 50.2592C51.8923 50.7606 51.4938 51.3519 51.1981 52.0333C50.9153 52.7018 50.7739 53.441 50.7739 54.2509C50.7739 55.0479 50.9153 55.7871 51.1981 56.4684C51.4938 57.1498 51.8923 57.7476 52.3937 58.2618C52.9079 58.7631 53.5121 59.1552 54.2063 59.4381C54.9005 59.708 55.6525 59.843 56.4624 59.843ZM66.7379 61V47.5017H72.5614C74.0655 47.5017 75.2289 47.8038 76.0517 48.408C76.8873 49.0122 77.3051 49.8671 77.3051 50.9727C77.3051 51.7055 77.1315 52.3225 76.7844 52.8239C76.4502 53.3253 75.9874 53.7045 75.396 53.9616C74.8176 54.2187 74.1812 54.3473 73.487 54.3473L73.8148 53.8845C74.6761 53.8845 75.4153 54.0195 76.0324 54.2894C76.6623 54.5465 77.1508 54.9386 77.4979 55.4657C77.845 55.9799 78.0186 56.6227 78.0186 57.394C78.0186 58.5382 77.5943 59.4252 76.7459 60.0551C75.9103 60.685 74.644 61 72.9471 61H66.7379ZM68.1648 59.8237H72.9278C74.1105 59.8237 75.0168 59.6245 75.6467 59.2259C76.2767 58.8146 76.5916 58.1654 76.5916 57.2783C76.5916 56.4042 76.2767 55.7678 75.6467 55.3693C75.0168 54.9579 74.1105 54.7522 72.9278 54.7522H68.0106V53.5759H72.465C73.5449 53.5759 74.3805 53.3703 74.9718 52.9589C75.576 52.5475 75.8781 51.9369 75.8781 51.127C75.8781 50.3042 75.576 49.6936 74.9718 49.2951C74.3805 48.8837 73.5449 48.678 72.465 48.678H68.1648V59.8237Z" fill="#003049"/>
</svg>
