<svg width="167" height="93" viewBox="0 0 167 93" fill="none" xmlns="http://www.w3.org/2000/svg">
<path d="M58.3989 24.2595L71.7134 24.2358C73.1445 24.2358 73.9332 25.0465 73.9096 26.3841C73.9096 27.3862 73.1941 28.1755 72.2164 28.2937C71.7866 28.3409 71.3332 28.3646 70.9034 28.3646H45.6086C45.0844 28.3646 44.5341 28.3646 44.0571 28.1731C43.129 27.8423 42.6024 26.8615 42.77 25.9303C42.9141 24.9992 43.7005 24.3304 44.775 24.2831C45.6818 24.2358 46.5887 24.2595 47.4955 24.2595H58.3989Z" fill="#003049"/>
<path d="M58.2867 48.7558H74.2012C75.8 48.7558 76.6832 49.6397 76.5864 51.0246C76.5156 51.8376 76.1094 52.4332 75.3206 52.6482C74.7964 52.816 74.2225 52.8869 73.6746 52.8869H42.4689C41.6589 52.8869 40.8701 52.7664 40.3459 52.0739C39.8429 51.4075 39.7956 50.6678 40.105 49.9021C40.4403 49.1151 41.1323 48.7795 41.9423 48.7558C44.1385 48.7086 46.3324 48.6849 48.5287 48.6849L58.2867 48.7558Z" fill="#003049"/>
<path d="M58.2131 0.0237554L74.3189 0.00012207C75.273 0.00012207 75.9886 0.333351 76.3947 1.1936C76.8954 2.22165 76.4656 3.43876 75.3934 3.79563C74.6543 4.03432 73.8419 4.08159 73.0555 4.10522H53.7993C50.316 4.10522 46.8327 4.10522 43.3494 4.12886C42.8487 4.12886 42.3481 4.12886 41.8474 4.08159C40.5108 3.93979 39.8661 3.2237 39.9133 1.95696C39.9605 0.739844 40.6997 0.0237554 42.0364 0.0237554H58.2131Z" fill="#003049"/>
<path d="M98.9601 27.9607V5.96989C98.9601 4.77641 98.3485 4.17849 97.1228 4.17849H83.7611C82.0655 4.17849 81.0642 2.96137 81.494 1.5292C81.7325 0.71621 82.2804 0.238818 83.0928 0.0946552C83.499 0.0237554 83.9028 0.0237554 84.309 0.0237554C95.4036 0.0237554 106.498 0.00012207 117.593 0.00012207C117.999 0.00012207 118.403 0.00012207 118.809 0.0710219C120.122 0.238818 120.79 1.04944 120.694 2.33982C120.623 3.43876 119.858 4.13122 118.618 4.13122C113.965 4.15485 109.313 4.20212 104.659 4.20212C103.64 4.20212 103.131 4.70315 103.131 5.7052V51.0007C103.01 52.2911 102.224 53.0781 101.078 53.0781C99.9331 53.0781 99.0499 52.1706 98.9318 50.9298V27.9843L98.9554 27.9607H98.9601Z" fill="#003049"/>
<path d="M145.997 7.93443C144.613 11.444 143.324 14.7621 142.037 18.1062C137.764 29.1146 133.495 40.1206 129.249 51.129C128.939 51.9396 128.533 52.7053 127.626 52.944C126.84 53.1591 126.098 53.0149 125.527 52.3957C124.929 51.7505 124.811 50.9872 125.121 50.1742C126.122 47.5485 127.126 44.9205 128.151 42.2949C133.351 28.9232 138.551 15.5514 143.753 2.17973C143.874 1.87013 143.992 1.58181 144.136 1.29585C144.542 0.579757 144.996 -0.0654319 145.95 0.00546793C146.904 0.0763678 147.619 0.530127 147.978 1.43764C149.171 4.39889 150.387 7.36015 151.532 10.319C156.567 23.2606 161.576 36.2022 166.587 49.1438C166.802 49.6684 166.946 50.2664 166.994 50.8383C167.064 51.9845 166.516 52.7242 165.562 52.9393C164.464 53.2016 163.581 52.8188 163.13 51.7458C162.556 50.4554 162.079 49.1438 161.578 47.8298C156.496 34.744 151.438 21.6843 146.356 8.59853C146.285 8.43073 146.212 8.28893 146.023 7.92971H145.999L145.997 7.93443Z" fill="#003049"/>
<path d="M10.9765 26.1786C10.6176 26.4882 10.3082 26.7765 9.99886 27.0861C8.37647 28.7334 6.75407 30.3806 5.10806 32.0042C4.48697 32.6258 4.22484 33.3182 4.22484 34.1998C4.22484 39.5716 4.22484 44.9222 4.20122 50.294V51.1779C4.08078 52.18 3.24715 52.9457 2.24349 53.0166C1.21857 53.0875 0.358958 52.4447 0.144055 51.4166C0.0495928 50.9628 0 50.4855 0 50.0317V2.96838C0 2.46735 0.0236156 1.96633 0.167671 1.48893C0.429805 0.557783 1.23982 0.00712772 2.21987 0.030761C3.15033 0.030761 3.86588 0.602686 4.1044 1.58347C4.22248 2.06086 4.22248 2.56189 4.22248 3.06527V25.2238C4.22248 25.7249 4.26971 26.2519 4.31694 26.942C5.4623 25.7485 6.43998 24.6968 7.44365 23.6948C14.8401 16.2692 22.2601 8.84361 29.6801 1.44167C30.0627 1.08244 30.4665 0.72558 30.8963 0.439617C31.8976 -0.205572 32.7572 -0.132309 33.4492 0.607413C34.212 1.44403 34.3324 2.54062 33.5696 3.37723C32.0417 5.07174 30.4453 6.72134 28.8205 8.31895C24.0974 13.048 19.3719 17.751 14.5992 22.454C14.1221 22.9314 14.193 23.2174 14.552 23.6948C20.7794 32.1484 26.9832 40.5997 33.1634 49.0533C33.4728 49.4834 33.8081 49.9135 33.9498 50.4146C34.2828 51.4166 33.8058 52.4447 32.9226 52.8748C32.0393 53.3049 31.0144 53.0898 30.3461 52.206C29.3684 50.9652 28.4379 49.6748 27.5075 48.4105C22.1397 41.1527 16.7931 33.8925 11.4252 26.6347C11.3308 26.4906 11.2103 26.3724 11.0191 26.181H10.9718L10.9765 26.1786Z" fill="#003049"/>
<path d="M59.4413 87.114C58.3587 87.114 57.3403 86.8755 56.3861 86.3984C55.4503 85.9213 54.698 85.2424 54.1292 84.3616L55.3127 82.9854C55.8448 83.7561 56.4595 84.3432 57.1568 84.7469C57.8541 85.1506 58.6247 85.3525 59.4688 85.3525C61.8542 85.3525 63.0469 83.9396 63.0469 81.1138V69.4436H56.0008V67.6821H65.0562V81.0312C65.0562 83.068 64.5791 84.591 63.6249 85.6002C62.6891 86.6094 61.2946 87.114 59.4413 87.114ZM79.5882 87.114C78.1386 87.114 76.7899 86.8755 75.5422 86.3984C74.3128 85.9029 73.2393 85.2148 72.3219 84.3341C71.4228 83.435 70.7163 82.3982 70.2025 81.2239C69.7071 80.0312 69.4594 78.7284 69.4594 77.3155C69.4594 75.9026 69.7071 74.6089 70.2025 73.4346C70.7163 72.2419 71.4228 71.2051 72.3219 70.3244C73.2393 69.4252 74.3128 68.7371 75.5422 68.2601C76.7716 67.7646 78.1203 67.5169 79.5882 67.5169C81.0378 67.5169 82.3773 67.7646 83.6067 68.2601C84.8361 68.7371 85.9004 69.4161 86.7995 70.2968C87.717 71.1776 88.4234 72.2143 88.9188 73.4071C89.4326 74.5998 89.6895 75.9026 89.6895 77.3155C89.6895 78.7284 89.4326 80.0312 88.9188 81.2239C88.4234 82.4166 87.717 83.4533 86.7995 84.3341C85.9004 85.2148 84.8361 85.9029 83.6067 86.3984C82.3773 86.8755 81.0378 87.114 79.5882 87.114ZM79.5882 85.2974C80.7442 85.2974 81.8085 85.1047 82.781 84.7194C83.7718 84.3157 84.6251 83.7561 85.3407 83.0404C86.0747 82.3065 86.6435 81.4624 87.0472 80.5082C87.4509 79.5357 87.6527 78.4715 87.6527 77.3155C87.6527 76.1595 87.4509 75.1044 87.0472 74.1502C86.6435 73.1777 86.0747 72.3336 85.3407 71.618C84.6251 70.884 83.7718 70.3244 82.781 69.939C81.8085 69.5353 80.7442 69.3335 79.5882 69.3335C78.4322 69.3335 77.3588 69.5353 76.3679 69.939C75.377 70.3244 74.5146 70.884 73.7806 71.618C73.065 72.3336 72.4962 73.1777 72.0742 74.1502C71.6705 75.1044 71.4686 76.1595 71.4686 77.3155C71.4686 78.4531 71.6705 79.5082 72.0742 80.4807C72.4962 81.4532 73.065 82.3065 73.7806 83.0404C74.5146 83.7561 75.377 84.3157 76.3679 84.7194C77.3588 85.1047 78.4322 85.2974 79.5882 85.2974ZM94.2548 86.9489V67.6821H102.567C104.714 67.6821 106.375 68.1133 107.549 68.9757C108.742 69.8381 109.338 71.0583 109.338 72.6364C109.338 73.6823 109.09 74.5631 108.595 75.2787C108.118 75.9943 107.457 76.5356 106.613 76.9026C105.787 77.2696 104.879 77.4531 103.888 77.4531L104.356 76.7925C105.586 76.7925 106.641 76.9852 107.521 77.3705C108.421 77.7375 109.118 78.2971 109.613 79.0495C110.109 79.7834 110.356 80.7009 110.356 81.8019C110.356 83.435 109.751 84.7011 108.54 85.6002C107.347 86.4993 105.54 86.9489 103.118 86.9489H94.2548ZM96.2916 85.2699H103.09C104.778 85.2699 106.072 84.9855 106.971 84.4166C107.87 83.8295 108.32 82.9028 108.32 81.6367C108.32 80.389 107.87 79.4807 106.971 78.9118C106.072 78.3247 104.778 78.0311 103.09 78.0311H96.0714V76.3521H102.429C103.971 76.3521 105.164 76.0585 106.008 75.4714C106.87 74.8842 107.301 74.0126 107.301 72.8566C107.301 71.6822 106.87 70.8106 106.008 70.2418C105.164 69.6546 103.971 69.361 102.429 69.361H96.2916V85.2699Z" fill="#003049"/>
</svg>
