<svg width="66" height="37" viewBox="0 0 66 37" fill="none" xmlns="http://www.w3.org/2000/svg">
<path d="M23.0799 9.58747L28.3419 9.57812C28.9075 9.57812 29.2192 9.89849 29.2099 10.4271C29.2099 10.8232 28.9271 11.1351 28.5407 11.1818C28.3708 11.2005 28.1916 11.2098 28.0218 11.2098H18.025C17.8179 11.2098 17.6004 11.2098 17.4119 11.1342C17.0451 11.0034 16.8369 10.6158 16.9032 10.2478C16.9601 9.87981 17.2709 9.61549 17.6956 9.59681C18.054 9.57812 18.4124 9.58747 18.7708 9.58747H23.0799Z" fill="white"/>
<path d="M23.0355 19.2687H29.3251C29.9569 19.2687 30.306 19.6181 30.2677 20.1654C30.2397 20.4867 30.0792 20.7221 29.7675 20.8071C29.5603 20.8734 29.3335 20.9014 29.117 20.9014H16.7842C16.464 20.9014 16.1523 20.8538 15.9451 20.5801C15.7463 20.3167 15.7277 20.0244 15.8499 19.7217C15.9825 19.4107 16.2559 19.2781 16.576 19.2687C17.444 19.2501 18.3111 19.2407 19.1791 19.2407L23.0355 19.2687Z" fill="white"/>
<path d="M23.0064 0.0093401L29.3716 0C29.7486 0 30.0314 0.131695 30.192 0.471675C30.3898 0.87797 30.22 1.35898 29.7962 1.50002C29.5041 1.59436 29.1831 1.61304 28.8723 1.62238H21.262C19.8854 1.62238 18.5088 1.62238 17.1321 1.63172C16.9343 1.63172 16.7364 1.63172 16.5385 1.61304C16.0103 1.55699 15.7555 1.27399 15.7741 0.77336C15.7928 0.292345 16.0849 0.0093401 16.6132 0.0093401H23.0064Z" fill="white"/>
<path d="M39.1099 11.0503V2.35931C39.1099 1.88763 38.8682 1.65133 38.3838 1.65133H33.1031C32.433 1.65133 32.0373 1.17031 32.2072 0.604304C32.3014 0.283005 32.5179 0.094335 32.839 0.0373604C32.9995 0.0093401 33.1591 0.0093401 33.3197 0.0093401C37.7044 0.0093401 42.0891 0 46.4738 0C46.6343 0 46.7939 0 46.9544 0.0280203C47.4733 0.094335 47.7375 0.4147 47.6992 0.92467C47.6712 1.35898 47.3688 1.63265 46.8788 1.63265C45.0402 1.64199 43.2016 1.66067 41.362 1.66067C40.9595 1.66067 40.7582 1.85868 40.7582 2.2547V20.1559C40.7106 20.6659 40.3998 20.9769 39.9471 20.9769C39.4945 20.9769 39.1454 20.6183 39.0987 20.1279V11.0596L39.1081 11.0503H39.1099Z" fill="white"/>
<path d="M57.6996 3.13572C57.1527 4.52272 56.6431 5.83407 56.1344 7.15569C54.446 11.5063 52.7586 15.856 51.0805 20.2066C50.9583 20.527 50.7977 20.8296 50.4393 20.9239C50.1285 21.0089 49.8355 20.952 49.6096 20.7072C49.3735 20.4523 49.3268 20.1506 49.4491 19.8293C49.8448 18.7916 50.2415 17.753 50.6465 16.7153C52.7017 11.4307 54.7568 6.14603 56.8129 0.861402C56.8605 0.739047 56.9072 0.625097 56.9641 0.512082C57.1247 0.229077 57.3039 -0.0259076 57.6809 0.00211273C58.058 0.030133 58.3408 0.209463 58.4826 0.568123C58.9539 1.73844 59.4346 2.90875 59.8873 4.07813C61.8771 9.19277 63.8566 14.3074 65.8371 19.422C65.9221 19.6294 65.979 19.8657 65.9977 20.0917C66.0257 20.5447 65.8091 20.8371 65.4321 20.9221C64.9981 21.0257 64.649 20.8744 64.4708 20.4504C64.244 19.9404 64.0554 19.422 63.8576 18.9027C61.8491 13.7311 59.8499 8.56979 57.8414 3.39817C57.8134 3.33186 57.7845 3.27582 57.7098 3.13385H57.7005L57.6996 3.13572Z" fill="white"/>
<path d="M4.33804 10.3459C4.19617 10.4683 4.07391 10.5823 3.95165 10.7046C3.31046 11.3556 2.66927 12.0066 2.01875 12.6483C1.77329 12.8939 1.6697 13.1676 1.6697 13.516C1.6697 15.639 1.6697 17.7536 1.66036 19.8766V20.2259C1.61276 20.6219 1.2833 20.9245 0.886647 20.9526C0.481589 20.9806 0.141864 20.7265 0.0569321 20.3202C0.0195996 20.1409 0 19.9522 0 19.7729V1.17303C0 0.975025 0.00933312 0.777015 0.0662652 0.588345C0.169863 0.220345 0.489989 0.00272046 0.877314 0.0120606C1.24504 0.0120606 1.52783 0.238091 1.6221 0.625705C1.66876 0.814375 1.66876 1.01239 1.66876 1.21133V9.96861C1.66876 10.1666 1.68743 10.3749 1.7061 10.6476C2.15875 10.176 2.54514 9.76032 2.9418 9.3643C5.86494 6.42964 8.7974 3.49498 11.7299 0.569664C11.8811 0.427695 12.0407 0.286659 12.2105 0.173644C12.6063 -0.0813404 12.946 -0.0523861 13.2194 0.239959C13.5209 0.570598 13.5685 1.00398 13.267 1.33462C12.6632 2.0043 12.0323 2.65624 11.3901 3.28763C9.52352 5.15659 7.65596 7.01527 5.76974 8.87395C5.58121 9.06262 5.60921 9.17563 5.75107 9.3643C8.21222 12.7053 10.664 16.0453 13.1065 19.3862C13.2288 19.5562 13.3613 19.7262 13.4173 19.9242C13.5489 20.3202 13.3604 20.7265 13.0113 20.8965C12.6623 21.0665 12.2572 20.9815 11.9931 20.6322C11.6067 20.1418 11.2389 19.6319 10.8712 19.1322C8.74981 16.2638 6.63679 13.3946 4.51537 10.5262C4.47803 10.4692 4.43043 10.4225 4.35484 10.3469H4.33617L4.33804 10.3459Z" fill="white"/>
<path d="M23.4918 33.7576C23.0639 33.7576 22.6615 33.6634 22.2844 33.4748C21.9145 33.2863 21.6172 33.018 21.3924 32.6699L21.8601 32.126C22.0704 32.4306 22.3134 32.6626 22.589 32.8222C22.8645 32.9817 23.1691 33.0615 23.5027 33.0615C24.4454 33.0615 24.9168 32.5031 24.9168 31.3863V26.7741H22.1321V26.078H25.7109V31.3537C25.7109 32.1586 25.5223 32.7605 25.1452 33.1594C24.7754 33.5582 24.2242 33.7576 23.4918 33.7576ZM31.4541 33.7576C30.8812 33.7576 30.3482 33.6634 29.855 33.4748C29.3692 33.279 28.9449 33.0071 28.5823 32.659C28.227 32.3037 27.9478 31.8939 27.7447 31.4298C27.5489 30.9584 27.4511 30.4436 27.4511 29.8852C27.4511 29.3268 27.5489 28.8155 27.7447 28.3514C27.9478 27.88 28.227 27.4703 28.5823 27.1222C28.9449 26.7669 29.3692 26.4949 29.855 26.3064C30.3409 26.1106 30.8739 26.0127 31.4541 26.0127C32.027 26.0127 32.5563 26.1106 33.0422 26.3064C33.5281 26.4949 33.9487 26.7633 34.304 27.1113C34.6666 27.4594 34.9458 27.8692 35.1416 28.3405C35.3447 28.8119 35.4462 29.3268 35.4462 29.8852C35.4462 30.4436 35.3447 30.9584 35.1416 31.4298C34.9458 31.9012 34.6666 32.3109 34.304 32.659C33.9487 33.0071 33.5281 33.279 33.0422 33.4748C32.5563 33.6634 32.027 33.7576 31.4541 33.7576ZM31.4541 33.0397C31.9109 33.0397 32.3315 32.9636 32.7159 32.8113C33.1075 32.6517 33.4447 32.4306 33.7275 32.1477C34.0176 31.8577 34.2424 31.5241 34.4019 31.147C34.5615 30.7626 34.6412 30.342 34.6412 29.8852C34.6412 29.4283 34.5615 29.0113 34.4019 28.6342C34.2424 28.2499 34.0176 27.9163 33.7275 27.6335C33.4447 27.3434 33.1075 27.1222 32.7159 26.9699C32.3315 26.8104 31.9109 26.7306 31.4541 26.7306C30.9972 26.7306 30.573 26.8104 30.1814 26.9699C29.7898 27.1222 29.4489 27.3434 29.1589 27.6335C28.876 27.9163 28.6512 28.2499 28.4844 28.6342C28.3249 29.0113 28.2451 29.4283 28.2451 29.8852C28.2451 30.3348 28.3249 30.7518 28.4844 31.1361C28.6512 31.5205 28.876 31.8577 29.1589 32.1477C29.4489 32.4306 29.7898 32.6517 30.1814 32.8113C30.573 32.9636 30.9972 33.0397 31.4541 33.0397ZM37.2505 33.6924V26.078H40.5355C41.384 26.078 42.0403 26.2484 42.5044 26.5892C42.9758 26.9301 43.2115 27.4123 43.2115 28.036C43.2115 28.4493 43.1136 28.7974 42.9178 29.0802C42.7292 29.363 42.4681 29.577 42.1346 29.722C41.8082 29.867 41.4493 29.9396 41.0577 29.9396L41.2426 29.6785C41.7285 29.6785 42.1454 29.7546 42.4935 29.9069C42.8489 30.052 43.1244 30.2731 43.3202 30.5705C43.516 30.8605 43.6139 31.2231 43.6139 31.6582C43.6139 32.3037 43.3746 32.804 42.896 33.1594C42.4246 33.5147 41.7103 33.6924 40.7531 33.6924H37.2505ZM38.0554 33.0288H40.7422C41.4094 33.0288 41.9206 32.9164 42.276 32.6916C42.6313 32.4596 42.809 32.0934 42.809 31.593C42.809 31.0999 42.6313 30.7409 42.276 30.5161C41.9206 30.284 41.4094 30.168 40.7422 30.168H37.9684V29.5045H40.4811C41.0903 29.5045 41.5617 29.3884 41.8952 29.1564C42.2361 28.9243 42.4065 28.5798 42.4065 28.123C42.4065 27.6589 42.2361 27.3144 41.8952 27.0896C41.5617 26.8575 41.0903 26.7415 40.4811 26.7415H38.0554V33.0288Z" fill="white"/>
</svg>
